<?xml version="1.0" encoding="UTF-8" standalone="no"?>
<svg
   height="68.731339mm"
   version="1.1"
   viewBox="0 0 174781.16 177334.71"
   width="67.741585mm"
   id="svg130"
   sodipodi:docname="label_8oz.svg"
   inkscape:version="1.1.2 (0a00cf5339, 2022-02-04)"
   xmlns:inkscape="http://www.inkscape.org/namespaces/inkscape"
   xmlns:sodipodi="http://sodipodi.sourceforge.net/DTD/sodipodi-0.dtd"
   xmlns="http://www.w3.org/2000/svg"
   xmlns:svg="http://www.w3.org/2000/svg"
   xmlns:meerk40t="https://github.com/meerk40t/meerk40t/wiki/Namespace">
  <defs
     id="defs134" />
  <sodipodi:namedview
     id="namedview132"
     pagecolor="#ffffff"
     bordercolor="#666666"
     borderopacity="1.0"
     inkscape:pageshadow="2"
     inkscape:pageopacity="0.0"
     inkscape:pagecheckerboard="0"
     inkscape:document-units="mm"
     showgrid="false"
     inkscape:zoom="1.4788914"
     inkscape:cx="101.42733"
     inkscape:cy="179.86446"
     inkscape:window-width="1920"
     inkscape:window-height="1012"
     inkscape:window-x="0"
     inkscape:window-y="0"
     inkscape:window-maximized="1"
     inkscape:current-layer="g13655" />
  <note
     text="150mm/s @ 15% power, masking tape" />
  <meerk40t:operation
     allowed_attributes="[]"
     color="#00000000"
     dwell_time="50.0"
     frequency="30.0"
     id="meerk40t:3"
     label="Image"
     lock="False"
     matrix="[1.000001, 0.000000,  0.000000, 1.000001,   0.0, 0.1935486401090625]"
     output="True"
     power="1000"
     speed="150.0"
     stopop="True"
     type="op image" />
  <meerk40t:operation
     allowed_attributes="[]"
     color="#000000"
     dangerous="False"
     dpi="500.0"
     dwell_time="50.0"
     frequency="30.0"
     hex_color="#000000ff"
     id="meerk40t:4"
     label="Raster"
     lock="False"
     matrix="[1.000001, 0.000000,  0.000000, 1.000001,   0.0, 0.1935486401090625]"
     output="True"
     power="1000"
     references="path48694 path48696 path910 path96090 path96092 path96094 path96096 path96098 path96100 path96102 path96104 path96106 path96108 path96110 path96112 path96114 path96116 path96118 path96120 path96122 path96124 path96126 path96128 path96130 path96132 path96134 path96136 path96138 path96140 path96142 path96144 path96146 path96148 path96150 path96152 path96154 path96156 path96158 path96160 path96162 path96164 path96166 path96168 path96170 path96172 path96174 path96176 path96178 path96180 path96182 path96184 path96186 path96188 path96190 path96192 path96194 path96196 path96198 path96200 path96202 path96204 path96206 path96208 path96210 path96212 path96214 path96216 path96218 path96220 path96222 path96224 path96226 path96228 path96230 path96232 path96234 path96236 path96238 path96240 path96242 path96244 path96246 path96248 path96250 path96252 path96254 path96256 path96258 path96260 path39022 path38724 meerk40t:124"
     speed="150.0"
     stopop="False"
     type="op raster" />
  <meerk40t:operation
     allowed_attributes="['stroke']"
     color="#00000000"
     dangerous="False"
     dwell_time="50.0"
     frequency="30.0"
     hex_color="#00000000"
     id="meerk40t:98"
     label="Engrave"
     lock="False"
     matrix="[1.000001, 0.000000,  0.000000, 1.000001,   0.0, 0.1935486401090625]"
     output="True"
     power="1000"
     speed="35.0"
     type="op engrave" />
  <meerk40t:operation
     allowed_attributes="['stroke']"
     color="#ff00ff"
     dwell_time="50.0"
     frequency="30.0"
     id="meerk40t:99"
     label="Engrave"
     lock="False"
     matrix="[1.000001, 0.000000,  0.000000, 1.000001,   0.0, 0.1935486401090625]"
     output="False"
     power="1000"
     references="meerk40t:19 meerk40t:20 meerk40t:21 meerk40t:272"
     speed="35.0"
     type="op engrave" />
  <meerk40t:operation
     allowed_attributes="['stroke']"
     color="#0000ff"
     dwell_time="50.0"
     frequency="30.0"
     id="meerk40t:104"
     label="Engrave"
     lock="False"
     matrix="[1.000001, 0.000000,  0.000000, 1.000001,   0.0, 0.1935486401090625]"
     output="True"
     power="1000"
     speed="35.0"
     type="op engrave" />
  <meerk40t:operation
     allowed_attributes="['stroke']"
     color="#ff0000"
     dangerous="False"
     dwell_time="50.0"
     frequency="30.0"
     hex_color="#ff0000ff"
     id="meerk40t:105"
     label="Cut"
     lock="False"
     matrix="[1.000001, 0.000000,  0.000000, 1.000001,   0.0, 0.1935486401090625]"
     output="True"
     power="1000"
     speed="10.0"
     type="op cut" />
  <g
     inkscape:label="Layer 1"
     id="g21"
     transform="translate(-43684.003,-284499.73)" />
  <g
     inkscape:label="Image"
     id="g114"
     transform="translate(-43684.003,-284499.73)" />
  <path
     d="m -21239.006,-201776.15 177.331,4874.59 682.656,-24.03 -150.665,-4149.27 25508.9453,662.66 26.665,4958.59 682.656,-2.73 -30.665,-5621.25 z"
     fill="#ffffff"
     fill-rule="evenodd"
     id="meerk40t:124"
     inkscape:label="Image"
     label="Image"
     lock="False"
     stroke="none"
     stroke-linecap="butt"
     stroke-linejoin="miter"
     stroke-width="682.656"
     stroke_scale="True"
     type="elem path" />
  <g
     id="g13655"
     transform="translate(7.0062052e-5,7534.1238)">
    <path
       id="path20224"
       style="font-size:9102.07px;line-height:1.25;font-family:Roboto;-inkscape-font-specification:Roboto;letter-spacing:-109.225px;word-spacing:0px;stroke-width:682.655"
       d="m 101082.3,168556.21 h 2191.07 v 1155.54 h -4084.374 v -835.54 l 2133.294,-2817.73 h -2039.962 v -1155.54 h 3942.152 v 808.88 z m -6886.216,-1293.31 q 0,-719.99 279.995,-1279.98 279.995,-564.43 804.431,-866.65 524.436,-302.22 1231.091,-302.22 1079.982,0 1702.194,671.1 622.211,666.66 622.211,1817.75 v 53.33 q 0,1124.43 -626.656,1786.64 -622.212,657.77 -1688.861,657.77 -1026.649,0 -1648.861,-613.33 -622.212,-617.76 -671.1,-1671.08 z m 1497.753,93.33 q 0,666.66 208.885,977.77 208.885,311.1 617.767,311.1 799.987,0 817.765,-1231.09 v -151.11 q 0,-1293.31 -826.653,-1293.31 -751.099,0 -813.32,1115.54 z m -5667.781,-3377.72 q -382.215,-31.11 -644.433,-31.11 -871.097,0 -871.097,679.99 v 275.55 h 937.762 v 1039.98 h -937.762 v 3768.83 h -1502.197 v -3768.83 h -697.766 v -1039.98 h 697.766 v -311.1 q 4.444,-862.21 555.546,-1328.87 555.547,-471.1 1586.641,-471.1 733.321,0 2382.182,93.33 v 6826.55 h -1506.642 z m -10603.591,2568.85 395.549,-3306.61 h 3782.159 v 1164.42 h -2564.401 l -146.665,1284.42 q 159.998,-93.33 417.771,-164.44 262.218,-71.11 511.103,-71.11 964.428,0 1479.975,573.33 519.991,568.88 519.991,1599.97 0,622.21 -279.995,1128.87 -275.551,502.21 -777.765,773.32 -502.214,271.11 -1186.647,271.11 -608.878,0 -1142.203,-248.89 -533.324,-253.33 -835.541,-688.87 -302.218,-440 -297.773,-991.1 h 1502.197 q 22.222,355.55 226.663,564.44 204.441,208.88 537.769,208.88 755.543,0 755.543,-1119.98 0,-1035.54 -924.429,-1035.54 -524.436,0 -782.21,337.77 z m -1779.632,1711.08 q 355.549,0 591.101,213.33 235.552,208.89 235.552,537.77 0,328.88 -235.552,542.21 -235.552,208.89 -591.101,208.89 -359.994,0 -595.546,-213.33 -231.107,-213.33 -231.107,-537.77 0,-324.44 231.107,-537.77 235.552,-213.33 595.546,-213.33 z m -1748.522,-3288.83 q 0,471.1 -235.551,831.09 -231.108,360 -639.99,577.77 462.215,226.67 733.321,622.21 271.107,391.11 271.107,928.88 0,866.65 -599.99,1368.86 -595.546,502.22 -1644.417,502.22 -1053.316,0 -1662.195,-502.22 -608.878,-506.65 -608.878,-1368.86 0,-519.99 266.662,-919.99 266.662,-399.99 755.543,-631.1 -413.327,-217.77 -648.878,-577.77 -235.552,-359.99 -235.552,-831.09 0,-844.43 573.324,-1333.31 573.324,-488.88 1546.641,-488.88 982.206,0 1555.529,488.88 573.324,488.88 573.324,1333.31 z m -1373.31,2839.95 q 0,-399.99 -208.886,-613.32 -204.441,-217.78 -542.213,-217.78 -337.772,0 -546.657,217.78 -208.886,213.33 -208.886,613.32 0,386.66 208.886,613.32 213.329,222.22 555.546,222.22 333.328,0 537.769,-222.22 204.441,-222.22 204.441,-613.32 z m -755.543,-3506.61 q -302.217,0 -462.215,200 -155.553,195.55 -155.553,546.66 0,346.66 159.998,559.99 159.997,213.33 471.103,213.33 306.661,0 457.77,-213.33 155.553,-213.33 155.553,-559.99 0,-346.67 -159.997,-546.66 -155.553,-200 -466.659,-200 z m 92167.892,-126173.714 -692.84,52.29 1.19,22.21 1336.79,28673.66 85.57,190.84 1139.81,23799.51 -474.12,-235.27 -393.97,-129.41 38.05,-376.43 336.9,-292.8 232.31,-694.06 -703.71,-98.03 67.96,-575.12 -1751.13,65.36 -81.52,365.99 -400.76,-116.32 -119.55,888.81 547.48,575.13 173.9,390.81 -53.04,190.84 -698.29,258.81 -470.04,1588.11 -175.25,1680.91 391.26,525.46 138.31,1466.97 555.64,-30.11 -143.6,-1606.83 -366.81,-492.77 149.44,-1432.56 380.39,-1284.87 703.71,-261.42 176.61,-632.64 -288.01,-645.7 -437.44,-457.49 2.98,-15.64 350.51,101.94 118.18,-528.06 671.12,-26.16 -55.74,471.86 554.29,78.41 -339.62,295.4 -99.18,1002.54 770.28,253.57 297.51,146.4 175.26,433.95 433.33,4553.73 730.88,-40.44 -1304.14,-27416.08 196.99,440.49 297.51,-87.57 1046.06,-303.25 184.76,-1778.95 432.01,-1386.82 v -2836.39 l -126.34,-2202.45 -2696.67,-15283.82 z m -158900.8538,4878.07 -635.789,66.66 -54.342,1.31 v 3.95 14.37 l 1272.935,35210.43 -243.176,138.55 -249.968,505.84 -168.457,726.74 -43.47,477.09 -177.967,593.42 -89.662,764.65 -288.006,890.13 -139.928,826.09 -101.889,997.3 -138.569,100.65 -2.76,-7.83 -127.701,-393.43 -152.155,-618.25 -259.477,-711.06 -144.003,-1053.52 -311.101,-13.04 -66.568,-269.26 169.816,-498.01 -24.457,-513.68 -51.624,-630.02 -442.878,-543.75 -630.355,-31.4 -604.542,352.92 -74.724,550.29 196.987,479.71 57.061,330.69 -23.091,295.4 -96.456,11.79 -764.849,124.18 -340.987,533.29 88.305,3454.64 -70.647,1.19 47.548,3101.73 -971.342,2.39 8.171,2007.7 855.871,-2.39 38.04,8243.78 695.565,18.33 -38.043,-8264.69 6044.064,-19.65 -47.908,8499.59 695.563,16.96 47.909,-8519.19 4616.2558,-15.65 22.656,8692.2 695.564,16.97 -22.663,-8711.81 5637.865,-18.34 -39.268,8802.48 695.563,18.34 39.268,-8823.37 6160.849,-46.54 1.733,9036.26 695.563,16.96 -1.733,-9055.86 5836.256,7.05 73.356,9124.15 447.344,38.48 c 52.803,-629.98 -38.743,-2330.06 59.385,-2946.1 l 115.475,-6219.14 1775.588,-5.37 c 339.196,-725.48 714.602,-1421.91 1124.856,-2086.13 l -12.233,-367.29 149.437,2.39 v 142.47 c 178.164,-279.96 363.775,-552.23 554.278,-819.54 l -2.749,-831.32 633.072,-2.39 c 471.246,-586.58 970.702,-1140.58 1503.874,-1647.35 -37.082,-108.05 -68.956,-190.76 -122.267,-392.13 -45.737,-172.79 -85.382,-350.16 -99.172,-479.7 -6.911,-64.78 -5.675,-117.73 -2.748,-142.48 2.927,-24.76 15.107,-9.49 -35.319,37.88 183.465,-172.89 261.866,-391.51 336.912,-588.18 75.045,-196.67 122.268,-366 122.268,-366 l 10.871,-41.82 -70.645,-1271.8 c 0,-12.8 0,-183.41 -5.435,-392.12 -5.735,-216.36 -7.467,-430.23 -46.197,-598.66 -30.184,-131.29 -84.229,-699.3 -84.229,-699.3 l -6.834,-86.25 -529.823,-598.66 -483.634,-313.7 -244.534,-257.49 81.511,-164.69 66.567,-592.12 -205.13,-439.21 c -3.525,-46.11 4.539,-67.1 -28.535,-145.09 -28.289,-66.73 -77.527,-148.74 -172.532,-210.44 -95.008,-61.7 -229.448,-83.96 -346.423,-62.71 -202.463,36.2 -626.279,60.09 -626.279,60.09 l -137.21,7.86 -312.46,443.1 -57.063,586.88 115.475,413.04 126.342,537.23 v 389.5 l -110.04,105.88 -764.848,379.06 -286.648,1198.6 -290.723,653.54 217.363,1607.73 393.971,-341.15 627.637,-545.06 154.873,-295.4 48.909,888.83 67.927,886.2 v 456.18 l 1.434,430.03 -11332.79,70.58 2.748,-210.44 82.841,-350.3 244.533,-1033.91 23.093,-684.91 44.829,-705.83 -24.454,-1037.83 -563.786,-435.26 -21.743,-156.86 191.552,-610.41 -309.743,-731.97 -946.889,-457.48 -552.919,236.58 -383.104,384.28 70.645,589.51 213.288,334.61 -307.027,-11.78 -729.525,84.96 -254.044,777.73 -32.602,558.12 237.742,394.74 -32.602,254.88 -479.559,67.98 -1010.739,100.64 -239.1,-98.03 -89.663,-462.71 -29.884,-304.55 -172.533,-602.57 -340.99,-365.99 -510.804,-216.98 -688.769,105.88 -380.387,416.96 v 593.42 l 268.988,471.86 207.854,389.51 -240.459,643.09 -152.155,469.25 -135.851,343.76 -137.211,222.2 -148.079,-90.18 -305.668,-492.78 -65.208,-330.68 -254.044,-505.85 -275.779,-456.18 -186.118,-397.36 -115.475,-389.5 -146.719,-478.4 -145.363,-697.99 -354.573,-241.81 -525.748,-334.61 -771.642,261.41 v 742.43 l 69.286,645.7 101.89,695.37 445.594,526.76 497.22,567.28 -142.644,491.46 -974.062,355.54 -451.027,216.97 v -169.91 l 32.601,-487.55 v -337.23 l 14.939,-520.23 -309.743,-260.1 -156.23,-295.41 -101.889,-335.92 -97.813,-389.52 -130.418,-524.14 -506.729,-133.32 -486.352,69.27 -461.889,466.65 -8.16,-329.39 -183.401,-677.07 -350.497,-762.04 -664.317,-247.04 -195.626,-202.6 55.702,-433.95 -67.927,-680.99 -237.742,-636.56 -942.814,11.78 -445.596,226.13 -353.2138,341.14 -31.245,695.39 263.5528,450.94 100.53,577.72 -13.582,418.28 -21.741,700.6 c -0.538,8.23 -11.558,161.65 -27.167,345.07 -16.034,188.26 -42.337,416.01 -52.983,465.33 -37.31,172.86 -126.8618,526.05 -127.7008,529.37 v 2.5 l -268.989,810.4 267.63,797.33 165.7398,462.7 80.152,866.6 -366.8008,197.37 -116.828,-673 -61.131,-322.86 -55.702,-486.22 -12.225,-477.09 -46.196,-647.02 -43.47,-589.49 -12.224,-403.9 -130.418,-437.87 -300.235,-309.78 -114.115,-279.72 -63.849,-554.21 -47.548,-688.83 -319.251,-525.46 -216.006,-147.7 -220.08,-6075.36 1566.376,3953.96 1865.2498,-354.23 -2241.5608,-14349.24 888.4728,-979.01 z m 159380.4138,4289.87 2369.26,13436.9 123.62,2146.24 v 2720.06 l -422.49,1354.14 -144.01,1397.29 -304.3,88.88 -681.98,-1522.76 z m -159131.8038,1007.77 2143.747,11899.76 -881.68,972.47 2189.9358,14023.78 -638.505,120.26 -1767.4368,-4465.03 z m 55456.2138,636.55 -4423.343,176.46 259.473,12490.56 -186.113,-65.36 c -497.751,1318.15 -1822.597,3468.19 -3519.931,5901.52 -1697.36,2433.33 -3768.056,5166.2 -5775.075,7726.22 -614.161,783.37 -1059.776,1310.6 -1649.246,2048.21 l 8.153,-163.39 -260.835,-499.31 -696.923,-23.55 c -39.071,-26.76 -37.601,-41.29 -110.04,-62.71 -77.119,-23.55 -196.196,-37.68 -312.46,17 -116.263,54.67 -191.167,163.02 -228.231,270.57 -108.415,314.53 -145.362,743.74 -145.362,743.74 l -2.748,24.82 40.749,439.19 -16.301,149 -54.344,-23.55 -1.375,-466.64 -262.194,-415.65 -391.254,-558.13 -199.703,64.04 -770.282,245.73 -207.853,714.98 172.532,606.49 74.715,141.17 -631.713,19.61 -785.225,548.98 493.144,175.15 -156.231,295.4 -514.879,1148.94 1210.443,-321.55 430.651,1049.6 c -569.656,693.01 -568.707,685.76 -979.494,1181.61 0,0 406.768,430.02 2040.498,-1406.49 591.468,-722.43 1304.673,-1621.84 1990.236,-2473.02 l 236.381,91.5 834.132,985.55 230.949,-763.34 425.217,-288.88 474.125,-414.34 -51.627,-508.46 -206.495,-518.91 31.246,-350.3 -2.748,-227.44 259.477,-27.44 157.589,130.71 349.14,337.23 24.454,95.42 -278.497,358.14 290.724,764.65 671.11,24.82 831.415,707.13 -21.743,-1215.59 -55.701,-648.32 184.759,-432.64 184.76,-776.42 150.796,-656.16 48.909,-100.64 711.866,75.81 453.746,-382.98 -274.422,-691.45 -84.229,-500.62 176.609,-100.64 c 35.206,-6.05 315.779,-56.22 599.109,-56.22 89.985,0 51.262,1.32 42.147,-6.67 l -4.181,66.65 263.556,393.43 39.37,453.56 78.793,535.91 586.882,270.57 430.651,94.11 690.131,4845.39 c 195.981,40.22 389.946,87.85 582.805,138.55 l -774.357,-5423.12 -744.468,-163.39 -262.199,-121.56 -35.338,-236.58 -50.289,-571.2 -283.936,-423.5 c -8.553,-49.86 5.556,-63.31 -31.227,-125.48 -82.07,-138.08 -286.336,-262.73 -528.469,-262.73 -374.869,0 -740.392,70.59 -740.392,70.59 l -47.546,7.85 -597.75,338.54 153.514,916.27 149.437,373.82 -835.491,-90.18 -243.176,503.23 -163.022,711.05 -175.249,731.97 -217.364,512.39 63.849,738.5 -32.601,-27.44 -497.219,-18.33 -58.413,-155.54 254.044,-326.78 -120.91,-486.23 -475.482,-457.49 -354.573,-295.4 -366.801,37.88 c 156.902,-199.08 265.931,-325.32 423.858,-526.76 2011.721,-2566.02 4090.512,-5306.22 5799.531,-7756.28 1365.578,-1957.71 2473.367,-3701.34 3151.769,-5071.51 l 370.875,17815.65 h -5.555 l -1950.838,14.37 c 2548.105,872.55 4784.649,2658.47 6503.238,5046.67 200.025,277.96 389.727,567.41 576.019,861.38 l 85.58,-1202.52 31.27,-83.65 c 0,0 1516.349,-4406.09 5578.083,-4591.82 2145.445,-98.1 3823.783,1178.53 4892.037,2747.51 1068.261,1568.98 1621.443,3455.4 1619.365,4981.32 -2.988,2094.99 161.826,7123.68 245.888,9609.73 l 8186.447,-273.17 -48.86,-8750.97 12344.89,-568.59 136.09,10433.08 1124.72,-23.78 -209.32,-10452.43 11609.917,-534.6 328.01,10606.46 426.58,-14.39 624.91,-15.66 -327.99,-10624.76 12384.29,-571.2 -34.47,10903.43 706.4,-27.42 23.66,-10767.49 -23.66,10767.49 694.21,-27.41 24.97,-10860.29 5965.26,-104.57 216.33,10737.2 755.4,-63.64 31.18,-1365.5 16573.62,-517.86 -44.8,-1878.29 -54.35,-7096.2 h 2.98 l 77.46,-2006.38 -786.59,-28.8 -44.86,-3773.57 -437.44,5.32 -455.1,-58.83 -2482.02,-194.75 695.57,-1652.17 1.19,-2.68 -513.52,-203.91 -1.19,2.68 -5.38,13.06 -55.73,125.48 -27.18,-41.83 -497.22,-517.61 51.61,-747.66 -62.45,-960.71 -893.91,-436.57 -777.08,105.88 -544.76,762.03 188.83,580.35 164.38,602.57 -133.13,363.37 -456.47,461.4 -244.52,352.91 -201.07,-294.09 -402.12,-45.77 -88.3,-428.73 44.85,-956.78 -340.98,-1080.97 -726.81,-484.94 -846.36,239.21 -222.8,924.11 v 716.28 l 373.59,580.36 99.18,602.56 -62.45,593.43 -1541.92,758.11 -2945.29,-35.26 -1411.48,-938.49 -645.32,108.49 -172.53,-196.07 -18.99,-745.05 80.16,-1351.53 -671.11,-551.59 -1088.18,160.77 -440.16,768.57 50.29,880.99 160.31,1138.47 -1264.78,226.13 -427.93,-430.04 8.18,-674.46 -92.38,-798.63 -510.81,-748.96 -729.52,-427.42 -703.72,645.7 -131.78,920.2 403.48,1173.76 -408.91,227.43 -5.37,-362.05 -475.49,-1138.48 -599.1,-248.35 -555.63,-241.82 -36.68,-840.46 -686.06,-790.79 -801.51,62.71 -577.39,579.05 207.86,811.7 244.53,643.09 -1627.51,1154.16 -134.48,775.11 -266.28,-146.4 -210.57,-594.73 -110.04,-897.96 -681.98,-444.42 -744.46,-7.85 -171.18,863.98 184.76,968.55 93.73,664.02 -1507.95,236.57 -76.05,4.01 228.22,-452.26 -459.17,-788.18 -205.14,-465.32 131.77,-832.62 -312.46,-1049.6 -703.72,-275.79 -907.49,375.13 9.5,652.25 -339.64,-108.5 119.55,-452.25 -369.5,-802.55 -444.24,13.05 v -1175.08 l -1747.06,27.44 -133.15,1039.14 -129.05,771.18 213.29,504.54 -1498.46,560.75 114.12,2650.78 -1.19,122.86 -813.76,39.22 -6194.86,209.14 -6588.837,355.52 -5947.61,142.48 -203.77,7.85 -92.38,-1054.83 1219.95,-1653.47 -4940.94,139.86 -76.05,-5778.65 309.75,-4 815.11,-2194.61 -13515.931,60.09 c -590.641,-444.18 -2673.373,-2017.44 -5225.141,-4110.82 -1469.95,-1205.9 -2988.305,-2501.64 -4231.792,-3672.92 -1180.878,-1112.31 -2080.127,-2107.08 -2469.791,-2759.27 z m 199.704,13426.44 c 473.9,569.84 1097.301,1207.95 1819.057,1893.98 l -650.725,14.38 384.455,16098.13 -1282.447,-71.88 h -5.496 z m 1865.246,1939.72 c 36.925,35.03 60.416,64.07 97.82,99.34 1262.342,1189.05 2789.841,2492.4 4267.107,3704.3 1984.897,1628.33 3533.245,2821.53 4563.289,3606.27 l -1172.411,5.31 -35.361,295.41 -236.385,2040.37 1302.817,-18.34 63.873,5976.02 -50.295,2.69 -345.063,10.44 v 5.32 l -8070.97,358.12 z m 21043.503,9562.69 76.06,5799.56 -1709.02,48.38 -48.87,-5824.39 z m -3072.97,43.1 48.86,5844 -3672.09,104.57 -114.11,-5897.59 z m -5128.422,70.58 114.112,5917.21 -2714.324,77.11 -63.878,-5957.71 z m 35855.459,2326.62 -1.2,1182.92 643.94,-18.27 139.92,303.25 -199.7,755.5 1573.18,505.85 -14.94,-1049.6 351.86,-145.09 237.75,92.8 205.13,687.54 -137.21,865.29 277.13,633.93 332.84,569.89 -233.67,466.64 -5245.24,254.89 1.19,-111.11 v -6.67 l -96.45,-2267.81 1654.68,-619.56 -368.16,-869.21 105.97,-633.94 74.7,-585.58 z m -64907.446,572.51 -38.043,418.27 224.156,564.66 17.663,169.93 -241.817,211.74 -528.465,359.45 -271.704,-320.23 -222.798,-86.27 c 371.819,-463.19 674.205,-830.37 1061.005,-1317.55 z m 90314.526,14.38 349.14,232.67 258.12,815.62 -44.8,929.34 182.03,873.14 546.12,62.72 521.68,759.41 681.97,-984.24 506.74,-512.38 228.23,-624.79 -210.57,-773.8 -112.77,-345.07 252.7,-351.6 361.36,-49.66 455.1,220.9 40.8,620.86 -66.54,942.42 626.28,653.54 216.01,322.85 -449.68,1065.28 -3678.87,-37.87 -1548.71,13.04 849.07,-416.96 99.18,-952.87 -126.34,-779.03 -350.51,-542.44 v -501.93 l 135.86,-560.74 z m -15662.4,115.03 380.39,439.18 42.17,989.46 872.16,379.07 393.97,162.08 351.87,841.76 13.56,952.87 -1853.03,32.66 -2160.05,112.41 157.58,-912.36 1783.74,-1262.65 -379.03,-993.39 -127.7,-496.69 220.08,-220.9 z m -76899.121,50.99 495.861,17 47.548,90.2 -20.381,432.64 -184.76,558.14 c -164.12,203.83 -314.338,393.21 -474.124,590.8 l 84.23,-782.95 -40.75,-431.34 c 2.09,-17.2 47.702,-272.81 92.38,-474.48 z m -1560.942,223.52 146.721,210.44 176.607,277.1 1.374,662.7 1001.232,436.56 c -530.827,655.86 -1121.715,1403.41 -1588.113,1972.41 l -493.142,-1199.91 -574.655,152.92 48.909,-109.79 116.831,-218.28 748.546,-444.41 -196.985,-69.28 150.796,-5.31 524.389,-257.5 -320.61,-606.49 -116.833,-411.73 85.586,-298.03 z m -6204.369,6.68 -1.434,37.87 172.533,369.92 -39.4,356.83 -203.778,407.81 543.409,571.2 475.483,309.78 366.8,414.35 c 7.228,96.35 31.33,452.26 84.228,682.3 6.362,27.45 27.083,287.08 32.602,495.39 5.495,208.31 5.436,393.43 5.436,393.43 v 7.85 l 66.615,1189.34 c -8.213,28.7 -37.274,132.09 -95.097,283.64 -65.28,171.07 -178.911,368.66 -202.42,390.81 -102.173,96.29 -118.863,196.4 -129.059,282.33 -10.196,85.94 -6.679,169.14 2.747,257.5 18.81,176.71 63.3,371.29 112.758,558.13 42.069,158.93 63.284,207.07 95.096,304.56 l -1574.527,10.45 -1.433,-428.72 v -474.48 l -67.927,-900.58 -58.412,-1043.07 -114.116,-858.76 -535.258,-64.05 -218.723,537.22 -282.572,538.53 -156.23,135.94 -61.131,-450.95 249.968,-563.36 240.459,-1002.54 611.334,-303.24 335.556,-321.55 v -671.83 l -142.646,-605.18 -92.379,-330.69 33.964,-354.23 82.87,-117.63 c 98.449,-5.32 259.784,-16.13 464.614,-44.44 z m -27348.402,99.34 80.154,214.36 55.702,556.82 -78.794,620.87 456.463,477.09 570.579,211.74 239.1,518.92 156.229,573.82 10.873,543.74 65.21,688.84 -29.887,1262.65 900.7,-158.16 524.39,-573.81 -139.928,-601.27 -92.38,-488.84 -78.794,-244.43 134.493,-135.94 180.684,-26.16 77.433,20.9 52.982,215.67 101.888,402.58 120.909,394.75 226.873,432.64 194.269,163.39 -8.16,274.49 v 328.08 l -32.601,487.54 v 1053.53 l 1232.178,-592.12 1210.444,-443.11 297.516,-1024.76 -684.695,-779.02 -343.706,-407.82 -78.795,-538.52 -65.207,-607.8 v -335.92 l 138.568,-47.04 288.007,182.98 165.739,113.72 107.323,512.39 153.514,499.31 124.984,424.8 214.647,458.79 279.855,462.71 213.288,423.5 70.645,354.22 423.859,683.61 744.47,450.95 453.746,-733.29 158.947,-403.89 152.154,-473.16 319.253,-850.93 -321.969,-602.56 -203.779,-356.84 v -256.18 l 108.681,-120.25 330.122,-49.67 249.968,105.88 173.891,185.61 124.984,437.87 27.166,281.02 148.079,767.26 646.656,265.35 1164.254,-115.03 911.568,-129.39 108.682,-837.85 -248.611,-411.74 19.019,-331.99 124.984,-384.3 330.12,-37.87 813.755,30.05 54.345,-664 -259.478,-406.51 -25.816,-220.9 126.343,-126.78 211.929,-90.19 525.748,253.57 156.23,371.22 -169.816,538.52 66.567,484.92 536.617,413.05 17.663,765.95 -43.467,691.46 -21.743,640.48 -232.308,984.23 -96.455,406.51 -2.748,275.79 -15053.778,92.8 -112.757,-1210.36 -186.119,-520.22 -210.57,-628.71 222.798,-673.16 2.759,-9.17 c 0,0 89.238,-353.18 131.777,-550.28 29.367,-136.08 46.008,-335.73 62.49,-529.38 16.49,-193.65 28.535,-363.37 28.535,-363.37 v -5.31 l 23.092,-704.53 13.583,-471.86 -123.626,-721.51 -233.664,-399.97 14.941,-335.93 139.927,-135.93 252.686,-126.79 z m 119620.564,189.53 267.62,220.89 -65.21,1108.42 24.49,955.48 505.37,573.82 734.96,-124.18 684.7,454.87 -137.21,1.44 -4388.03,-43.11 1847.59,-332 -229.59,-1622.11 -40.8,-705.82 230.96,-402.58 z m -4091.87,199.98 258.11,151.62 369.52,541.14 74.71,637.86 -10.87,861.37 747.19,752.88 -67.96,-1.43 -2412.74,43.16 1205.01,-671.84 -505.37,-1469.17 88.32,-613.02 z m -7516.71,1150.24 h 111.4 l 332.84,216.98 88.31,711.05 296.15,840.47 472.77,258.8 -1073.24,56.21 -123.62,-875.75 -169.82,-883.58 z m -111597.1228,215.68 203.78,5657.08 -1627.51,9.2 419.784,-305.86 123.625,-1212.98 130.417,-772.5 293.442,-903.2 89.662,-769.88 179.325,-598.64 46.196,-494.07 z m -3572.911,436.56 205.136,10.44 183.4,224.82 38.041,460.1 19.02,406.5 -187.476,547.67 201.062,811.71 264.911,10.43 89.663,661.39 268.987,737.2 149.437,610.41 139.928,423.49 124.984,329.39 -2654.55,16.97 -76.077,-2969.85 123.628,-192.14 504.011,-82.35 533.899,-64.04 65.208,-796.01 -78.794,-450.95 -165.74,-403.89 21.74,-158.16 z m 4295.645,322.85 39.401,346.38 182.042,441.8 279.855,288.87 74.723,249.64 10.873,347.69 44.83,599.96 44.828,635.25 12.225,487.54 59.78,529.37 65.208,337.23 108.681,624.8 -744.47,4.17 z m 45177.6398,742.43 c -902.853,28.49 -1803.944,178.29 -2689.871,447.03 1814.053,320.48 3577.667,1098.22 5173.246,2340.99 4070.659,3170.55 6527.89,8782.94 6743.707,14964.9 l 3833.74,-128.1 c -43.917,-9772.87 -5801.521,-17542.53 -13060.822,-17624.98 z m -40270.659,308.47 133.134,409.12 86.945,467.94 81.511,345.08 -210.569,230.05 -38.043,6.66 14.938,-636.56 -65.208,-699.29 z m 56885.384,313.7 c -112.237,-3.22 -225.639,-4 -340.988,1.43 -3528.916,161.37 -4954.531,4142.17 -4954.531,4142.17 l -152.156,2124.03 c 1638.784,3010.22 2584.109,6705.72 2601.569,10711.61 l 8534.234,-284.93 c -84.497,-2482.65 -250.542,-7498.2 -247.25,-9633.27 2.986,-2635.39 -1961.547,-6947.41 -5440.878,-7060.92 z m 69186.784,115.03 10.82,843.07 -9372.45,-58.82 -8.18,-758.11 2886.86,28.78 z m 696.92,4 2995.55,30.03 10.88,844.39 -2996.91,-30.03 z m -11910.15,4 1147.95,11.8 8.18,767.26 -5512.88,58.82 -9.5,-759.42 z m 15602.62,65.39 422.5,32.65 -421.14,74.5 z m -20663.12,39.22 8.19,747.65 -5904.14,166 -7.05,-607.8 z m -73452.547,98.03 c -2645.753,-182.15 -5295.563,686.31 -7621.307,2497.85 -3838.014,3011.01 -6897.86,9511.56 -7392.593,15397.32 l 660.24,9.21 c -27.692,-164.55 443.756,-1575.49 460.061,-1829.73 60.69,-946.47 163.632,-1323.1 548.842,-1376.36 128.404,-17.74 287.763,0.36 487.709,45.81 701.169,157.01 4792.272,1632.37 5913.646,2037.76 l 1399.277,19.66 c 210.591,-2684.35 1997.707,-4737 4143.491,-4759.13 2193.583,1.2 4016.713,2124.84 4184.248,4874.15 l 4985.775,67.96 2378.778,-79.73 315.172,-44.44 c 0,0 699.667,-301.81 1133.013,-4.19 l 832.767,-27.41 c -210.285,-6035.34 -2632.135,-11452 -6466.56,-14462.78 -1809.598,-1409.82 -3851.593,-2220.04 -5962.556,-2365.84 z m 96896.567,163.39 8.18,639.16 -2779.53,-118.94 -4.19,-320.24 53.05,277.11 z m -30042.35,79.73 7.05,597.35 -5061.84,206.52 4.18,-558.13 z m -5606.63,273.19 -4.18,554.2 -349.14,14.37 -7.04,-551.59 z m -1054.21,47.04 7.04,548.98 -4927.35,205.21 -7.05,-588.19 z m -5622.92,188.22 7.05,601.26 -6598.337,346.38 -8.18,-596.03 6303.537,-341.16 z m -34003.797,375.14 c 402.955,1.43 617.973,210.44 793.378,465.32 195.349,283.86 261.437,581.61 264.919,597.35 l -7.048,3333.08 -2256.506,-51.01 31.181,-2543.6 v -5.38 c 0,0 -4.182,-444.85 134.493,-894.05 69.212,-224.6 173.983,-441.92 312.466,-598.65 138.478,-156.72 297.211,-257.84 542.048,-290.17 65.682,-8.39 127.164,-13.33 184.759,-13.04 z m 26709.89,1.43 7.05,605.19 -5356.66,233.97 -8.12,-711.06 z m -47220.85,31.4 c 1313.328,43.3 999.667,1011.42 835.491,1785.49 -164.181,774.09 -1952.196,8624.19 -1952.196,8624.19 l 89.663,-8964.46 c 0,0 -286.321,-1488.96 1027.042,-1445.64 z m 80317.157,83.65 9372.45,58.83 5.37,471.86 -9369.73,141.17 z m -695.56,2.52 8.18,675.76 -5512.87,40.49 -8.18,-657.46 z m 10763.57,61.43 2996.9,31.39 7.05,590.8 -2998.24,-147.7 z m -16972.02,11.79 8.19,661.4 -5904.14,194.75 -8.18,-691.45 z m 20664.48,34.02 2779.54,118.93 7.04,649.62 -2778.17,-156.84 z m -27264.17,155.53 9.5,694.06 -5090.39,220.91 5.38,-707.14 z m -70264.102,1.43 c 898.186,11.04 1037.006,748.07 1055.571,1439.11 -18.123,2824.47 57.606,5972.84 -2.748,8796.72 l -2331.186,-8247.69 c 0,0 -444.766,-1703.89 845,-1946.26 161.217,-30.32 305.056,-43.43 433.369,-41.83 z m 64633.022,230.05 -5.37,708.44 -321.98,14.4 -9.5,-709.75 z m -1031.11,41.83 9.49,713.67 -4925.98,241.81 -9.51,-750.26 z m -5621.57,240.51 9.5,750.26 -6599.687,338.55 -8.18,-741.13 z m -50842.669,305.86 c 123.16,0.72 262.461,21.15 419.783,66.66 1258.496,363.87 238.802,1954.27 -124.986,2662.53 -363.788,708.28 -3693.818,6871.39 -3693.818,6871.39 l 2460.282,-8646.41 c 0,0 76.631,-958.38 938.739,-954.18 z m 43548.782,74.51 8.18,734.57 -5356.67,167.31 -8.18,-667.92 z m 42467.377,40.48 8.18,763.35 -108.69,2.39 -8161.99,294.1 -1094.96,7.82 -12.25,-924.11 z m 695.56,10.46 2998.27,146.39 7.04,535.91 -2996.9,57.46 z m -10760.85,137.25 12.25,920.19 -5515.6,26.16 -10.82,-905.82 z m 14456.03,44.43 2778.18,156.86 5.39,403.9 -2301.35,-82.35 -476.83,9.2 z m -20665.83,14.41 10.81,894.04 -5901.41,270.57 -12.25,-968.56 z m -6596.98,223.5 10.81,973.78 -5121.64,235.28 8.18,-988.16 z m -5659.61,244.43 -7.04,990.77 -289.37,13.02 -12.25,-989.46 z m -1003.94,47.06 12.24,988.16 -4925.99,227.44 -12.25,-973.79 z m -67134.067,247.04 c 658.317,38.71 999.306,655.19 1173.763,1223.44 232.61,757.68 1861.175,7703.99 1861.175,7703.99 l -4196.474,-6312.02 c 0,0 -789.612,-1882.93 391.254,-2437.73 295.212,-138.69 550.843,-190.65 770.282,-177.76 z m 61513.867,30.05 10.8,969.86 -6599.687,304.55 -10.81,-935.87 z m -64554.239,237.89 -186.116,260.11 -1190.066,5.37 -1.434,-256.18 z m -1933.176,11.77 1.433,256.18 -216.005,1.2 -9.504,-256.19 z m -918.361,7.82 8.153,265.33 -2285.032,98.03 2.747,-351.61 z m -2969.729,16.96 -2.747,362.06 -5371.596,-49.64 4.062,-279.72 z m -6065.8,36.61 -4.062,279.72 -1385.693,37.87 2.749,-308.46 z m -1942.686,11.77 -4.062,321.55 -964.55,27.47 4.061,-341.15 z m -1660.113,10.46 -4.061,352.9 -2808.064,51.02 5.435,-385.58 z m -3502.27,22.22 -5.436,405.2 -2598.851,103.26 1.374,-492.78 z m 76251.107,9.2 10.87,941.11 -5355.29,247.03 -12.24,-1019.53 z m -79549.597,10.45 -1.374,503.23 -2321.715,27.47 9.51,-515 z m -3009.126,19.59 -9.51,515.01 -2165.484,13.02 -8.153,-513.69 z m -2878.707,16.97 8.157,511.07 -1520.1858,-2.38 4.085,-499.31 z m -2203.5218,14.39 -4.086,494.08 -695.563,4.18 -19.02,-492.77 z m -1414.222,7.83 17.662,491.45 -364.084,2.4 4.086,-490.17 z m -1037.91,7.82 -4.085,487.54 -3826.957,4.19 -6.845,-467.95 z m 49530.3448,682.32 c 165.134,4.78 354.111,57.64 566.501,177.76 1132.746,640.92 381.411,1666.81 -146.722,2271.72 -528.141,604.96 -5473.48,5948.58 -5473.48,5948.58 l 4051.11,-7557.61 c 0,0 287.009,-861.37 1002.591,-840.45 z m -18626.692,52.26 1.433,833.93 -168.456,-1.2 -28.535,-831.3 z m -889.833,15.66 27.167,814.32 -2346.167,-20.92 5.436,-694.06 z m -8383.437,65.37 5374.312,49.64 -5.435,683.61 -5379.747,71.89 z m -695.563,4.18 -10.871,807.78 -1382.975,11.77 6.833,-580.34 2.748,-201.3 z m -1941.328,53.64 -1.375,180.38 -6.832,590.81 -963.193,7.82 8.154,-752.88 z m -1658.755,43.13 -8.153,733.27 -2809.422,-60.09 8.153,-622.18 z m -3506.345,74.5 -6.833,603.88 -2589.343,78.41 2.748,-579.05 z m -3288.98,116.33 -2.749,573.83 -2338.015,-10.46 9.503,-538.52 z m -3026.788,30.05 -9.503,525.45 -2126.088,-36.61 -6.834,-475.78 z m -5068.6428,11.77 -2.76,490.17 -648.014,-11.77 -17.662,-475.79 z m 695.563,0 1535.1298,7.82 6.834,474.48 -1544.6388,19.65 z m -2059.519,7.82 16.303,461.41 -411.632,-7.82 2.759,-452.27 z m -1088.175,5.38 -2.76,449.64 -3802.506,33.99 -6.845,-479.71 z m 137406.3208,83.51 h 4.18 l 163.02,7476.56 -1593.54,286.25 c -7.83,0.12 -1877.5,31.24 -2556.74,41.81 l -137.21,-7724.9 z m 699.64,24.85 2327.15,83.65 51.61,6845.24 -2218.47,398.66 z m -5515.6,67.97 137.21,7723.6 c -1543.48,24.19 -2393,35.6 -4817.32,78.4 -306.34,5.38 -545.19,11.47 -850.43,16.97 l -255.4,-7612.5 5707.15,-205.21 z m -6481.51,230.05 256.76,7600.73 c -622.98,11.53 -1184.43,23.66 -1755.2,35.25 l -260.84,-7571.98 z m -3207.47,538.51 -4355.42,146.4 2.99,325.47 43.42,6659.63 4566.02,-201.3 z m -95203.84,109.8 2373.337,20.92 14.945,448.31 -2390.999,7.83 z m -695.563,7.84 -2.748,474.46 -5385.18,16.96 5.435,-419.58 z m -12483.457,39.18 2810.782,61.43 -4.062,405.21 -2812.141,9.19 z m -695.564,7.82 -6.834,471.85 -2579.832,9.21 1.374,-402.58 z m -13831.1098,11.77 -2.76,505.84 -3776.691,13.02 -8.172,-484.94 z m 695.564,2.39 441.52,7.04 17.661,492.78 -461.897,2.38 z m 4013.0728,18.34 6.834,470.55 -1569.0918,5.37 2.76,-456.18 z m 695.563,0 2102.991,36.61 -8.154,424.81 -2088.047,7.05 z m 15527.903,1.19 -5.436,415.66 -1381.616,4.17 4.062,-407.8 z m -19098.0978,1.2 619.486,10.44 -2.76,465.33 -599.108,1.2 z m 17159.4878,15.64 -4.062,405.2 -960.475,2.39 4.062,-399.97 z m -10790.739,26.16 2347.526,10.46 -1.374,396.05 -2352.96,7.82 z m 25003.594,10.46 c 445.815,10.93 775.327,379.83 1051.496,796.02 441.871,665.9 3572.912,6517.15 3572.912,6517.15 l -5852.512,-4944.61 c 0,0 -689.355,-1086.39 285.29,-1934.5 365.486,-318.03 675.325,-440.48 942.814,-433.95 z m 89032.076,444.41 207.86,5599.58 -3155.85,138.55 -35.36,-5638.79 z m -70277.686,1497.76 c 231.06,-2.39 495.422,95.5 775.72,384.27 896.962,924.01 -123.392,1710.52 -808.32,2146.25 -684.942,435.74 -6591.549,3780.1 -6591.549,3780.1 l 5768.28,-5816.55 c 0,0 347.537,-489.1 855.869,-494.07 z m 114361.726,2888.66 -1277.01,1407.74 -796.1,169.92 -365.44,241.81 -433.37,1419.5 -14593.25,809.09 -9229.79,380.36 -23396.46,929.36 -12922.26,329.37 -12967.087,424.81 17.68,4781.344 49357.827,-1377.66 14969.54,-984.26 5852.51,-247.04 27.18,606.49 27.18,596.04 -5836.21,247.04 -14979.06,984.23 -16379.7,457.49 2950.71,2776.26 -972.7,956.8 -3911.18,-3678.16 -8928.21,249.65 3221.05,3001.09 -968.61,962.02 -4195.13,-3909.52 -6879.55,192.14 3051.24,3031.15 -999.88,930.64 -3935.62,-3909.5 -8354.92,233.97 3187.1,2990.63 -971.34,959.4 -4150.287,-3896.44 -1381.62,39.18 -5465.34,152.93 3146.35,3010.24 -980.86,948.94 -4081,-3906.88 -4392.1,122.86 -1982.08,67.95 3246.87,3207.61 -995.81,934.57 -4127.19,-4076.83 -5967.971,206.53 2533.628,2503.08 -995.793,933.26 -3413.965,-3372.29 -5515.603,190.84 2539.082,2508.3 -995.799,933.26 -3418.031,-3376.21 -5087.67,175.15 2295.905,2267.8 -997.156,933.26 -3173.51,-3135.72 -611.331,20.98 -3874.502,-101.96 2310.842,2283.48 -995.797,933.28 -3310.715,-3269.04 -5348.501,-139.87 2770.027,2735.74 -997.155,933.28 -3768.54,-3722.6 -4038.885,-105.88 2578.475,2547.52 -995.797,934.58 -3576.988,-3534.38 -3926.127,-103.26 2824.366,2790.63 -997.155,933.28 -3822.881,-3776.2 -3568.837,-94.1 2533.643,2503.08 -995.796,934.56 -3532.156,-3489.93 -115.475,-2.39 -3503.628,-154.24 2832.519,2798.48 -995.798,934.58 -3869.069,-3821.94 -11043.423,-484.93 -7619.9488,-661.39 -532.541,-1.19 -95.096,-19.65 2320.355,1573.73 1316.409,624.79 1244.405,320.23 1700.869,304.56 2513.2648,601.25 1480.789,528.07 5180.043,2270.42 154454.415,1576.35 48.86,-41.81 50.29,-83.66 173.89,-2870.37 -25.74,-3734.36 19.11,-4872.83 -4.17,-2892.594 -177.98,-3019.38 c 487.57,-1550.67 110.84,-2044.86 -17.67,-1418.12 z m -135248.995,-546.25 c 291.757,-7.05 593.255,129.1 889.832,324.16 677.887,445.84 5338.99,4471.56 5338.99,4471.56 l -6823.854,-2205.07 c 0,0 -999.217,-546.09 -448.314,-1694 309.877,-645.68 668.23,-888.24 1043.346,-896.65 z m 22393.874,2069.12 v 1.2 1.19 1.2 1.19 c 267.356,-0.6 541.882,134.22 736.314,569.89 518.532,1161.76 -204.739,1785.75 -1002.59,1972.41 -797.88,186.68 -7223.255,1080.96 -7223.255,1080.96 l 6618.714,-3247.81 c 0,0 425.224,-380.22 870.817,-381.67 z m -58814.4828,4288.57 144.003,3807.544 55.701,-13.02 425.217,145.09 993.079,198.67 h 460.54 l 7647.1188,664.01 16540.002,726.74 460.538,11.77 -27.166,-4874.154 z m 83353.4668,226.12 -27424.486,913.66 -23317.667,-320.23 115.474,4834.924 24476.485,632.64 6014.182,-162.09 20184.912,-696.67 z m -3393.59,1550.214 c 576.57,0 1056.71,163.85 1400.63,498 343.87,334.1 512.16,799.54 512.16,1358.07 0,557.17 -168.4,1021.47 -512.16,1355.46 -343.92,334.14 -824.06,498 -1400.63,498 -575.16,0 -1055.41,-164.22 -1400.64,-498 -343.77,-333.99 -512.16,-798.29 -512.16,-1355.46 0,-558.53 168.3,-1023.97 512.16,-1358.07 345.23,-333.79 825.48,-498 1400.64,-498 z m -46060.685,58.84 h 1252.558 l 950.965,1725.35 v -1725.35 h 1173.762 v 3586.66 h -1251.198 l -950.965,-1725.37 v 1725.37 h -1175.122 v -3419.35 z m 5430.012,0 h 1281.086 l 1381.617,3586.66 h -1249.84 l -213.288,-592.11 h -1115.346 l -214.646,592.11 h -1249.841 z m 2570.323,0 h 3464.23 v 968.55 h -1120.78 v 2618.11 h -1219.952 v -2618.11 h -1123.498 v -801.24 z m 3916.619,0 h 3464.23 v 968.55 h -1120.78 v 2618.11 H 48413.07 v -2618.11 h -1123.498 v -801.24 z m 3593.289,0 h 1372.108 l 673.827,1015.61 675.189,-1015.61 h 1373.458 l -1437.312,2099.19 v 1487.47 h -1219.953 v -1487.47 l -1259.349,-1839.08 z m 6886.343,0 h 1482.149 c 486.4,0 855.723,65.44 1115.348,233.97 260.37,168.21 393.969,455.05 393.969,793.39 0,184.42 -46.197,355.89 -144.001,498.02 v 1.19 c -46.901,67.25 -133.276,97.45 -199.702,147.71 103.194,62.93 227.146,102.1 297.515,198.67 125.358,172.08 184.761,382.65 184.761,614.34 0,351.4 -136.294,650.85 -402.125,836.54 -265.901,185.72 -636.758,262.72 -1107.196,262.72 h -1620.718 z m 4181.529,0 h 1218.598 v 2117.48 c -0.02,249.15 48.867,407.14 100.531,474.47 h 1.553 c 53.658,66.31 135.689,107.19 308.389,107.19 175.112,0 257.991,-40.38 309.741,-105.88 52.875,-66.7 103.249,-225.48 103.249,-475.78 v -2117.48 h 1219.956 v 2117.48 c -0.03,488.36 -130.558,882.73 -412.997,1147.63 -282.526,265.01 -700.308,385.59 -1219.949,385.59 -518.226,0 -934.822,-120.71 -1217.238,-385.59 -282.432,-264.9 -411.631,-659.27 -411.631,-1147.63 v -1950.17 z m 4411.127,0 h 1399.278 l 654.805,1480.94 658.878,-1480.94 h 1396.562 v 3586.66 h -1172.398 v -1727.99 l -490.433,1103.2 h -781.151 l -490.42,-1103.2 v 1727.99 H 66361.86 v -3419.35 z m 5261.546,0 h 1620.726 c 455.508,0 830.001,99.39 1100.397,316.31 h 1.792 c 270.791,215.3 408.91,536.69 408.91,912.35 0,377.62 -138.77,700.75 -410.272,917.58 -270.546,215.78 -644.578,312.4 -1100.402,312.4 H 72843.8 v 1128.02 h -1219.957 v -3419.35 z m 4045.684,0 h 1620.713 c 455.508,0 829.995,99.39 1100.409,316.31 h 1.194 c 270.798,215.3 407.557,536.69 407.557,912.35 0,377.62 -137.405,700.75 -408.912,917.58 -270.553,215.78 -644.585,312.4 -1100.397,312.4 h -400.775 v 1128.02 h -1219.951 v -3419.35 z m 5764.213,883.59 c -222.86,0 -363.3,65.76 -479.57,215.67 -116.24,149.92 -184.76,378.16 -184.76,697.98 0,318.28 68.36,545.31 184.76,695.38 116.27,149.96 256.71,215.67 479.57,215.67 224.59,0 364.8,-65.99 480.91,-215.67 116.39,-150.07 184.76,-377.1 184.76,-695.38 0,-319.82 -68.51,-548.06 -184.76,-697.98 -116.11,-149.68 -256.32,-215.67 -480.91,-215.67 z m -22445.5,22.23 v 352.91 h 308.386 c 111.874,0 170.913,-23.48 199.695,-47.07 28.45,-23.24 46.191,-49.76 46.191,-129.4 0,-77.78 -17.179,-103.02 -46.191,-126.79 v -1.19 h -1.374 c -29.077,-24.43 -87.098,-48.38 -198.34,-48.38 z m 13855.561,36.61 v 573.8 h 308.392 c 141.106,0 223.256,-31.06 275.773,-75.81 52.564,-45.93 80.155,-101.14 80.155,-211.75 0,-111.2 -27.955,-166 -80.155,-210.43 -52.565,-44.8 -134.667,-75.82 -275.773,-75.82 z m 4045.677,0 v 573.8 h 308.381 c 140.478,0 221.833,-31.42 274.434,-75.81 h 1.194 c 52.385,-45.87 80.138,-101.35 80.138,-211.75 0,-111.2 -27.956,-166 -80.138,-210.43 -52.564,-44.8 -134.672,-75.82 -275.79,-75.82 z m -35443.83,500.62 -220.08,613.02 h 438.801 z m 17542.592,721.51 v 517.6 h 338.267 c 150.617,0 238.682,-32.31 282.572,-67.95 44.799,-35.84 70.645,-84.22 70.645,-194.76 0,-107.53 -24.764,-152.52 -67.958,-186.91 h -1.373 c -43.539,-35.42 -131.6,-67.96 -283.937,-67.96 z m -57125.8418,1122.8 2.867,62.69 455.104,28.74 z m 134763.5488,50397.28 47.05,543.27 c 327.96,-419.22 768.57,-628.82 1321.82,-628.82 584.62,0 979.6,232.42 1184.93,697.27 313.7,-464.85 767.14,-697.27 1360.32,-697.27 938.26,0 1420.22,567.51 1445.88,1702.54 v 3011.52 h -1445.88 v -2921.7 c 0,-236.69 -39.91,-409.23 -119.76,-517.6 -79.86,-108.37 -225.3,-162.55 -436.33,-162.55 -285.18,0 -497.64,126.91 -637.38,380.72 l 4.29,59.89 v 3161.25 h -1445.88 v -2913.14 c 0,-242.4 -38.5,-417.79 -115.5,-526.16 -77,-108.37 -223.87,-162.55 -440.61,-162.55 -276.63,0 -487.66,126.91 -633.1,380.72 v 3221.14 h -1441.6 v -4628.52 z m -6463.65,2271.48 c 0,-461.99 89.83,-872.66 269.49,-1231.99 179.67,-362.18 437.76,-640.23 774.27,-834.16 336.52,-193.92 731.5,-290.88 1184.94,-290.88 692.99,0 1239.12,215.31 1638.37,645.93 399.26,427.78 598.89,1010.98 598.89,1749.6 v 51.33 c 0,721.52 -201.06,1294.73 -603.17,1719.65 -399.25,422.07 -941.1,633.11 -1625.54,633.11 -658.77,0 -1187.78,-196.78 -1587.04,-590.33 -399.25,-396.4 -614.56,-932.55 -645.93,-1608.43 z m 1441.6,89.83 c 0,427.77 67.02,741.47 201.06,941.1 134.04,199.63 332.24,299.44 594.6,299.44 513.33,0 775.7,-394.97 787.11,-1184.93 v -145.44 c 0,-829.88 -265.22,-1244.82 -795.66,-1244.82 -481.96,0 -742.9,357.9 -782.82,1073.71 z m -3854.25,1240.54 c 202.48,0 359.33,-54.18 470.55,-162.54 111.23,-111.23 165.41,-265.23 162.54,-462 h 1351.77 c 0,507.63 -182.51,924 -547.54,1249.1 -362.19,325.11 -829.89,487.66 -1403.1,487.66 -673.03,0 -1203.48,-211.04 -1591.32,-633.11 -387.84,-422.06 -581.77,-1006.69 -581.77,-1753.87 v -59.89 c 0,-467.7 85.56,-879.79 256.66,-1236.27 173.96,-359.33 423.49,-634.52 748.6,-825.6 325.11,-193.92 710.11,-290.88 1154.99,-290.88 601.74,0 1079.42,166.82 1433.04,500.49 353.63,333.66 530.44,785.67 530.44,1356.04 h -1351.77 c 0,-239.55 -58.46,-423.49 -175.39,-551.83 -116.93,-128.34 -273.78,-192.51 -470.55,-192.51 -373.59,0 -591.75,238.13 -654.49,714.39 -19.96,151.14 -29.93,359.32 -29.93,624.55 0,464.84 55.61,787.1 166.83,966.77 111.22,179.66 288.04,269.5 530.44,269.5 z m -3713.07,-372.16 c 228.14,0 417.79,68.44 568.94,205.33 151.15,134.04 226.72,306.58 226.72,517.6 0,211.05 -75.57,385 -226.72,521.89 -151.15,134.04 -340.8,201.07 -568.94,201.07 -231,0 -422.08,-68.45 -573.22,-205.34 -148.29,-136.89 -222.44,-309.42 -222.44,-517.61 0,-208.18 74.15,-380.71 222.44,-517.6 151.14,-136.89 342.22,-205.33 573.22,-205.33 z m -3422.2,1484.38 c -710.11,0 -1284.74,-211.04 -1723.92,-633.11 -439.18,-424.93 -658.77,-976.75 -658.77,-1655.48 v -119.79 c 0,-473.4 86.98,-891.2 260.94,-1253.38 176.81,-362.18 433.47,-641.66 769.99,-838.44 336.52,-199.62 735.77,-299.43 1197.77,-299.43 650.21,0 1163.54,202.47 1539.98,607.43 376.44,402.11 564.67,963.92 564.67,1685.43 v 560.38 h -2866.09 c 51.33,259.52 163.98,463.43 337.94,611.72 173.96,148.3 399.25,222.45 675.88,222.45 456.29,0 812.77,-159.71 1069.44,-479.11 l 658.77,778.54 c -179.67,248.11 -434.9,446.31 -765.71,594.61 -327.96,145.45 -681.59,218.18 -1060.89,218.18 z m -162.55,-3687.41 c -422.06,0 -673.02,279.47 -752.87,838.43 h 1454.42 v -111.21 c 5.72,-231 -52.74,-409.24 -175.39,-534.72 -122.63,-128.34 -298.02,-192.5 -526.16,-192.5 z m -2964.46,3601.85 h -1445.88 v -6570.6 h 1445.88 z m -2155.99,-2280.03 c 0,718.66 -162.55,1293.3 -487.66,1723.92 -322.25,427.78 -758.59,641.67 -1308.99,641.67 -424.92,0 -774.26,-155.43 -1048.04,-466.27 v 2160.25 h -1441.6 v -6408.05 h 1347.48 l 42.79,427.77 c 276.62,-342.22 640.23,-513.32 1090.82,-513.32 570.37,0 1013.83,211.03 1330.38,633.1 316.55,419.22 474.82,996.72 474.82,1732.49 z m -1441.59,-89.84 c 0,-821.32 -239.56,-1231.98 -718.67,-1231.98 -342.22,0 -570.36,122.63 -684.43,367.88 v 1822.32 c 125.47,256.67 356.47,384.99 692.99,384.99 459.14,0 695.84,-396.4 710.11,-1189.21 z m -4898.02,2369.87 c -51.33,-94.11 -96.96,-232.43 -136.87,-414.94 -265.22,333.66 -635.96,500.5 -1112.22,500.5 -436.32,0 -807.06,-131.19 -1112.21,-393.56 -305.14,-265.22 -457.71,-597.46 -457.71,-996.71 0,-501.92 185.37,-881.22 556.11,-1137.88 370.73,-256.66 909.72,-384.99 1616.98,-384.99 h 444.88 V 155560 c 0,-424.91 -183.94,-637.37 -551.82,-637.37 -342.23,0 -513.33,168.25 -513.33,504.77 h -1441.6 c 0,-447.74 189.65,-811.35 568.94,-1090.83 382.14,-279.48 868.38,-419.21 1458.71,-419.21 590.32,0 1056.59,144.01 1398.82,432.05 342.22,288.03 517.6,683 526.16,1184.93 v 2049.03 c 5.71,424.93 71.3,750.03 196.77,975.33 v 72.72 z m -902.59,-941.1 c 179.66,0 327.95,-38.5 444.88,-115.5 119.78,-77 205.33,-163.98 256.66,-260.95 v -740.04 h -419.22 c -501.91,0 -752.87,225.3 -752.87,675.88 0,131.19 44.2,238.13 132.6,320.83 88.41,79.85 201.06,119.76 337.95,119.76 z m -7888.16,-3687.41 47.05,543.27 c 327.96,-419.22 768.57,-628.82 1321.82,-628.82 584.63,0 979.61,232.42 1184.94,697.27 313.7,-464.85 767.14,-697.27 1360.32,-697.27 938.26,0 1420.21,567.51 1445.87,1702.54 v 3011.52 h -1445.87 v -2921.7 c 0,-236.69 -39.92,-409.23 -119.77,-517.6 -79.86,-108.37 -225.3,-162.55 -436.32,-162.55 -285.19,0 -497.65,126.91 -637.39,380.72 l 4.29,59.89 v 3161.25 h -1445.88 v -2913.14 c 0,-242.4 -38.5,-417.79 -115.5,-526.16 -76.99,-108.37 -223.86,-162.55 -440.6,-162.55 -276.63,0 -487.66,126.91 -633.1,380.72 v 3221.14 h -1441.597 v -4628.52 z m -2690.677,-1150.71 v 1150.71 h 761.43 v 1000.99 h -761.43 v 2117.48 c 0,173.96 31.37,295.16 94.11,363.61 62.75,68.43 186.81,102.65 372.17,102.65 142.59,0 262.37,-8.56 359.32,-25.66 v 1030.93 c -259.51,82.7 -530.43,124.05 -812.77,124.05 -496.22,0 -862.68,-116.93 -1099.37,-350.77 -236.7,-233.85 -355.05,-588.9 -355.05,-1065.16 v -2297.14 h -590.33 v -1000.99 h 590.33 v -1150.72 z m -3721.64,5779.22 c -51.34,-94.11 -96.96,-232.43 -136.88,-414.94 -265.22,333.66 -635.95,500.5 -1112.21,500.5 -436.33,0 -807.06,-131.19 -1112.21,-393.56 -305.14,-265.22 -457.71,-597.46 -457.71,-996.71 0,-501.92 185.37,-881.22 556.1,-1137.88 370.73,-256.66 909.73,-384.99 1616.99,-384.99 h 444.88 V 155560 c 0,-424.91 -183.94,-637.37 -551.83,-637.37 -342.22,0 -513.33,168.25 -513.33,504.77 h -1441.59 c 0,-447.74 189.65,-811.35 568.93,-1090.83 382.15,-279.48 868.39,-419.21 1458.71,-419.21 590.33,0 1056.6,144.01 1398.82,432.05 342.22,288.03 517.61,683 526.16,1184.93 v 2049.03 c 5.72,424.93 71.31,750.03 196.78,975.33 v 72.72 z m -902.6,-941.1 c 179.67,0 327.96,-38.5 444.89,-115.5 119.77,-77 205.33,-163.98 256.66,-260.95 v -740.04 h -419.22 c -501.92,0 -752.88,225.3 -752.88,675.88 0,131.19 44.21,238.13 132.61,320.83 88.41,79.85 201.06,119.76 337.94,119.76 z m -6805.88,-1415.93 c 0,-461.99 89.84,-872.66 269.5,-1231.99 179.67,-362.18 437.76,-640.23 774.27,-834.16 336.52,-193.92 731.49,-290.88 1184.94,-290.88 692.99,0 1239.11,215.31 1638.36,645.93 399.26,427.78 598.89,1010.98 598.89,1749.6 v 51.33 c 0,721.52 -201.05,1294.73 -603.16,1719.65 -399.25,422.07 -941.1,633.11 -1625.54,633.11 -658.78,0 -1187.79,-196.78 -1587.05,-590.33 -399.25,-396.4 -614.56,-932.55 -645.93,-1608.43 z m 1441.6,89.83 c 0,427.77 67.02,741.47 201.07,941.1 134.04,199.63 332.23,299.44 594.6,299.44 513.33,0 775.7,-394.97 787.1,-1184.93 v -145.44 c 0,-829.88 -265.22,-1244.82 -795.66,-1244.82 -481.95,0 -742.9,357.9 -782.82,1073.71 z m -1895.04,-8.55 c 0,758.58 -156.85,1341.77 -470.55,1749.59 -313.7,407.81 -755.73,611.72 -1326.1,611.72 -470.55,0 -849.84,-186.8 -1137.87,-560.39 l -59.9,474.83 h -1291.87 v -6570.6 h 1441.59 v 2314.25 c 268.07,-305.14 614.57,-457.71 1039.49,-457.71 576.07,0 1020.96,206.75 1334.65,620.27 313.71,413.51 470.56,995.28 470.56,1745.32 z m -1445.87,-89.84 c 0,-444.88 -59.89,-761.43 -179.66,-949.65 -116.93,-191.08 -298.02,-286.61 -543.27,-286.61 -325.11,0 -550.41,124.06 -675.89,372.16 v 1839.43 c 122.64,245.25 350.78,367.88 684.44,367.88 339.37,0 554.68,-165.4 645.94,-496.21 45.63,-162.56 68.45,-444.89 68.45,-847 z m -9034.581,-2262.92 47.049,543.27 c 327.96,-419.22 768.567,-628.82 1321.821,-628.82 584.625,0 979.601,232.42 1184.931,697.27 313.702,-464.85 767.142,-697.27 1360.32,-697.27 938.25,0 1420.21,567.51 1445.87,1702.54 v 3011.52 h -1445.87 v -2921.7 c 0,-236.69 -39.92,-409.23 -119.77,-517.6 -79.86,-108.37 -225.298,-162.55 -436.325,-162.55 -285.182,0 -497.644,126.91 -637.382,380.72 l 4.289,59.89 v 3161.25 H 76424.95 v -2913.14 c 0,-242.4 -38.5,-417.79 -115.499,-526.16 -77,-108.37 -223.869,-162.55 -440.608,-162.55 -276.626,0 -487.662,126.91 -633.104,380.72 v 3221.14 h -1441.598 v -4628.52 z m -3405.076,4628.51 c -51.339,-94.11 -96.965,-232.43 -136.88,-414.94 -265.22,333.66 -635.956,500.5 -1112.211,500.5 -436.328,0 -807.066,-131.19 -1112.211,-393.56 -305.144,-265.22 -457.717,-597.46 -457.717,-996.71 0,-501.92 185.368,-881.22 556.104,-1137.88 370.738,-256.66 909.732,-384.99 1616.984,-384.99 h 444.885 V 155560 c 0,-424.91 -183.942,-637.37 -551.828,-637.37 -342.219,0 -513.327,168.25 -513.327,504.77 h -1441.597 c 0,-447.74 189.647,-811.35 568.939,-1090.83 382.143,-279.48 868.379,-419.21 1458.707,-419.21 590.329,0 1056.601,144.01 1398.82,432.05 342.219,288.03 517.606,683 526.161,1184.93 v 2049.03 c 5.72,424.93 71.311,750.03 196.774,975.33 v 72.72 z m -902.603,-941.1 c 179.665,0 327.96,-38.5 444.885,-115.5 119.774,-77 205.328,-163.98 256.664,-260.95 v -740.04 h -419.219 c -501.92,0 -752.881,225.3 -752.881,675.88 0,131.19 44.205,238.13 132.613,320.83 88.408,79.85 201.055,119.76 337.94,119.76 z m -4234.958,1026.66 c -710.105,0 -1284.749,-211.04 -1723.929,-633.11 -439.181,-424.93 -658.772,-976.75 -658.772,-1655.48 v -119.79 c 0,-473.4 86.98,-891.2 260.941,-1253.38 176.814,-362.18 433.478,-641.66 769.993,-838.44 336.516,-199.62 735.772,-299.43 1197.769,-299.43 650.215,0 1163.542,202.47 1539.983,607.43 376.44,402.11 564.66,963.92 564.66,1685.43 v 560.38 h -2866.082 c 51.338,259.52 163.985,463.43 337.941,611.72 173.962,148.3 399.256,222.45 675.883,222.45 456.292,0 812.77,-159.71 1069.433,-479.11 l 658.772,778.54 c -179.665,248.11 -434.904,446.31 -765.715,594.61 -327.959,145.45 -681.585,218.18 -1060.877,218.18 z m -162.548,-3687.41 c -422.07,0 -673.031,279.47 -752.882,838.43 h 1454.431 v -111.21 c 5.719,-231 -52.746,-409.24 -175.395,-534.72 -122.634,-128.34 -298.02,-192.5 -526.161,-192.5 z m -3405.086,-2177.37 v 1150.71 h 761.436 v 1000.99 h -761.436 v 2117.48 c 0,173.96 31.373,295.16 94.119,363.61 62.747,68.43 186.801,102.65 372.164,102.65 142.591,0 262.367,-8.56 359.33,-25.66 v 1030.93 c -259.515,82.7 -530.439,124.05 -812.77,124.05 -496.217,0 -862.676,-116.93 -1099.379,-350.77 -236.7,-233.85 -355.05,-588.9 -355.05,-1065.16 v -2297.14 h -590.328 v -1000.99 h 590.328 v -1150.72 z m -3743.019,4478.79 c 0,-122.64 -64.169,-221.02 -192.507,-295.17 -128.338,-74.15 -372.169,-151.15 -731.494,-230.99 -359.329,-79.86 -655.918,-183.95 -889.768,-312.28 -233.85,-131.18 -412.089,-289.46 -534.718,-474.83 -122.634,-185.36 -183.95,-397.83 -183.95,-637.38 0,-424.93 175.386,-774.27 526.161,-1048.04 350.774,-276.63 809.919,-414.94 1377.433,-414.94 610.29,0 1100.803,138.31 1471.54,414.94 370.737,276.62 556.106,640.23 556.106,1090.82 H 59245.53 c 0,-370.74 -195.349,-556.11 -586.049,-556.11 -151.147,0 -278.053,42.77 -380.72,128.32 -102.661,82.71 -153.991,186.8 -153.991,312.28 0,128.34 62.739,232.43 188.217,312.28 125.478,79.84 325.105,145.43 598.881,196.77 276.627,51.33 519.033,112.65 727.216,183.95 695.845,239.55 1043.767,668.75 1043.767,1287.6 0,422.07 -188.22,765.71 -564.66,1030.93 -373.589,265.22 -858.399,397.83 -1454.43,397.83 -396.404,0 -750.03,-71.3 -1060.879,-213.89 -310.849,-142.59 -553.254,-336.51 -727.216,-581.77 -173.961,-245.25 -260.942,-503.34 -260.942,-774.27 h 1347.489 c 5.719,213.89 77.014,370.74 213.885,470.55 136.887,96.96 312.275,145.44 526.162,145.44 196.776,0 343.644,-39.93 440.608,-119.79 99.816,-79.85 149.724,-183.94 149.724,-312.27 z m -4179.348,-98.39 c 228.145,0 417.791,68.44 568.939,205.33 151.145,134.04 226.717,306.58 226.717,517.6 0,211.05 -75.572,385 -226.717,521.89 -151.148,134.04 -340.794,201.07 -568.939,201.07 -230.998,0 -422.071,-68.45 -573.218,-205.34 -148.295,-136.89 -222.443,-309.42 -222.443,-517.61 0,-208.18 74.148,-380.71 222.443,-517.6 151.147,-136.89 342.22,-205.33 573.218,-205.33 z m -2724.92,-500.49 466.274,-2729.2 h 1381.709 l -1090.822,4628.51 h -1219.157 l -765.714,-2746.3 -769.993,2746.3 h -1219.154 l -1090.822,-4628.51 h 1381.709 l 457.717,2793.36 735.77,-2793.36 h 1005.268 z m -6360.993,0 466.272,-2729.2 h 1381.709 l -1090.822,4628.51 h -1219.154 l -765.715,-2746.3 -769.993,2746.3 h -1219.154 l -1090.825,-4628.51 h 1381.709 l 457.718,2793.36 735.772,-2793.36 h 1005.268 z m -6360.994,0 466.273,-2729.2 h 1381.709 l -1090.822,4628.51 h -1219.156 l -765.715,-2746.3 -769.993,2746.3 H 36449.5 l -1090.833,-4628.51 h 1381.704 l 457.731,2793.36 735.761,-2793.36 h 1005.268 z m 80554.043,-12576.55 1146.44,-2703.53 h 1621.26 l -2006.26,3991.13 v 2237.26 h -1522.87 v -2237.26 l -2001.98,-3991.13 h 1612.71 z m -3109.91,3524.86 h -1492.93 l -2207.31,-3875.63 v 3875.63 h -1501.48 v -6228.39 h 1501.48 l 2203.03,3875.63 v -3875.63 h 1497.21 z m -9304.07,1676.87 -727.22,-342.23 145.44,-290.88 c 199.62,-370.74 303.71,-724.36 312.27,-1060.88 v -1069.43 h 1154.99 l -4.29,928.27 c -2.86,327.96 -86.99,661.62 -252.38,1000.99 -165.41,339.37 -375.03,617.42 -628.84,834.16 z m -4123.75,-6305.39 47.05,543.27 c 319.4,-419.22 760.02,-628.82 1321.83,-628.82 481.96,0 841.29,144.01 1077.99,432.05 239.55,288.04 363.61,721.51 372.16,1300.44 v 2981.58 h -1445.87 v -2921.7 c 0,-233.85 -47.06,-404.96 -141.17,-513.32 -94.11,-111.23 -265.22,-166.85 -513.33,-166.85 -282.34,0 -491.94,111.22 -628.83,333.67 v 3268.19 h -1441.6 v -4628.51 z m -3687.397,2729.2 466.277,-2729.2 h 1381.7 l -1090.82,4628.52 h -1219.147 l -765.73,-2746.31 -769.99,2746.31 h -1219.15 l -1090.82,-4628.52 h 1381.7 l 457.72,2793.36 735.77,-2793.36 h 1005.27 z m -9098.74,-457.71 c 0,-462 89.82,-872.67 269.49,-1231.99 179.66,-362.18 437.75,-640.24 774.27,-834.17 336.51,-193.92 731.5,-290.88 1184.93,-290.88 692.99,0 1239.12,215.31 1638.38,645.94 399.25,427.78 598.88,1010.97 598.88,1749.59 v 51.34 c 0,721.51 -201.05,1294.72 -603.16,1719.65 -399.25,422.07 -941.11,633.11 -1625.54,633.11 -658.77,0 -1187.79,-196.78 -1587.04,-590.33 -399.25,-396.4 -614.57,-932.55 -645.93,-1608.44 z m 1441.59,89.82 c 0,427.78 67.02,741.48 201.06,941.1 134.04,199.63 332.25,299.44 594.61,299.44 513.33,0 775.69,-394.97 787.1,-1184.93 v -145.43 c 0,-829.88 -265.22,-1244.82 -795.66,-1244.82 -481.96,0 -742.89,357.9 -782.82,1073.71 z m -2459.7,-3512.02 v 1150.71 h 761.44 v 1001 h -761.44 v 2117.47 c 0,173.96 31.38,295.16 94.12,363.61 62.75,68.44 186.8,102.66 372.17,102.66 142.59,0 262.37,-8.56 359.33,-25.67 v 1030.93 c -259.52,82.71 -530.44,124.06 -812.77,124.06 -496.23,0 -862.68,-116.93 -1099.38,-350.78 -236.71,-233.84 -355.06,-588.9 -355.06,-1065.16 v -2297.13 h -590.33 v -1000.99 h 590.33 v -1150.72 z m -3743.01,4478.79 c 0,-122.63 -64.18,-221.02 -192.51,-295.16 -128.34,-74.16 -372.17,-151.16 -731.49,-231 -359.33,-79.86 -655.92,-183.95 -889.77,-312.27 -233.85,-131.19 -412.09,-289.46 -534.72,-474.83 -122.63,-185.37 -183.95,-397.83 -183.95,-637.38 0,-424.93 175.39,-774.27 526.16,-1048.05 350.78,-276.63 809.92,-414.94 1377.43,-414.94 610.29,0 1100.8,138.31 1471.54,414.94 370.74,276.63 556.11,640.24 556.11,1090.83 h -1445.88 c 0,-370.74 -195.35,-556.11 -586.05,-556.11 -151.14,0 -278.05,42.77 -380.71,128.32 -102.66,82.7 -153.99,186.79 -153.99,312.28 0,128.33 62.74,232.42 188.21,312.27 125.49,79.84 325.11,145.44 598.89,196.78 276.63,51.33 519.03,112.64 727.21,183.95 695.84,239.55 1043.77,668.75 1043.77,1287.6 0,422.06 -188.22,765.71 -564.66,1030.93 -373.59,265.22 -858.41,397.83 -1454.43,397.83 -396.4,0 -750.03,-71.3 -1060.88,-213.89 -310.85,-142.6 -553.25,-336.52 -727.22,-581.78 -173.96,-245.25 -260.94,-503.34 -260.94,-774.27 h 1347.49 c 5.72,213.9 77.01,370.75 213.89,470.56 136.88,96.96 312.27,145.43 526.15,145.43 196.78,0 343.65,-39.92 440.61,-119.78 99.82,-79.85 149.73,-183.95 149.73,-312.28 z m -2943.09,-2023.36 -474.83,-34.23 c -453.44,0 -744.32,142.59 -872.66,427.77 v 2930.25 h -1441.59 v -4628.51 h 1351.76 l 47.05,594.61 c 242.41,-453.44 580.35,-680.16 1013.83,-680.16 154,0 288.03,17.11 402.1,51.33 z m -5330.058,3409.35 c -710.103,0 -1284.746,-211.04 -1723.927,-633.11 -439.181,-424.92 -658.771,-976.74 -658.771,-1655.48 v -119.79 c 0,-473.4 86.98,-891.19 260.941,-1253.38 176.813,-362.18 433.478,-641.65 769.993,-838.43 336.516,-199.63 735.77,-299.44 1197.765,-299.44 650.217,0 1163.547,202.48 1539.987,607.44 376.44,402.11 564.66,963.91 564.66,1685.43 v 560.38 H 76946.82 c 51.338,259.52 163.985,463.42 337.942,611.71 173.962,148.3 399.255,222.45 675.882,222.45 456.292,0 812.769,-159.71 1069.429,-479.11 l 658.78,778.55 c -179.67,248.1 -434.91,446.31 -765.72,594.6 -327.958,145.46 -681.585,218.18 -1060.878,218.18 z m -162.548,-3687.41 c -422.07,0 -673.031,279.48 -752.883,838.44 h 1454.432 v -111.24 c 5.719,-230.99 -52.746,-409.23 -175.394,-534.71 -122.634,-128.34 -298.021,-192.51 -526.162,-192.51 z m -2712.091,1321.82 c 0,718.66 -162.554,1293.3 -487.661,1723.93 -322.256,427.77 -758.586,641.66 -1308.989,641.66 -424.92,0 -774.269,-155.43 -1048.045,-466.27 v 2160.25 h -1441.597 v -6408.05 h 1347.488 l 42.782,427.77 c 276.627,-342.22 640.234,-513.32 1090.823,-513.32 570.364,0 1013.823,211.03 1330.375,633.1 316.552,419.22 474.828,996.72 474.828,1732.49 z m -1441.597,-89.83 c 0,-821.33 -239.554,-1231.99 -718.66,-1231.99 -342.219,0 -570.365,122.63 -684.438,367.88 v 1822.32 c 125.479,256.67 356.477,384.99 692.995,384.99 459.143,0 695.844,-396.4 710.103,-1189.2 z m -7956.588,12.84 c 0,-462 89.832,-872.67 269.496,-1231.99 179.665,-362.18 437.755,-640.24 774.27,-834.17 336.516,-193.92 731.494,-290.88 1184.934,-290.88 692.994,0 1239.117,215.31 1638.372,645.94 399.256,427.78 598.884,1010.97 598.884,1749.59 v 51.34 c 0,721.51 -201.054,1294.72 -603.162,1719.65 -399.254,422.07 -941.1,633.11 -1625.538,633.11 -658.771,0 -1187.785,-196.78 -1587.041,-590.33 -399.256,-396.4 -614.568,-932.55 -645.937,-1608.44 z m 1441.597,89.82 c 0,427.78 67.02,741.48 201.062,941.1 134.042,199.63 332.245,299.44 594.607,299.44 513.326,0 775.694,-394.97 787.102,-1184.93 v -145.43 c 0,-829.88 -265.219,-1244.82 -795.659,-1244.82 -481.958,0 -742.9,357.9 -782.825,1073.71 z m -6360.996,-89.82 c 0,-462 89.833,-872.67 269.498,-1231.99 179.664,-362.18 437.754,-640.24 774.27,-834.17 336.515,-193.92 731.493,-290.88 1184.932,-290.88 692.994,0 1239.119,215.31 1638.376,645.94 399.254,427.78 598.881,1010.97 598.881,1749.59 v 51.34 c 0,721.51 -201.053,1294.72 -603.16,1719.65 -399.256,422.07 -941.103,633.11 -1625.54,633.11 -658.772,0 -1187.785,-196.78 -1587.042,-590.33 -399.254,-396.4 -614.566,-932.55 -645.936,-1608.44 z m 1441.597,89.82 c 0,427.78 67.021,741.48 201.063,941.1 134.043,199.63 332.244,299.44 594.606,299.44 513.328,0 775.696,-394.97 787.103,-1184.93 v -145.43 c 0,-829.88 -265.22,-1244.82 -795.66,-1244.82 -481.958,0 -742.899,357.9 -782.825,1073.71 z m -1903.592,158.28 c -19.957,433.48 -136.882,817.05 -350.775,1150.72 -213.886,330.81 -514.754,587.47 -902.603,769.99 -384.995,182.51 -825.601,273.77 -1321.818,273.77 -818.474,0 -1462.987,-266.65 -1933.539,-799.94 -470.551,-533.28 -705.826,-1286.17 -705.826,-2258.64 v -308 c 0,-610.29 105.518,-1143.58 316.553,-1599.87 213.887,-459.14 520.458,-812.77 919.713,-1060.88 399.255,-250.96 861.251,-376.44 1385.988,-376.44 755.733,0 1363.17,199.63 1822.314,598.89 459.144,396.4 720.087,943.95 782.827,1642.64 h -1497.208 c -11.439,-379.28 -106.975,-651.64 -286.609,-817.05 -179.665,-165.4 -453.44,-248.1 -821.324,-248.1 -373.59,0 -647.365,139.73 -821.327,419.22 -173.961,279.47 -265.219,725.78 -273.774,1338.92 v 440.61 c 0,664.47 82.702,1139.3 248.107,1424.49 168.258,285.18 456.293,427.77 864.105,427.77 345.069,0 608.863,-81.28 791.381,-243.83 182.516,-162.55 279.477,-420.64 290.884,-774.27 z m 90012.123,-8756.52 c -710.11,0 -1284.74,-211.04 -1723.92,-633.11 -439.18,-424.93 -658.77,-976.75 -658.77,-1655.48 v -119.77 c 0,-473.4 86.98,-891.2 260.94,-1253.38 176.81,-362.18 433.47,-641.65 769.99,-838.43 336.52,-199.63 735.77,-299.45 1197.76,-299.45 650.22,0 1163.55,202.48 1539.99,607.44 376.44,402.1 564.66,963.92 564.66,1685.43 v 560.39 h -2866.08 c 51.33,259.51 163.98,463.41 337.94,611.71 173.96,148.29 399.25,222.44 675.88,222.44 456.29,0 812.77,-159.7 1069.44,-479.1 l 658.77,778.54 c -179.67,248.11 -434.9,446.32 -765.71,594.61 -327.96,145.43 -681.59,218.16 -1060.89,218.16 z m -162.55,-3687.41 c -422.07,0 -673.03,279.47 -752.87,838.43 h 1454.42 v -111.23 c 5.72,-231 -52.74,-409.24 -175.39,-534.72 -122.63,-128.34 -298.03,-192.51 -526.17,-192.51 z m -4923.68,1877.92 -406.38,406.39 v 1317.54 h -1441.6 v -6574.88 h 1441.6 v 3490.63 l 145.43,-192.5 1086.54,-1351.77 h 1728.22 l -1621.27,1903.59 1728.21,2724.92 h -1651.21 z m -3901.3,1723.93 c -51.33,-94.11 -96.96,-232.43 -136.87,-414.94 -265.22,333.66 -635.96,500.5 -1112.22,500.5 -436.32,0 -807.06,-131.18 -1112.21,-393.55 -305.15,-265.22 -457.72,-597.46 -457.72,-996.72 0,-501.92 185.37,-881.22 556.11,-1137.88 370.73,-256.66 909.73,-384.99 1616.99,-384.99 h 444.88 v -243.84 c 0,-424.92 -183.94,-637.37 -551.82,-637.37 -342.23,0 -513.34,168.25 -513.34,504.77 h -1441.6 c 0,-447.74 189.65,-811.35 568.94,-1090.82 382.14,-279.49 868.38,-419.22 1458.72,-419.22 590.32,0 1056.59,144.01 1398.82,432.04 342.22,288.04 517.6,683.01 526.15,1184.94 v 2049.04 c 5.72,424.92 71.31,750.02 196.78,975.32 v 72.72 z m -902.59,-941.1 c 179.66,0 327.95,-38.5 444.87,-115.5 119.78,-77 205.34,-163.98 256.67,-260.94 v -740.05 h -419.22 c -501.92,0 -752.88,225.29 -752.88,675.88 0,131.18 44.2,238.13 132.61,320.83 88.41,79.85 201.06,119.76 337.95,119.76 z m -4885.18,-213.89 h 2613.69 v 1154.99 h -4115.18 v -6228.38 h 1501.49 z m -8850.64,-1202.04 c 0,-461.99 89.84,-872.66 269.5,-1231.99 179.67,-362.18 437.76,-640.23 774.27,-834.16 336.52,-193.93 731.5,-290.88 1184.93,-290.88 692.99,0 1239.12,215.31 1638.38,645.93 399.25,427.78 598.88,1010.97 598.88,1749.6 v 51.33 c 0,721.52 -201.06,1294.73 -603.16,1719.65 -399.26,422.07 -941.11,633.11 -1625.54,633.11 -658.77,0 -1187.79,-196.77 -1587.04,-590.32 -399.26,-396.4 -614.57,-932.55 -645.94,-1608.44 z m 1441.6,89.82 c 0,427.78 67.02,741.48 201.06,941.11 134.04,199.63 332.25,299.44 594.61,299.44 513.32,0 775.69,-394.97 787.1,-1184.93 v -145.43 c 0,-829.89 -265.22,-1244.83 -795.66,-1244.83 -481.96,0 -742.89,357.9 -782.82,1073.71 z m -6467.94,-81.27 c 0,-467.69 77,-881.21 231,-1240.54 154,-359.33 375.02,-635.95 663.05,-829.88 288.03,-196.78 623.12,-295.16 1005.27,-295.16 481.96,0 858.39,162.55 1129.32,487.66 l 51.35,-402.11 h 1308.98 v 4453.12 c 0,407.81 -95.53,761.45 -286.61,1060.88 -188.22,302.29 -461.99,533.29 -821.33,692.99 -359.32,162.56 -775.69,243.84 -1249.09,243.84 -339.37,0 -668.76,-64.18 -988.16,-192.51 -316.55,-128.34 -558.96,-295.17 -727.21,-500.49 l 603.15,-846.99 c 268.08,316.54 621.7,474.82 1060.88,474.82 638.81,0 958.21,-327.96 958.21,-983.88 v -145.44 c -276.62,305.15 -625.96,457.73 -1048.04,457.73 -564.66,0 -1020.95,-215.32 -1368.87,-645.95 -347.93,-433.47 -521.89,-1012.39 -521.89,-1736.76 z m 1445.88,89.83 c 0,379.3 71.29,680.17 213.88,902.61 142.59,219.59 342.23,329.38 598.89,329.38 310.85,0 537.57,-104.09 680.16,-312.28 v -1946.36 c -139.74,-211.04 -363.61,-316.55 -671.6,-316.55 -256.67,0 -457.72,115.5 -603.17,346.49 -145.43,228.15 -218.15,560.38 -218.15,996.71 z m -3807.19,2344.21 c -710.1,0 -1284.74,-211.04 -1723.93,-633.11 -439.18,-424.93 -658.77,-976.75 -658.77,-1655.48 v -119.77 c 0,-473.4 86.98,-891.2 260.94,-1253.38 176.81,-362.18 433.48,-641.65 769.99,-838.43 336.52,-199.63 735.78,-299.45 1197.77,-299.45 650.22,0 1163.55,202.48 1539.99,607.44 376.44,402.1 564.66,963.92 564.66,1685.43 v 560.39 h -2866.08 c 51.34,259.51 163.97,463.41 337.93,611.71 173.96,148.29 399.26,222.44 675.89,222.44 456.28,0 812.77,-159.7 1069.43,-479.1 l 658.77,778.54 c -179.66,248.11 -434.9,446.32 -765.71,594.61 -327.96,145.43 -681.59,218.16 -1060.88,218.16 z m -162.55,-3687.41 c -422.07,0 -673.03,279.47 -752.88,838.43 h 1454.43 v -111.23 c 5.72,-231 -52.75,-409.24 -175.4,-534.72 -122.63,-128.34 -298.02,-192.51 -526.15,-192.51 z m -4140.85,2301.41 c 0,-122.63 -64.17,-221.01 -192.5,-295.16 -128.34,-74.14 -372.18,-151.13 -731.5,-230.99 -359.32,-79.86 -655.91,-183.95 -889.77,-312.28 -233.84,-131.18 -412.08,-289.46 -534.71,-474.83 -122.63,-185.37 -183.95,-397.82 -183.95,-637.38 0,-424.92 175.39,-774.26 526.16,-1048.04 350.77,-276.63 809.91,-414.94 1377.43,-414.94 610.29,0 1100.81,138.31 1471.54,414.94 370.74,276.62 556.11,640.23 556.11,1090.82 h -1445.87 c 0,-370.74 -195.35,-556.11 -586.05,-556.11 -151.15,0 -278.06,42.78 -380.72,128.35 -102.67,82.7 -153.99,186.79 -153.99,312.27 0,128.33 62.73,232.43 188.21,312.27 125.48,79.87 325.11,145.46 598.88,196.78 276.64,51.34 519.04,112.65 727.22,183.95 695.84,239.55 1043.77,668.75 1043.77,1287.59 0,422.08 -188.22,765.72 -564.67,1030.95 -373.58,265.22 -858.39,397.82 -1454.42,397.82 -396.4,0 -750.03,-71.29 -1060.88,-213.88 -310.85,-142.59 -553.26,-336.52 -727.22,-581.77 -173.96,-245.26 -260.94,-503.35 -260.94,-774.28 h 1347.49 c 5.71,213.89 77.01,370.75 213.88,470.56 136.89,96.96 312.27,145.43 526.17,145.43 196.77,0 343.64,-39.93 440.6,-119.77 99.82,-79.86 149.73,-183.95 149.73,-312.27 z m -3751.58,-4478.78 v 1150.71 h 761.44 v 1000.99 h -761.44 v 2117.48 c 0,173.96 31.37,295.16 94.12,363.6 62.75,68.46 186.8,102.69 372.16,102.69 142.59,0 262.37,-8.56 359.33,-25.68 v 1030.94 c -259.52,82.7 -530.43,124.05 -812.77,124.05 -496.21,0 -862.67,-116.92 -1099.38,-350.77 -236.69,-233.85 -355.04,-588.91 -355.04,-1065.16 v -2297.15 h -590.33 v -1000.98 h 590.33 v -1150.71 z m -2386.97,2793.36 c 0,607.43 -112.65,1145.01 -337.94,1612.7 -225.3,467.7 -546.12,828.46 -962.49,1082.27 -413.52,250.96 -885.49,376.45 -1415.94,376.45 -530.43,0 -1000.99,-121.21 -1411.65,-363.61 -410.67,-245.25 -731.49,-594.61 -962.48,-1048.05 -228.15,-453.43 -347.93,-973.89 -359.34,-1561.38 v -350.77 c 0,-610.28 111.22,-1147.86 333.66,-1612.7 225.3,-467.7 546.13,-828.46 962.49,-1082.27 419.23,-253.81 895.48,-380.72 1428.77,-380.72 527.59,0 998.13,125.48 1411.65,376.44 413.52,250.96 734.34,608.87 962.49,1073.71 231,462 347.93,992.44 350.78,1591.32 z m -1527.15,-260.94 c 0,-618.85 -104.09,-1087.98 -312.28,-1407.38 -205.33,-322.25 -500.49,-483.38 -885.49,-483.38 -752.88,0 -1150.71,564.66 -1193.49,1693.99 l -4.29,457.71 c 0,610.29 101.23,1079.42 303.72,1407.38 202.48,327.95 503.35,491.94 902.6,491.94 379.29,0 671.6,-161.13 876.94,-483.39 205.33,-322.25 309.42,-785.68 312.27,-1390.27 z m -8850.637,3246.8 v -3627.52 h -671.6 v -1000.99 h 671.6 v -367.88 c 0,-527.59 155.43,-936.83 466.27,-1227.71 310.85,-290.89 747.18,-436.33 1308.987,-436.33 205.33,0 430.63,29.94 675.88,89.83 l 4.3,1060.87 c -88.41,-25.66 -206.77,-38.49 -355.06,-38.49 -436.33,0 -654.487,188.22 -654.487,564.66 v 355.05 h 902.597 v 1000.99 h -902.597 v 3627.53 z m -5419.9,-2357.03 c 0,-461.99 89.84,-872.66 269.5,-1231.99 179.67,-362.18 437.76,-640.23 774.27,-834.16 336.52,-193.93 731.49,-290.88 1184.94,-290.88 692.99,0 1239.12,215.31 1638.37,645.93 399.26,427.78 598.89,1010.97 598.89,1749.6 v 51.33 c 0,721.52 -201.06,1294.73 -603.17,1719.65 -399.25,422.07 -941.1,633.11 -1625.54,633.11 -658.77,0 -1187.78,-196.77 -1587.04,-590.32 -399.25,-396.4 -614.57,-932.55 -645.94,-1608.44 z m 1441.6,89.82 c 0,427.78 67.03,741.48 201.07,941.11 134.04,199.63 332.24,299.44 594.6,299.44 513.33,0 775.7,-394.97 787.11,-1184.93 v -145.43 c 0,-829.89 -265.22,-1244.83 -795.66,-1244.83 -481.96,0 -742.91,357.9 -782.83,1073.71 z m -5505.45,966.77 c 0,-122.63 -64.16,-221.01 -192.5,-295.16 -128.33,-74.14 -372.17,-151.13 -731.5,-230.99 -359.32,-79.86 -655.91,-183.95 -889.76,-312.28 -233.85,-131.18 -412.09,-289.46 -534.72,-474.83 -122.63,-185.37 -183.95,-397.82 -183.95,-637.38 0,-424.92 175.38,-774.26 526.16,-1048.04 350.78,-276.63 809.92,-414.94 1377.43,-414.94 610.29,0 1100.81,138.31 1471.55,414.94 370.73,276.62 556.09,640.23 556.09,1090.82 h -1445.86 c 0,-370.74 -195.36,-556.11 -586.06,-556.11 -151.14,0 -278.05,42.78 -380.71,128.35 -102.67,82.7 -153.99,186.79 -153.99,312.27 0,128.33 62.73,232.43 188.21,312.27 125.48,79.87 325.1,145.46 598.88,196.78 276.63,51.34 519.04,112.65 727.22,183.95 695.84,239.55 1043.77,668.75 1043.77,1287.59 0,422.08 -188.23,765.72 -564.66,1030.95 -373.59,265.22 -858.4,397.82 -1454.43,397.82 -396.4,0 -750.04,-71.29 -1060.88,-213.88 -310.85,-142.59 -553.26,-336.52 -727.22,-581.77 -173.96,-245.26 -260.93,-503.35 -260.93,-774.28 h 1347.48 c 5.71,213.89 77.01,370.75 213.88,470.56 136.89,96.96 312.27,145.43 526.17,145.43 196.78,0 343.64,-39.93 440.6,-119.77 99.81,-79.86 149.72,-183.95 149.72,-312.27 z m -4953.61,1386 c -710.11,0 -1284.75,-211.04 -1723.93,-633.11 -439.18,-424.93 -658.77,-976.75 -658.77,-1655.48 v -119.77 c 0,-473.4 86.98,-891.2 260.94,-1253.38 176.81,-362.18 433.48,-641.65 769.99,-838.43 336.52,-199.63 735.78,-299.45 1197.77,-299.45 650.22,0 1163.54,202.48 1539.98,607.44 376.45,402.1 564.67,963.92 564.67,1685.43 v 560.39 h -2866.09 c 51.34,259.51 163.99,463.41 337.95,611.71 173.96,148.29 399.25,222.44 675.88,222.44 456.29,0 812.77,-159.7 1069.43,-479.1 l 658.77,778.54 c -179.66,248.11 -434.9,446.32 -765.71,594.61 -327.96,145.43 -681.59,218.16 -1060.88,218.16 z m -162.55,-3687.41 c -422.07,0 -673.03,279.47 -752.88,838.43 h 1454.43 v -111.23 c 5.72,-231 -52.75,-409.24 -175.4,-534.72 -122.63,-128.34 -298.02,-192.51 -526.16,-192.51 z m -2515.31,278.05 -474.83,-34.22 c -453.44,0 -744.33,142.59 -872.66,427.77 v 2930.25 h -1441.595 v -4628.52 h 1351.765 l 47.05,594.61 c 242.4,-453.44 580.34,-680.16 1013.82,-680.16 154,0 288.03,17.11 402.11,51.34 z m -7900.981,966.77 c 0,-461.99 89.833,-872.66 269.498,-1231.99 179.665,-362.18 437.756,-640.23 774.271,-834.16 336.514,-193.93 731.491,-290.88 1184.931,-290.88 692.994,0 1239.118,215.31 1638.375,645.93 399.254,427.78 598.881,1010.97 598.881,1749.6 v 51.33 c 0,721.52 -201.053,1294.73 -603.159,1719.65 -399.257,422.07 -941.103,633.11 -1625.541,633.11 -658.771,0 -1187.785,-196.77 -1587.041,-590.32 -399.255,-396.4 -614.567,-932.55 -645.937,-1608.44 z m 1441.596,89.82 c 0,427.78 67.021,741.48 201.063,941.11 134.042,199.63 332.245,299.44 594.606,299.44 513.329,0 775.697,-394.97 787.103,-1184.93 v -145.43 c 0,-829.89 -265.219,-1244.83 -795.659,-1244.83 -481.958,0 -742.9,357.9 -782.825,1073.71 z m -4795.34,-1865.08 c 307.997,-387.85 701.549,-581.77 1180.655,-581.77 510.477,0 895.473,151.14 1154.989,453.44 259.517,302.28 392.127,748.6 397.83,1338.92 v 2921.7 h -1445.876 v -2887.48 c 0,-245.25 -49.908,-424.91 -149.724,-538.99 -99.817,-116.92 -269.5,-175.39 -509.052,-175.39 -296.589,0 -506.198,94.11 -628.826,282.33 v 3319.52 h -1441.597 v -6570.59 h 1441.597 z m -3614.687,2476.81 c 0,-219.59 -78.425,-390.7 -235.277,-513.33 -153.998,-122.63 -426.347,-249.54 -817.046,-380.72 -390.702,-131.18 -710.106,-258.08 -958.215,-380.72 -807.065,-396.4 -1210.598,-941.1 -1210.598,-1634.09 0,-345.08 99.814,-648.79 299.441,-911.16 202.479,-265.22 487.662,-470.56 855.548,-616 367.886,-148.29 781.399,-222.44 1240.542,-222.44 447.738,0 848.419,79.85 1202.044,239.56 356.478,159.69 633.106,387.84 829.882,684.43 196.776,293.74 295.163,630.25 295.163,1009.55 h -1497.208 c 0,-253.81 -78.425,-450.59 -235.275,-590.33 -153.998,-139.73 -363.606,-209.6 -628.827,-209.6 -268.072,0 -480.533,59.89 -637.383,179.66 -153.997,116.93 -230.997,266.66 -230.997,449.16 0,159.71 85.555,305.15 256.664,436.33 171.109,128.34 471.977,262.38 902.603,402.12 430.625,136.88 784.25,285.18 1060.877,444.88 673.031,387.84 1009.546,922.57 1009.546,1604.15 0,544.69 -205.331,972.47 -615.994,1283.32 -410.663,310.85 -973.898,466.27 -1689.706,466.27 -504.773,0 -962.49,-89.83 -1373.153,-269.5 -407.811,-182.51 -715.808,-430.63 -923.992,-744.32 -205.331,-316.55 -307.997,-680.16 -307.997,-1090.82 h 1505.766 c 0,333.66 85.554,580.34 256.663,740.05 173.961,156.84 454.865,235.27 842.713,235.27 248.109,0 443.459,-52.77 586.051,-158.28 145.436,-108.37 218.154,-259.52 218.154,-453.44 z m -7990.813,1741.04 c -710.104,0 -1284.747,-211.04 -1723.928,-633.11 -439.181,-424.93 -658.772,-976.75 -658.772,-1655.48 v -119.77 c 0,-473.4 86.981,-891.2 260.942,-1253.38 176.814,-362.18 433.478,-641.65 769.993,-838.43 336.515,-199.63 735.771,-299.45 1197.766,-299.45 650.216,0 1163.545,202.48 1539.986,607.44 376.439,402.1 564.66,963.92 564.66,1685.43 v 560.39 h -2866.083 c 51.338,259.51 163.986,463.41 337.943,611.71 173.961,148.29 399.254,222.44 675.881,222.44 456.293,0 812.77,-159.7 1069.434,-479.1 l 658.772,778.54 c -179.666,248.11 -434.904,446.32 -765.715,594.61 -327.961,145.43 -681.587,218.16 -1060.879,218.16 z m -162.549,-3687.41 c -422.069,0 -673.031,279.47 -752.882,838.43 h 1454.431 v -111.23 c 5.72,-231 -52.745,-409.24 -175.394,-534.72 -122.634,-128.34 -298.021,-192.51 -526.162,-192.51 z m -5612.395,-530.44 c 307.997,-387.85 701.548,-581.77 1180.655,-581.77 510.476,0 895.473,151.14 1154.988,453.44 259.516,302.28 392.125,748.6 397.83,1338.92 v 2921.7 h -1445.875 v -2887.48 c 0,-245.25 -49.908,-424.91 -149.725,-538.99 -99.816,-116.92 -269.5,-175.39 -509.051,-175.39 -296.59,0 -506.199,94.11 -628.827,282.33 v 3319.52 h -1441.596 v -6570.59 h 1441.596 z m -2737.752,-1646.93 v 1150.71 h 761.437 v 1000.99 h -761.437 v 2117.48 c 0,173.96 31.373,295.16 94.12,363.6 62.747,68.46 186.801,102.69 372.163,102.69 142.591,0 262.367,-8.56 359.329,-25.68 v 1030.94 c -259.516,82.7 -530.439,124.05 -812.768,124.05 -496.218,0 -862.677,-116.92 -1099.379,-350.77 -236.701,-233.85 -355.052,-588.91 -355.052,-1065.16 v -2297.15 h -590.327 v -1000.98 h 590.327 v -1150.71 z m -10044.124,1150.71 47.049,543.27 c 327.96,-419.22 768.567,-628.82 1321.821,-628.82 584.624,0 979.602,232.42 1184.934,697.27 313.7,-464.85 767.141,-697.27 1360.32,-697.27 938.251,0 1420.208,567.51 1445.875,1702.54 v 3011.52 h -1445.875 v -2921.7 c 0,-236.69 -39.929,-409.23 -119.789,-517.59 -79.845,-108.37 -225.287,-162.55 -436.329,-162.55 -285.182,0 -497.642,126.9 -637.383,380.71 l 4.29,59.89 v 3161.26 h -1445.876 v -2913.14 c 0,-242.4 -38.5,-417.8 -115.499,-526.17 -77,-108.36 -223.869,-162.54 -440.607,-162.54 -276.627,0 -487.662,126.91 -633.105,380.72 v 3221.13 h -1441.599 v -4628.51 z m -6463.66,2271.48 c 0,-461.99 89.83,-872.66 269.491,-1231.99 179.676,-362.18 437.767,-640.23 774.272,-834.16 336.52,-193.93 731.496,-290.88 1184.93,-290.88 692.998,0 1239.122,215.31 1638.373,645.93 399.261,427.78 598.891,1010.97 598.891,1749.6 v 51.33 c 0,721.52 -201.052,1294.73 -603.158,1719.65 -399.251,422.07 -941.101,633.11 -1625.549,633.11 -658.772,0 -1187.784,-196.77 -1587.035,-590.32 -399.251,-396.4 -614.568,-932.55 -645.948,-1608.44 z m 1441.599,89.82 c 0,427.78 67.051,741.48 201.154,941.11 134.102,199.63 332.305,299.44 594.61,299.44 513.336,0 775.708,-394.97 787.116,-1184.93 v -145.43 c 0,-829.89 -265.224,-1244.83 -795.673,-1244.83 -481.955,0 -742.898,357.9 -782.827,1073.71 z m -1625.549,-1056.59 -474.822,-34.22 c -453.434,0 -744.319,142.59 -872.657,427.77 v 2930.25 h -1441.6 v -4628.52 h 1351.769 l 46.958,594.61 c 242.408,-453.44 580.35,-680.16 1013.827,-680.16 153.999,0 288.034,17.11 402.103,51.34 z m -3490.632,842.71 h -2421.2 v 2481.09 h -1501.47 v -6228.38 h 4166.515 v 1159.27 h -2665.045 v 1433.04 h 2421.2 z M 135889.74,123498.38 c 0,718.65 -162.55,1293.29 -487.66,1723.92 -322.25,427.78 -758.58,641.66 -1308.98,641.66 -424.93,0 -774.27,-155.42 -1048.05,-466.27 v 2160.26 h -1441.6 v -6408.06 h 1347.49 l 42.78,427.77 c 276.63,-342.21 640.24,-513.32 1090.82,-513.32 570.37,0 1013.83,211.04 1330.38,633.1 316.55,419.22 474.83,996.71 474.83,1732.48 z m -1441.59,-89.84 c 0,-821.32 -239.56,-1231.98 -718.67,-1231.98 -342.21,0 -570.36,122.63 -684.43,367.88 v 1822.31 c 125.48,256.67 356.47,385 692.99,385 459.15,0 695.85,-396.4 710.11,-1189.21 z m -5039.17,1869.37 c -305.15,390.7 -717.24,586.05 -1236.27,586.05 -507.63,0 -892.63,-146.86 -1154.99,-440.61 -259.52,-296.59 -389.27,-721.51 -389.27,-1274.76 v -2998.7 h 1441.59 v 3007.26 c 0,396.4 192.5,594.59 577.49,594.59 330.82,0 566.09,-118.35 705.83,-355.05 v -3246.8 h 1450.16 v 4628.52 h -1351.77 z m -3276.76,-2823.3 -474.82,-34.23 c -453.44,0 -744.32,142.59 -872.66,427.77 v 2930.25 h -1441.6 v -4628.51 h 1351.77 l 47.04,594.61 c 242.41,-453.44 580.36,-680.16 1013.83,-680.16 154,0 288.03,17.11 402.11,51.33 z m -5488.33,1304.71 769.99,-2609.43 h 1544.27 l -1886.48,5402.79 -81.28,196.77 c -268.07,598.88 -741.47,898.32 -1420.2,898.32 -188.22,0 -386.43,-28.52 -594.61,-85.56 v -1030.93 h 188.21 c 202.49,0 356.49,-29.94 462,-89.82 108.37,-57.05 188.22,-161.14 239.55,-312.27 l 115.5,-308 -1608.42,-4671.3 h 1539.98 z m -4055.29,363.6 c 0,-219.59 -78.43,-390.69 -235.28,-513.32 -153.99,-122.63 -426.34,-249.54 -817.05,-380.72 -390.69,-131.19 -710.1,-258.09 -958.21,-380.73 -807.07,-396.4 -1210.6,-941.1 -1210.6,-1634.09 0,-345.07 99.81,-648.79 299.44,-911.16 202.49,-265.22 487.67,-470.55 855.55,-615.99 367.89,-148.29 781.4,-222.44 1240.54,-222.44 447.74,0 848.42,79.85 1202.05,239.55 356.48,159.7 633.1,387.85 829.88,684.44 196.78,293.74 295.16,630.25 295.16,1009.55 h -1497.2 c 0,-253.81 -78.43,-450.59 -235.28,-590.33 -154,-139.75 -363.61,-209.62 -628.83,-209.62 -268.07,0 -480.53,59.88 -637.38,179.66 -153.99,116.93 -230.99,266.65 -230.99,449.16 0,159.7 85.55,305.14 256.66,436.33 171.11,128.34 471.97,262.37 902.6,402.11 430.63,136.88 784.25,285.18 1060.88,444.88 673.03,387.85 1009.54,922.57 1009.54,1604.15 0,544.7 -205.33,972.47 -615.99,1283.33 -410.66,310.84 -973.89,466.27 -1689.7,466.27 -504.78,0 -962.49,-89.84 -1373.16,-269.5 -407.81,-182.52 -715.81,-430.63 -923.99,-744.33 -205.34,-316.55 -308,-680.16 -308,-1090.82 h 1505.77 c 0,333.66 85.56,580.34 256.66,740.05 173.96,156.84 454.86,235.27 842.72,235.27 248.1,0 443.46,-52.76 586.05,-158.28 145.43,-108.37 218.15,-259.51 218.15,-453.43 z m -7990.82,1741.04 c -710.1,0 -1284.74,-211.03 -1723.92,-633.1 -439.18,-424.93 -658.77,-976.76 -658.77,-1655.49 v -119.76 c 0,-473.41 86.98,-891.2 260.94,-1253.38 176.81,-362.19 433.48,-641.66 769.99,-838.44 336.52,-199.63 735.77,-299.44 1197.77,-299.44 650.22,0 1163.54,202.48 1539.99,607.44 376.44,402.1 564.66,963.91 564.66,1685.42 v 560.39 h -2866.09 c 51.34,259.51 163.98,463.42 337.94,611.72 173.96,148.29 399.26,222.44 675.89,222.44 456.28,0 812.77,-159.7 1069.43,-479.11 l 658.77,778.55 c -179.66,248.11 -434.9,446.31 -765.71,594.61 -327.96,145.45 -681.59,218.17 -1060.89,218.17 z m -162.54,-3687.41 c -422.07,0 -673.03,279.48 -752.88,838.44 h 1454.42 v -111.21 c 5.73,-231 -52.74,-409.24 -175.39,-534.72 -122.63,-128.34 -298.02,-192.5 -526.15,-192.5 z m -2964.48,3601.86 h -1445.87 v -6570.61 h 1445.87 z m -2155.98,-2280.03 c 0,718.65 -162.56,1293.29 -487.66,1723.92 -322.26,427.78 -758.59,641.66 -1308.99,641.66 -424.92,0 -774.27,-155.42 -1048.05,-466.27 v 2160.26 h -1441.587 v -6408.06 h 1347.487 l 42.78,427.77 c 276.63,-342.21 640.23,-513.32 1090.82,-513.32 570.36,0 1013.82,211.04 1330.38,633.1 316.55,419.22 474.83,996.71 474.83,1732.48 z m -1441.6,-89.84 c 0,-821.32 -239.55,-1231.98 -718.65,-1231.98 -342.22,0 -570.37,122.63 -684.45,367.88 v 1822.31 c 125.49,256.67 356.48,385 693,385 459.14,0 695.85,-396.4 710.1,-1189.21 z m -4897.997,2369.87 c -51.34,-94.12 -96.97,-232.43 -136.88,-414.95 -265.22,333.67 -635.96,500.5 -1112.21,500.5 -436.33,0 -807.07,-131.18 -1112.21,-393.55 -305.15,-265.22 -457.73,-597.46 -457.73,-996.72 0,-501.91 185.37,-881.21 556.11,-1137.87 370.74,-256.67 909.73,-385 1616.98,-385 h 444.89 v -243.83 c 0,-424.93 -183.94,-637.38 -551.83,-637.38 -342.22,0 -513.33,168.26 -513.33,504.77 h -1441.59 c 0,-447.73 189.64,-811.34 568.94,-1090.82 382.14,-279.48 868.37,-419.22 1458.7,-419.22 590.33,0 1056.6,144.02 1398.82,432.05 342.22,288.04 517.62,683.01 526.16,1184.94 v 2049.03 c 5.73,424.92 71.32,750.03 196.78,975.33 v 72.71 z m -902.61,-941.11 c 179.66,0 327.96,-38.5 444.89,-115.5 119.77,-76.99 205.32,-163.97 256.66,-260.93 v -740.05 h -419.21 c -501.93,0 -752.89,225.29 -752.89,675.87 0,131.19 44.21,238.14 132.62,320.84 88.4,79.86 201.05,119.79 337.94,119.79 z m -7344.87,-5287.28 1390.27,4333.35 1385.98,-4333.35 h 1976.31 v 6228.39 h -1505.76 v -1454.44 l 145.43,-2977.3 -1505.76,4431.74 h -992.43 l -1510.04,-4436.02 145.43,2981.58 v 1454.44 h -1501.48 v -6228.39 z m -6750.27,6313.94 c -710.1,0 -1284.74,-211.03 -1723.93,-633.1 -439.18,-424.93 -658.77,-976.76 -658.77,-1655.49 v -119.76 c 0,-473.41 86.98,-891.2 260.94,-1253.38 176.82,-362.19 433.48,-641.66 770,-838.44 336.51,-199.63 735.77,-299.44 1197.76,-299.44 650.22,0 1163.55,202.48 1539.99,607.44 376.44,402.1 564.66,963.91 564.66,1685.42 v 560.39 h -2866.08 c 51.33,259.51 163.98,463.42 337.94,611.72 173.96,148.29 399.25,222.44 675.88,222.44 456.29,0 812.77,-159.7 1069.43,-479.11 l 658.78,778.55 c -179.67,248.11 -434.91,446.31 -765.72,594.61 -327.96,145.45 -681.59,218.17 -1060.88,218.17 z m -162.55,-3687.41 c -422.07,0 -673.03,279.48 -752.88,838.44 h 1454.43 v -111.21 c 5.72,-231 -52.74,-409.24 -175.39,-534.72 -122.64,-128.34 -298.02,-192.5 -526.16,-192.5 z m -2515.31,278.06 -474.83,-34.23 c -453.437,0 -744.323,142.59 -872.655,427.77 v 2930.25 h -1441.597 v -4628.51 h 1351.764 l 47.049,594.61 c 242.404,-453.44 580.346,-680.16 1013.819,-680.16 154,0 288.04,17.11 402.11,51.33 z m -4983.561,2823.3 c -305.145,390.7 -717.234,586.05 -1236.267,586.05 -507.624,0 -892.621,-146.86 -1154.989,-440.61 -259.515,-296.59 -389.273,-721.51 -389.273,-1274.76 v -2998.7 h 1441.597 v 3007.26 c 0,396.4 192.498,594.59 577.495,594.59 330.811,0 566.088,-118.35 705.828,-355.05 v -3246.8 h 1450.15 v 4628.52 h -1351.764 z m -6891.433,-1612.71 v 2113.21 h -1501.484 v -6228.39 h 2485.364 c 476.255,0 896.9,88.41 1261.933,265.22 367.886,173.96 651.643,423.5 851.27,748.6 202.479,322.26 303.718,688.72 303.718,1099.38 0,607.44 -218.164,1093.68 -654.493,1458.71 -433.477,362.18 -1029.508,543.27 -1788.093,543.27 z m 0,-1159.27 h 983.88 c 290.886,0 511.902,-72.71 663.049,-218.14 153.999,-145.45 230.999,-350.79 230.999,-616 0,-290.89 -78.426,-523.31 -235.277,-697.27 -156.85,-173.96 -370.736,-262.37 -641.659,-265.22 h -1000.992 z m -10270.845,-1758.14 c 0,-384.99 125.481,-695.85 376.441,-932.55 250.962,-236.7 587.477,-355.05 1009.546,-355.05 427.775,0 765.715,118.35 1013.824,355.05 248.109,233.85 372.163,551.83 372.163,953.93 v 308 c 0,385 -124.054,694.43 -372.163,928.27 -248.109,233.85 -583.199,350.78 -1005.27,350.78 -419.217,0 -757.158,-115.5 -1013.822,-346.5 -253.812,-233.85 -380.719,-553.25 -380.719,-958.21 z m 928.27,329.38 c 0,148.3 41.351,269.5 124.055,363.61 82.704,91.25 196.777,136.88 342.219,136.88 299.442,0 449.163,-191.07 449.163,-573.22 v -256.66 c 0,-148.3 -39.93,-269.5 -119.789,-363.61 -79.844,-96.96 -192.491,-145.43 -337.939,-145.43 -139.747,0 -250.968,47.06 -333.665,141.16 -82.704,91.26 -124.056,216.74 -124.056,376.44 z m 2031.924,3174.08 c 0,-387.84 125.48,-698.69 376.441,-932.55 253.812,-233.84 590.327,-350.77 1009.546,-350.77 424.922,0 762.862,115.5 1013.822,346.5 250.961,230.99 376.441,553.25 376.441,966.76 v 299.45 c 0,387.85 -124.054,698.7 -372.162,932.55 -248.109,233.85 -584.625,350.77 -1009.547,350.77 -419.217,0 -757.158,-115.5 -1013.822,-346.5 -253.813,-233.84 -380.719,-553.25 -380.719,-958.21 z m 923.992,329.39 c 0,134.04 45.626,252.39 136.879,355.05 91.253,99.82 202.474,149.73 333.663,149.73 276.627,0 426.349,-131.18 449.164,-393.55 l 4.289,-440.61 c 0,-151.15 -41.351,-272.35 -124.055,-363.61 -82.704,-94.11 -195.351,-141.17 -337.94,-141.17 -136.887,0 -246.682,44.21 -329.386,132.62 -82.704,85.55 -126.908,202.46 -132.612,350.77 z m -2215.869,731.49 -671.603,-337.94 3041.47,-4868.06 671.604,337.94 z m -2421.2,-2078.98 c 0,841.29 -189.646,1490.09 -568.938,1946.37 -376.441,456.3 -908.306,684.44 -1595.596,684.44 -692.992,0 -1229.136,-229.57 -1608.43,-688.72 -379.292,-459.14 -568.938,-1106.5 -568.938,-1942.09 v -1137.87 c 0,-841.29 188.221,-1490.08 564.663,-1946.38 379.292,-456.28 914.009,-684.43 1604.149,-684.43 690.142,0 1224.86,229.57 1604.152,688.71 379.292,459.14 568.938,1107.93 568.938,1946.38 z m -1441.596,-1321.82 c 0,-447.73 -58.465,-781.4 -175.394,-1000.99 -116.929,-222.44 -302.298,-333.66 -556.106,-333.66 -248.109,0 -429.2,102.66 -543.273,307.99 -111.225,205.34 -171.112,516.18 -179.661,932.55 v 1591.32 c 0,464.84 58.465,805.64 175.394,1022.38 116.929,213.88 302.298,320.82 556.107,320.82 245.256,0 426.347,-104.09 543.272,-312.27 116.929,-211.03 176.816,-540.41 179.661,-988.15 z m -3631.798,1321.82 c 0,841.29 -189.647,1490.09 -568.939,1946.37 -376.44,456.3 -908.305,684.44 -1595.595,684.44 -692.994,0 -1229.138,-229.57 -1608.43,-688.72 -379.293,-459.14 -568.939,-1106.5 -568.939,-1942.09 v -1137.87 c 0,-841.29 188.22,-1490.08 564.661,-1946.38 379.292,-456.28 914.01,-684.43 1604.151,-684.43 690.142,0 1224.859,229.57 1604.152,688.71 379.292,459.14 568.939,1107.93 568.939,1946.38 z m -1441.597,-1321.82 c 0,-447.73 -58.465,-781.4 -175.394,-1000.99 -116.929,-222.44 -302.298,-333.66 -556.107,-333.66 -248.109,0 -429.199,102.66 -543.271,307.99 -111.226,205.34 -171.113,516.18 -179.662,932.55 v 1591.32 c 0,464.84 58.465,805.64 175.394,1022.38 116.93,213.88 302.299,320.82 556.107,320.82 245.257,0 426.348,-104.09 543.272,-312.27 116.93,-211.03 176.817,-540.41 179.661,-988.15 z m -4761.122,3867.08 h -1445.874 v -4602.84 l -1420.208,414.93 v -1095.1 l 2733.473,-945.38 h 132.612 z m 88042.472,-83492.494 -7038.36,-3190.95 -2005.91,4424.48 8313.43,3769.02 -1560.78,3442.67 -12788.91,-5798.03 8416.68,-18564.96 12814.42,5809.59 -1566.57,3455.43 -8338.93,-3780.57 -1774.67,3914.45 7038.36,3190.94 z m -24344.87,-3959.6 8271.43,2180.1 -963.38,3655.13 -13023.1,-3432.49 5195.12,-19710.64 4751.67,1252.4 z m -18902.467,-5926.89 -501.16,6897.74 -4901.03,-356.09 1477.1,-20330.19 8112.53,589.42 c 1554.55,112.94 2906.62,501.27 4056.2,1164.99 1159.57,655.07 2026.607,1536.88 2601.107,2645.41 584.49,1099.91 828.05,2320.08 730.66,3660.53 -144.05,1982.76 -971.49,3518.15 -2482.287,4606.18 -1500.82,1079.41 -3489.28,1529.16 -5965.4,1349.25 z m 274.93,-3783.99 3211.5,233.34 c 949.49,68.97 1688.16,-115.98 2216.01,-554.87 537.17,-438.23 837.19,-1090.19 900.09,-1955.9 68.98,-949.49 -131.89,-1726.74 -602.6,-2331.77 -470.73,-605.03 -1147.91,-944.33 -2031.56,-1017.89 l -3267.36,-237.39 z m -14149.623,7263.44 -6672.487,907.57 -652.037,3931.71 -5202.043,707.56 4660.471,-21205.37 4577.798,-622.66 10210.441,19182.69 -5229.791,711.33 z m -6018.563,-3010.27 4341.973,-590.58 -3130.777,-6709.19 z m -30315.434,-4315.97 9441.347,11519.03 -990.653,-14856.59 6015.751,-2375.9 7487.675,18958.72 -4583.428,1810.21 -1748.497,-4427.17 -3136.556,-9237.54 744.342,15300.07 -3020.894,1193.09 -9929.361,-11687.53 4027.133,8900.85 1748.497,4427.18 -4570.408,1805.06 -7487.675,-18958.72 z m 132404.107,3586 -4353.18,-4298.72 -11656.69,11804.4 -3496.49,-3452.74 11656.69,-11804.4 -4273.49,-4220.01 2665.79,-2699.57 12123.17,11971.47 z m -25367.14,-5456.64 -5730.36,-3536.76 -3000.73,2622.81 -4467.55,-2757.35 17067.65,-13419.5098 3931.43,2426.4598 -4296.42,21301.86 -4491.38,-2772.06 z m -2736.99,-6147.66 3728.9,2301.47 1842.82,-7170.7 z m -8069.12,-7053.94 c -681.22,1867.62 -1630.43,3394.09 -2847.62,4579.41 -1217.2,1185.31 -2608.2,1934.69 -4172.98,2248.11 -1552.83,307.86 -3144.68,164.35 -4775.56,-430.52 -1630.88,-594.87 -2941.7,-1495.22 -3932.46,-2701.06 -987.57,-1214.61 -1582.21,-2648.51 -1783.91,-4301.7 -192.94,-1650 22.48,-3384.5098 646.24,-5203.5398 l 393.38,-1078.49 c 684.42,-1876.38 1629.25,-3404.45 2834.47,-4584.2 1217.2,-1185.32001 2608.19,-1934.690013 4172.98,-2248.11001 1573.56,-310.23 3180.16,-166.31 4819.82,431.76 1622.1,591.67 2928.12,1505.18001 3918.06,2740.52001 989.94,1235.34 1574.98,2695.54 1755.12,4380.61 192.11,1679.5 -43.27,3441.4998 -706.12,5286.0098 z m -4402.71,-2514.93 c 694.01,-1902.6898 900.08,-3461.7898 618.21,-4677.2898 -269.92,-1221.08 -996.72,-2047.5 -2180.42,-2479.26 -2314.79,-844.33 -4171.2,445.62 -5569.21,3869.83 l -526.47,1402.5 c -684.42,1876.3798 -899.26,3432.2798 -644.52,4667.6898 254.75,1235.41 995.89,2077 2223.43,2524.75 1166.16,425.36 2245.6,257.78 3238.31,-502.75 992.71,-760.53 1832.45,-2068.62 2519.25,-3924.27 z m -33385.287,2420.04 3515.707,-20078.2998 7212.2,1262.86 c 2583.33,452.34 4463.21,1269.48 5639.64,2451.42 1185.61,1183.55 1620.67,2676.27999 1305.16,4478.18 -181.91,1038.85 -576.27,1884.15 -1183.11,2535.91 -606.84,651.76 -1405.1,1071.02 -2394.8,1257.79 999.74,459.31 1714.02,1114.99 2142.81,1967.04 428.79,852.05 548.22,1820.49 358.27,2905.3098 -344.49,1967.37 -1228.81,3338.04 -2652.97,4112 -1413.34,766.37 -3344.34,944.65 -5793,534.84 z M 104489,5697.0062 l -842.7,4812.7298 3171.71,555.37 c 873.36,152.92 1579.09,72.78 2117.17,-240.44 539.7,-322.41 873.12,-846.7498 1000.3,-1573.0298 292.97,-1673.19 -391.74,-2660.07 -2054.13,-2960.63 z m 555.37,-3171.71 2523.58,441.88 c 1058.85,175.93 1846.51,114.87 2362.98,-183.18 516.47,-298.05 839.1,-814.81 967.89,-1550.28 148.1,-845.79001 10.71,-1495.21001 -412.15,-1948.26001 -421.25,-462.24999 -1174.27,-788.33999 -2259.09,-978.28999 l -2371.89,-415.32 z m -25803.587,-9889.48 4704.64,14131.28 4380.72,-14230.56 6467.55,-70.66 222.71,20382.5598 -4927.66,53.85 -52.01,-4759.6698 369.5,-9748.51 -4769.18,14556.8198 -3247.77,35.49 -5100.275,-14462.9798 582.584,9752.11 52.015,4759.6698 -4913.653,53.68 -222.714,-20382.5598 z m -14856.118,18259.7998 -6598.425,1344.08 -392.263,3966.06 -5144.304,1047.87 3256.926,-21465.7898 4526.986,-922.13 11448.922,18470.2498 -5171.738,1053.47 z m -6203.368,-2608.2698 4293.777,-874.62 -3564.891,-6488.95001 z m -10738.271,1671.28 -7213.583,2772.1598 1742.646,4534.63 8520.393,-3274.37 1355.95,3528.38 -13107.29,5037.11 -7312.087,-19027.1398 13133.429,-5047.15 1360.97,3541.46 -8546.527,3284.41 1541.765,4011.9 7213.582,-2772.16 z m -18141.479,-1452.62 -5250.735,3139.8698 8514.296,14238.29 -4217.403,2521.96 -8514.317,-14238.29 -5154.606,3082.4 -1947.169,-3256.18 14622.788,-8744.2298 z M 15581.218,31135.456 c -496.163,-519.9 -1068.46,-747.81 -1716.892,-683.74 -641.675,57.63 -1573.226,372.54 -2794.654,944.74 -1221.4138,572.2 -2264.3628,993.44 -3128.8488,1263.71 -2806.469,885.05 -4992.614,507.22 -6558.435,-1133.49 -779.67396,-816.98 -1229.60896,-1761.58 -1349.803954,-2833.81 -119.955,-1085.43 91.289994,-2215.94 633.734994,-3391.52 535.92696,-1182.34 1347.41796,-2292.22 2434.47396,-3329.66 1060.04,-1011.66 2189.103,-1727.94 3387.188,-2148.85 1204.828,-427.36 2375.258,-512.25 3511.289,-254.67 1129.5738,250.83 2122.8618,825.25 2979.8678,1723.25 l -3544.7228,3382.94 c -573.494,-600.92 -1203.79,-889.6 -1890.887,-866.04 -680.34,17.12 -1334.475,325.31 -1962.408,924.57 -634.675,605.71 -1002.372,1227.56 -1103.092,1865.54 -100.389,624.79 55.605,1153.24 467.981,1585.36 360.841,378.11 892.028,529.14 1593.559,453.11 695.074,-82.78 1710.255,-445.25 3045.542,-1087.41 1328.8318,-648.91 2501.1338,-1096.83 3516.9098,-1343.76 2469.784,-602.46 4474.702,-96.83 6014.756,1516.87 1230.746,1289.61 1711.158,2766.34 1441.238,4430.19 -269.906,1663.85 -1252.223,3304.45 -2946.953,4921.82 -1195.075,1140.53 -2481.727,1962.06 -3859.955,2464.58 -1377.912,489.33 -2667.715,597.84 -3869.4128,325.52 -1201.397,-285.52 -2266.034,-914.41 -3193.913,-1886.68 l 3564.9968,-3402.27 c 753.908,789.97 1513.843,1180.7 2279.805,1172.18 766.264,-21.72 1608.527,-470.74 2526.789,-1347.08 587.415,-560.6 930.708,-1126.9 1029.878,-1698.91 99.485,-585.2 -69.858,-1107.36 -508.031,-1566.49 z" />
  </g>
</svg>
