<?xml version="1.0" encoding="UTF-8" standalone="no"?>
<svg
   height="347.50168"
   version="1.1"
   viewBox="0 0 349519.74 237224.01"
   width="512"
   id="svg130"
   sodipodi:docname="logo.svg"
   inkscape:version="1.1.2 (0a00cf5339, 2022-02-04)"
   xmlns:inkscape="http://www.inkscape.org/namespaces/inkscape"
   xmlns:sodipodi="http://sodipodi.sourceforge.net/DTD/sodipodi-0.dtd"
   xmlns="http://www.w3.org/2000/svg"
   xmlns:svg="http://www.w3.org/2000/svg"
   xmlns:meerk40t="https://github.com/meerk40t/meerk40t/wiki/Namespace">
  <defs
     id="defs134" />
  <sodipodi:namedview
     id="namedview132"
     pagecolor="#ffffff"
     bordercolor="#666666"
     borderopacity="1.0"
     inkscape:pageshadow="2"
     inkscape:pageopacity="0.0"
     inkscape:pagecheckerboard="0"
     inkscape:document-units="mm"
     showgrid="false"
     inkscape:zoom="1.0457341"
     inkscape:cx="226.63505"
     inkscape:cy="152.0463"
     inkscape:window-width="1920"
     inkscape:window-height="1012"
     inkscape:window-x="0"
     inkscape:window-y="0"
     inkscape:window-maximized="1"
     inkscape:current-layer="svg130"
     units="px" />
  <note
     text="150mm/s @ 15% power, masking tape" />
  <meerk40t:operation
     allowed_attributes="[]"
     color="#00000000"
     dwell_time="50.0"
     frequency="30.0"
     id="meerk40t:3"
     label="Image"
     lock="False"
     matrix="[1.000001, 0.000000,  0.000000, 1.000001,   0.0, 0.1935486401090625]"
     output="True"
     power="1000"
     speed="150.0"
     stopop="True"
     type="op image" />
  <meerk40t:operation
     allowed_attributes="[]"
     color="#000000"
     dangerous="False"
     dpi="500.0"
     dwell_time="50.0"
     frequency="30.0"
     hex_color="#000000ff"
     id="meerk40t:4"
     label="Raster"
     lock="False"
     matrix="[1.000001, 0.000000,  0.000000, 1.000001,   0.0, 0.1935486401090625]"
     output="True"
     power="1000"
     references="path48694 path48696 path910 path96090 path96092 path96094 path96096 path96098 path96100 path96102 path96104 path96106 path96108 path96110 path96112 path96114 path96116 path96118 path96120 path96122 path96124 path96126 path96128 path96130 path96132 path96134 path96136 path96138 path96140 path96142 path96144 path96146 path96148 path96150 path96152 path96154 path96156 path96158 path96160 path96162 path96164 path96166 path96168 path96170 path96172 path96174 path96176 path96178 path96180 path96182 path96184 path96186 path96188 path96190 path96192 path96194 path96196 path96198 path96200 path96202 path96204 path96206 path96208 path96210 path96212 path96214 path96216 path96218 path96220 path96222 path96224 path96226 path96228 path96230 path96232 path96234 path96236 path96238 path96240 path96242 path96244 path96246 path96248 path96250 path96252 path96254 path96256 path96258 path96260 path39022 path38724 meerk40t:124"
     speed="150.0"
     stopop="False"
     type="op raster" />
  <meerk40t:operation
     allowed_attributes="['stroke']"
     color="#00000000"
     dangerous="False"
     dwell_time="50.0"
     frequency="30.0"
     hex_color="#00000000"
     id="meerk40t:98"
     label="Engrave"
     lock="False"
     matrix="[1.000001, 0.000000,  0.000000, 1.000001,   0.0, 0.1935486401090625]"
     output="True"
     power="1000"
     speed="35.0"
     type="op engrave" />
  <meerk40t:operation
     allowed_attributes="['stroke']"
     color="#ff00ff"
     dwell_time="50.0"
     frequency="30.0"
     id="meerk40t:99"
     label="Engrave"
     lock="False"
     matrix="[1.000001, 0.000000,  0.000000, 1.000001,   0.0, 0.1935486401090625]"
     output="False"
     power="1000"
     references="meerk40t:19 meerk40t:20 meerk40t:21 meerk40t:272"
     speed="35.0"
     type="op engrave" />
  <meerk40t:operation
     allowed_attributes="['stroke']"
     color="#0000ff"
     dwell_time="50.0"
     frequency="30.0"
     id="meerk40t:104"
     label="Engrave"
     lock="False"
     matrix="[1.000001, 0.000000,  0.000000, 1.000001,   0.0, 0.1935486401090625]"
     output="True"
     power="1000"
     speed="35.0"
     type="op engrave" />
  <meerk40t:operation
     allowed_attributes="['stroke']"
     color="#ff0000"
     dangerous="False"
     dwell_time="50.0"
     frequency="30.0"
     hex_color="#ff0000ff"
     id="meerk40t:105"
     label="Cut"
     lock="False"
     matrix="[1.000001, 0.000000,  0.000000, 1.000001,   0.0, 0.1935486401090625]"
     output="True"
     power="1000"
     speed="10.0"
     type="op cut" />
  <g
     inkscape:label="Layer 1"
     id="g23"
     transform="matrix(1.6969051,0,0,1.6969051,-47657.782,-469650.03)">
    <g
       inkscape:label="Layer 1"
       id="g18">
      <g
         inkscape:label="Layer 1"
         id="g16">
        <path
           d="m -55.847926,74.142811 -3.117613,-1.413414 -0.888505,1.959804 3.682398,1.669467 -0.691344,1.524919 -5.664793,-2.568214 3.728136,-8.223269 5.676089,2.573336 -0.693904,1.530567 -3.693694,-1.674589 -0.786084,1.73389 3.117613,1.413414 z m -10.783453,-1.753884 3.663793,0.965663 -0.426726,1.619025 -5.768525,-1.520406 2.301155,-8.730741 2.104732,0.554743 z m -8.372767,-2.625294 -0.221986,3.055325 -2.170889,-0.157727 0.654276,-9.005169 3.593408,0.261081 q 1.032874,0.07504 1.796676,0.516025 0.770437,0.435245 1.15215,1.171776 0.388348,0.730795 0.323639,1.621416 -0.09571,1.317377 -1.099518,2.040287 -0.99717,0.717175 -2.642345,0.597644 z m 0.121778,-1.676099 1.42252,0.103354 q 0.630857,0.04583 0.981573,-0.245777 0.3569,-0.291163 0.398691,-0.866355 0.04583,-0.630857 -0.266921,-1.032849 -0.312757,-0.401992 -0.89987,-0.450867 l -1.447259,-0.105151 z m -6.267514,3.217308 -2.955549,0.402004 -0.288817,1.741534 -2.304222,0.313412 2.064335,-9.392827 2.027716,-0.275803 4.522668,8.496885 -2.316511,0.315084 z m -2.665896,-1.333385 1.923258,-0.261596 -1.386764,-2.971804 z m -13.428089,-1.911739 4.182003,5.1023 -0.438805,-6.580661 2.66465,-1.052394 3.316633,8.397684 -2.030209,0.801823 -0.774489,-1.960997 -1.389324,-4.091726 0.329703,6.777098 -1.338092,0.528474 -4.398167,-5.176941 1.783801,3.942596 0.774489,1.960998 -2.024442,0.799545 -3.316633,-8.397683 z m 58.647823,1.588399 -1.928223,-1.904096 -5.163279,5.228705 -1.548756,-1.529376 5.16328,-5.228705 -1.892924,-1.869238 1.180801,-1.195763 5.369902,5.30271 z m -11.236264,-2.416995 -2.538241,-1.566591 -1.329158,1.161763 -1.978879,-1.221356 7.560038,-5.944115 1.741413,1.074793 -1.903084,9.435563 -1.989433,-1.22787 z m -1.212339,-2.723077 1.651703,1.019424 0.816268,-3.17623 z m -3.574181,-3.124511 q -0.452617,1.24088 -1.261342,2.028427 -0.808726,0.787547 -1.848403,0.995793 -1.031727,0.204545 -2.115312,-0.190698 -1.083585,-0.395242 -1.741868,-1.196423 -0.656158,-0.807007 -0.790173,-1.905419 -0.12819,-1.096287 0.286249,-2.304886 l 0.174247,-0.47771 q 0.454741,-1.246705 1.255516,-2.030551 0.808726,-0.787548 1.848403,-0.995793 1.045503,-0.206121 2.134914,0.191247 1.077759,0.393117 1.735493,1.2139 0.657734,0.820783 0.777423,1.940373 0.127641,1.115889 -0.312775,2.341417 z m -1.950162,-1.113979 q 0.461116,-1.264183 0.273834,-2.071786 -0.179332,-0.811304 -0.965805,-1.098174 -1.537992,-0.560989 -2.466861,1.714124 l -0.233197,0.621228 q -0.454741,1.246705 -0.285485,2.067536 0.169256,0.82083 0.984858,1.118324 0.774821,0.28262 1.434394,-0.22269 0.659573,-0.50531 1.11589,-1.738239 z m -14.787867,1.071947 1.55727,-8.893596 3.194609,0.559377 q 1.716415,0.300544 2.498054,1.085848 0.787747,0.786373 0.578115,1.983588 -0.12086,0.690231 -0.524052,1.123273 -0.403193,0.433042 -1.060768,0.557131 0.664252,0.305176 0.949151,0.871294 0.2849,0.566119 0.158692,1.286891 -0.228884,1.307163 -1.175117,1.821394 -0.939054,0.509192 -2.565985,0.236907 z m 2.806045,-3.405586 -0.373274,2.131775 1.404895,0.245998 q 0.580283,0.101607 0.937794,-0.1065 0.358581,-0.214215 0.443075,-0.696766 0.194659,-1.1117 -0.909863,-1.311397 z m 0.245998,-1.404895 1.117808,0.195728 q 0.703517,0.11689 1.046672,-0.08114 0.343156,-0.19803 0.42872,-0.686689 0.0984,-0.561958 -0.182556,-0.862974 -0.279885,-0.307124 -1.000657,-0.433331 l -1.050617,-0.183964 z m -11.429588,-4.380504 2.083897,6.259391 1.940423,-6.303365 2.86477,-0.0313 0.09865,9.028367 -2.182682,0.02385 -0.02304,-2.108272 0.163669,-4.318062 -2.112487,6.447881 -1.438586,0.01572 -2.259146,-6.406313 0.258053,4.319655 0.02304,2.108272 -2.176481,0.02378 -0.09865,-9.028367 z m -6.580454,8.088097 -2.922744,0.595354 -0.173751,1.756749 -2.278647,0.464153 1.442641,-9.50818 2.005209,-0.408454 5.07125,8.18132 -2.290799,0.466629 z m -2.747755,-1.155318 1.90191,-0.387413 -1.579053,-2.874252 z m -4.75647,0.740283 -3.195225,1.227918 0.771897,2.008593 3.774071,-1.450367 0.600612,1.562882 -5.805817,2.231163 -3.238857,-8.427987 5.817395,-2.235611 0.602836,1.56867 -3.785647,1.454816 0.682918,1.777055 3.195225,-1.227918 z m -8.035689,-0.643432 -2.32579,1.390795 3.77137,6.306785 -1.86808,1.117091 -3.77138,-6.306785 -2.28321,1.365334 -0.86249,-1.442312 6.4771,-3.873219 z m -6.07736,10.023617 q -0.32966,-0.345428 -0.76049,-0.302858 -0.42634,0.03829 -1.23788,0.418469 -0.81153,0.38018 -1.38591,0.559752 -1.86467,0.588045 -2.90503,-0.502072 -0.51803,-0.542816 -0.59789,-1.255227 -0.0797,-0.721179 0.28071,-1.502258 0.35608,-0.785565 1.07834,-1.474856 0.70431,-0.672165 1.50034,-0.951827 0.80051,-0.283943 1.55531,-0.112801 0.75051,0.166656 1.31992,0.763305 l -1.57012,1.498458 q -0.38104,-0.399261 -0.83756,-0.383607 -0.45203,0.01137 -0.86924,0.409534 -0.42169,0.402443 -0.48861,0.826331 -0.0667,0.41512 0.20729,0.702229 0.23975,0.251221 0.70586,0.200702 0.46182,-0.055 1.34901,-0.481665 0.8829,-0.431146 1.5578,-0.595212 1.64097,-0.400282 2.66421,0.671892 0.81773,0.856841 0.63839,1.962332 -0.17933,1.105492 -1.30534,2.1801 -0.79403,0.757792 -1.70975,1.091677 -0.91551,0.325118 -1.71394,0.144185 -0.79823,-0.189701 -1.41473,-0.835697 l 1.5791,-1.50702 q 0.50091,0.524871 1.00983,0.519213 0.50912,-0.01443 1.11923,-0.596683 0.39029,-0.372474 0.45618,-0.752524 0.0661,-0.388818 -0.22503,-0.693872 z"
           fill="#000000"
           fill-rule="evenodd"
           id="path48694"
           inkscape:label="Layer 1"
           label="Layer 1"
           lock="False"
           stroke="none"
           stroke-linecap="butt"
           stroke-linejoin="miter"
           stroke-width="2"
           stroke_scale="True"
           transform="matrix(2580.1296,0,0,2580.1296,326948.46,145015.68)"
           type="elem path" />
        <path
           d="m -71.855469,51.064453 -4.595703,0.05078 -1.236328,4.017578 -1.328125,-3.990234 -0.730469,0.0078 -3.857422,0.04297 0.08398,7.666016 -4.240235,-6.839844 -3.371093,0.6875 -1.179688,7.771485 -3.357422,1.289062 -0.05469,-0.140625 3.195312,-1.228516 -0.357422,-0.933593 -0.90625,-2.355469 0.591797,-0.226563 -1.320312,-3.435546 -7.685551,2.953125 0.26563,0.689453 -0.4336,-0.722657 -8.19336,4.898438 1.47461,2.466797 c -0.35548,-0.23402 -0.67667,-0.534199 -1.09179,-0.626953 -0.69259,-0.157035 -1.42187,-0.0979 -2.10743,0.144531 -0.68004,0.238915 -1.30382,0.641678 -1.85937,1.171875 -0.5587,0.533196 -0.99994,1.129059 -1.29688,1.783203 -3.6e-4,8.1e-4 -0.002,0.0011 -0.002,0.002 -0.29924,0.650812 -0.4386,1.343875 -0.36328,2.025391 0.0768,0.684883 0.3887,1.334558 0.86719,1.835937 0.75827,0.794536 1.87259,0.96902 3.01953,0.835938 l -1.35938,1.296875 0.68946,0.724609 c 0.52607,0.551239 1.18397,0.945073 1.9082,1.117188 l 0.004,0.002 h 0.006 c 0.73854,0.167362 1.51767,0.09122 2.26953,-0.175781 l 0.004,-0.002 0.004,-0.002 c 0.75183,-0.274129 1.44341,-0.719532 2.05859,-1.30664 0.8554,-0.816344 1.43724,-1.731154 1.60157,-2.744141 0.16457,-1.014447 -0.18369,-2.059469 -0.90235,-2.8125 -0.8244,-0.863826 -2.03901,-1.13888 -3.25586,-0.953125 l 1.22852,-1.171875 -0.64063,-0.671875 1.91797,-1.144531 3.76953,6.30664 3.585943,-2.144531 -3.771483,-6.30664 1.90234,-1.136719 2.658205,6.916015 7.113281,-2.732421 2.646485,-0.539063 0.173828,-1.757812 1.478516,-0.300782 0.853515,1.546875 3.449219,-0.701172 3.226562,-0.03516 -0.0078,-0.769531 0.269531,0.765625 2.871094,-0.03125 0.248047,-0.755859 0.0078,0.753906 3.414063,-0.03906 -0.0098,0.05469 0.984375,0.171875 3.613281,0.632812 h 0.0039 c 1.215603,0.203445 2.302603,0.146667 3.207031,-0.34375 h 0.002 c 0.66802,-0.363035 1.088048,-1.008477 1.376953,-1.730468 0.0061,0.113828 -0.05618,0.232736 -0.04297,0.345703 v 0.0039 0.002 c 0.10954,0.897807 0.451298,1.731559 1.007813,2.416016 l 0.002,0.002 v 0.002 c 0.558507,0.679746 1.306379,1.184307 2.171875,1.5 0.870547,0.317536 1.780452,0.405666 2.654297,0.232422 h 0.002 c 0.601432,-0.120466 1.092614,-0.513191 1.601563,-0.859375 l -1.492188,1.173828 3.824219,2.361328 1.330078,-1.162109 1.285156,0.792968 -0.4375,1.712891 2.97461,1.835938 -0.205079,0.208984 2.972657,2.933594 5.162109,-5.228516 1.927734,1.904297 0.703125,-0.710938 1.882813,-1.908203 -6.792969,-6.707031 -2.585937,2.617188 1.894531,1.86914 -3.742188,3.791016 1.96875,-9.763672 -2.927734,-1.806641 -6.763672,5.31836 c 0.517567,-0.588549 0.980029,-1.236112 1.271485,-2.035157 l 0.142578,-0.392578 0.002,-0.002 c 0.335983,-0.934926 0.468589,-1.874868 0.365234,-2.787109 v -0.002 c -0.09788,-0.912514 -0.431888,-1.760274 -0.990234,-2.457032 -0.556446,-0.694385 -1.306364,-1.210932 -2.173828,-1.527343 -0.875314,-0.319275 -1.790556,-0.408127 -2.671875,-0.234375 v 0.002 h -0.002 c -0.882189,0.1767 -1.688573,0.616039 -2.34961,1.259765 h -0.002 v 0.002 c -0.655619,0.641759 -1.151301,1.457068 -1.496094,2.402343 l -0.177734,0.486328 -0.002,0.0098 c -0.08946,0.260897 -0.03612,0.514858 -0.09375,0.775391 -0.03019,-0.368749 0.02369,-0.751638 -0.142578,-1.082032 -0.04622,-0.09184 -0.16427,-0.121726 -0.220703,-0.207031 0.04841,-0.04464 0.126859,-0.04345 0.171875,-0.0918 0.415399,-0.446153 0.670314,-1.019613 0.777343,-1.630859 0.182714,-1.043481 -0.120738,-2.128465 -0.855468,-2.863281 -0.734278,-0.737721 -1.768576,-1.143799 -3.033204,-1.365235 l -4.179687,-0.730468 -1.169922,6.677734 z m -1.978515,2.021484 0.01758,1.648438 -1.570313,-0.28125 0.417969,-1.355469 z m -6.619141,0.07227 0.445313,1.337891 -1.556641,0.316406 -0.01758,-1.642578 z m 11.466797,0.447266 0.173828,0.03125 -0.550781,3.142578 -0.09961,0.564453 -0.07227,0.419922 -0.490235,2.796875 -0.173828,-0.03125 z m 3.822266,0.808593 0.0098,0.0078 c -0.0026,-0.0028 -0.0072,-0.0011 -0.0098,-0.0039 -9.35e-4,-10e-4 9.37e-4,-0.0029 0,-0.0039 z m 0.06836,0.269532 c 0.05716,0.04399 0.235423,0.07115 0.279297,0.115234 h 0.002 l 0.002,0.002 c 0.314196,0.313648 0.395464,0.551626 0.298828,1.103516 -0.05412,0.30906 -0.149295,0.483999 -0.271484,0.615234 -0.06738,0.07237 -0.196306,0.103141 -0.296875,0.148438 0.101524,-0.197497 0.319586,-0.332183 0.355469,-0.53711 0.08323,-0.475302 -0.08674,-1.00128 -0.369141,-1.447265 z m -8.714844,0.605468 0.05273,4.826172 -0.181641,0.002 -0.01367,-1.083984 z M -81.556641,55.5 l 0.216797,3.613281 0.01172,1.083985 -0.177734,0.002 z m 14.423829,0.136719 0.06641,0.01172 c 0.366431,0.06416 0.488929,0.181815 0.433594,0.121094 l 0.0039,0.0039 0.0039,0.0039 c -0.01387,-0.01486 -0.0086,0.01715 -0.01563,0.002 0.09864,-0.05692 -0.04028,0.01335 -0.373047,-0.03711 l -0.0098,-0.002 -0.125,-0.02148 z m 7.697265,1.095703 c -0.499869,0.445877 -0.920781,0.973298 -1.21875,1.703125 l -0.0039,0.01367 -0.240234,0.638672 -0.002,0.0039 c -0.308178,0.844892 -0.392501,1.614277 -0.294921,2.361328 -0.0483,-0.160638 -0.164775,-0.271624 -0.1875,-0.457031 -8.4e-5,-6.79e-4 8.2e-5,-0.0013 0,-0.002 -0.06499,-0.563235 0.0037,-1.172365 0.238281,-1.857422 2.42e-4,-7.09e-4 -2.43e-4,-0.0012 0,-0.002 l 0.167969,-0.458985 c 0.261527,-0.716996 0.603545,-1.254835 1.015625,-1.658203 0.162728,-0.158301 0.355902,-0.178704 0.52539,-0.285156 z m -40.019531,0.755859 1.148437,2.988281 0.136719,0.355469 1.236328,3.216797 -0.166015,0.0625 -2.519532,-6.560547 z m 13.074219,0.550781 1.603515,2.587891 -0.164062,0.0332 -0.691406,-1.255859 h 0.002 z m 28.777343,0 c 0.262196,0.09564 0.273609,0.110695 0.332032,0.375 l 0.002,0.0039 v 0.0059 c 0.05811,0.250603 0.0307,0.766464 -0.238281,1.503906 l -0.142579,0.388672 c -0.26467,0.712745 -0.569371,1.121793 -0.785156,1.28711 -0.218206,0.167171 -0.233889,0.169491 -0.484375,0.07813 -0.286502,-0.104503 -0.294154,-0.121393 -0.347656,-0.38086 -0.05684,-0.275661 -0.01917,-0.796197 0.246094,-1.523437 l 0.224609,-0.59375 c 0.266065,-0.646473 0.554687,-0.999877 0.720703,-1.115235 0.167234,-0.116204 0.194857,-0.130625 0.472656,-0.0293 z m 2.25,0.222657 c 0.05167,0.172976 0.17371,0.294016 0.195313,0.496093 v 0.0039 l 0.002,0.0039 c 0.06564,0.573841 -0.01118,1.191494 -0.261719,1.888672 l -0.140625,0.386719 c -0.25938,0.711107 -0.601648,1.247357 -1.019531,1.654296 -0.151216,0.147256 -0.331501,0.163375 -0.488281,0.265625 0.55212,-0.499347 0.985965,-1.123628 1.292969,-1.953125 v -0.0039 l 0.144531,-0.392578 c 0.307959,-0.844292 0.380184,-1.605677 0.27539,-2.349609 z m -9.947265,0.605468 c 0.07623,0.06804 0.20015,0.127406 0.242187,0.210938 0.08667,0.17222 0.122778,0.353283 0.06836,0.664062 -0.116053,0.662778 -0.319771,0.926006 -0.667969,1.115235 -0.05153,0.02794 -0.221347,-0.004 -0.285156,0.01953 0.385673,-0.311154 0.710358,-0.73272 0.791015,-1.193359 0.04691,-0.267904 -0.105385,-0.536957 -0.148437,-0.816406 z m -24.751953,0.0625 -0.105469,1.072266 h -0.002 l -0.173828,1.755859 -0.152344,0.03125 z m 22.314453,0.164063 0.511719,0.08984 c 0.203265,0.03675 0.17404,0.06746 0.136718,0.01367 -0.03732,-0.05379 0.0031,-0.06667 -0.0332,0.140625 -0.0064,0.03658 0.0071,0.0013 0.0098,0.0039 0.0069,-0.0036 -0.02262,0.02341 -0.234375,-0.01367 l -0.417969,-0.07227 z M -105.38867,60.5 l 3.60742,6.033203 -0.15234,0.08984 -3.60547,-6.033203 z m 27.720701,2.085937 -0.552734,7.617188 -3.830078,-7.195313 -3.410156,0.464844 -1.828125,8.31836 -2.984375,-7.558594 -4.273438,1.6875 0.279297,4.193359 -2.666016,-3.251953 -0.677734,0.267578 -3.587892,1.417969 4.050783,10.257812 3.884765,-1.533203 -0.283203,-0.71875 0.527344,0.621094 2.669922,-1.054687 -0.03906,-0.789063 0.275391,0.695313 3.05664,-1.205079 3.527344,-0.480468 0.289063,-1.742188 1.496093,-0.203125 0.75,1.59961 2.835938,-0.384766 3.857422,0.279297 0.222656,-3.054688 0.386719,0.02734 c 1.255511,0.09122 2.401035,-0.137501 3.298828,-0.783203 0.890726,-0.641472 1.432515,-1.662238 1.513672,-2.779297 0.05495,-0.756353 -0.09207,-1.504799 -0.439453,-2.160156 -0.343674,-0.659403 -0.88225,-1.201469 -1.541016,-1.574219 -0.655736,-0.377386 -1.406951,-0.585694 -2.216797,-0.644531 z m 10.09375,0.914063 -2.810547,10.666016 6.925782,1.824218 7.09375,3.216797 1.517578,-3.345703 -3.681641,-1.669922 0.0625,-0.138672 3.117188,1.414063 0.412109,-0.910156 1.041016,-2.298829 0.576172,0.261719 1.519531,-3.351562 -7.496094,-3.400391 -3.046875,6.716797 -3.064453,-0.806641 1.873047,-7.113281 z m 15.917969,0.214844 -0.814453,0.710937 h -0.002 l -1.330078,1.16211 -0.132813,-0.08203 z m -24.162109,1.011718 0.175781,0.01367 -0.287109,3.953125 -0.02344,0.31836 -0.04883,0.679687 -0.148438,2.058594 -0.177734,-0.01367 z m -35.708981,0.232422 h 0.01 c -0.002,3.9e-5 -0.002,0.0019 -0.004,0.002 -0.002,6.6e-5 -0.004,-0.002 -0.006,-0.002 z m 0.75976,0.107422 -0.16015,0.152344 c -0.0975,-0.03254 -0.17211,-0.09987 -0.27344,-0.117188 0.14409,-0.01728 0.29809,-0.05487 0.43359,-0.03516 z m 62.39258,0.519531 -0.601562,2.980469 -0.142579,-0.08789 0.355469,-1.388672 0.002,0.002 z m -23.119141,0.07031 c 0.136054,0.131845 0.317566,0.237084 0.40625,0.408203 l 0.002,0.0059 0.002,0.0039 c 0.169103,0.31822 0.240214,0.650251 0.208984,1.080078 -0.04646,0.639441 -0.237864,0.978374 -0.685547,1.300781 -0.03775,0.02715 -0.133172,0.01023 -0.173828,0.03516 0.347963,-0.379904 0.616597,-0.847845 0.652344,-1.339843 0.03788,-0.521403 -0.136379,-1.040489 -0.41211,-1.494141 z m 5.34375,0.289062 0.171875,0.04492 -1.791015,6.794922 -0.171875,-0.04492 z m 25.267579,0.488282 0.125,0.123047 -4.939454,5.001953 -0.125,-0.123047 z m -32.886719,0.126953 0.439453,0.03125 c 0.180159,0.015 0.159017,0.02422 0.193359,0.06836 0.03829,0.04921 0.07808,0.104394 0.06055,0.345703 -0.01384,0.190422 -0.03233,0.16176 -0.03516,0.164063 l -0.002,0.0039 -0.0039,0.002 c 0.01264,-0.01051 -0.01519,0.03606 -0.269532,0.01758 l -0.425781,-0.03125 z m -17.628906,0.265625 0.605468,1.533203 -1.568359,0.298828 -0.09375,-1.414062 z m -22.314453,0.621094 c 0.0374,0.409137 0.069,0.848731 0.3457,1.138671 0.33102,0.34686 0.81355,0.396944 1.25196,0.41211 -0.6265,0.110125 -1.04831,0.03996 -1.38282,-0.310547 -0.21172,-0.221855 -0.29822,-0.411757 -0.32812,-0.675781 v -0.002 c -0.0176,-0.160871 0.0685,-0.37208 0.11328,-0.5625 z m 5.91797,0.484375 c 0.26311,0.06396 0.47762,0.212837 0.70508,0.451171 0.37164,0.389423 0.44955,0.651789 0.375,1.111329 -0.009,0.05625 -0.10732,0.138688 -0.12305,0.197265 -0.0348,-0.427756 -0.0926,-0.885917 -0.37109,-1.177734 -0.33721,-0.353333 -0.87718,-0.517048 -1.38868,-0.533203 0.30772,-0.05727 0.59111,-0.100274 0.80274,-0.04883 z m 49.494139,0.484375 0.160156,0.07227 -1.322266,2.917969 -0.158203,0.347656 -1.421875,3.136719 -0.162109,-0.07227 z m -13.542969,0.298828 c 0.001,-8.52e-4 0.0029,8.54e-4 0.0039,0 l -0.0059,0.0059 c 0.0017,-0.0014 3e-4,-0.0045 0.002,-0.0059 z m -18.740234,0.175781 1.767578,4.474609 -0.169922,0.06641 -0.398438,-1.009766 z m 9.517578,0.224609 1.423828,2.677735 -0.164063,0.02148 -0.607421,-1.296875 h 0.002 z m -16.488281,0.142578 0.894531,1.089844 -1.341797,0.851563 -0.603516,-1.527344 z m 12.763671,0.478516 -0.177734,1.078125 h -0.002 l -0.289063,1.742188 -0.154296,0.02148 z m -24.242184,0.316406 c -0.11339,0.07068 -0.27973,0.18722 -0.26758,0.1875 0.001,1.89e-4 -0.0663,-0.05597 -0.0801,-0.06055 0.17459,-0.07455 0.22963,-0.0884 0.34766,-0.126953 z m 11.2832,1.78711 1.492188,3.296875 0.398437,1.009765 -0.164062,0.06445 z m -12.29883,0.03711 c 0.12083,0.05457 0.22213,0.134223 0.35156,0.166016 -0.17232,0.01113 -0.38142,0.08606 -0.53125,0.05273 -0.0108,-0.0026 -0.0186,-0.01483 -0.0293,-0.01758 z"
           fill="#ffffff"
           fill-rule="evenodd"
           id="path48696"
           inkscape:label="Layer 1"
           label="Layer 1"
           lock="False"
           stroke="none"
           stroke-linecap="butt"
           stroke-linejoin="miter"
           stroke-width="2"
           stroke_scale="True"
           transform="matrix(2580.1296,0,0,2580.1296,326948.46,145015.68)"
           type="elem path" />
      </g>
    </g>
    <g
       inkscape:label="Layer 1"
       id="g21">
      <path
         d="m -55.847926,74.142811 -3.117613,-1.413414 -0.888505,1.959804 3.682398,1.669467 -0.691344,1.524919 -5.664793,-2.568214 3.728136,-8.223269 5.676089,2.573336 -0.693904,1.530567 -3.693694,-1.674589 -0.786084,1.73389 3.117613,1.413414 z m -10.783453,-1.753884 3.663793,0.965663 -0.426726,1.619025 -5.768525,-1.520406 2.301155,-8.730741 2.104732,0.554743 z m -8.372767,-2.625294 -0.221986,3.055325 -2.170889,-0.157727 0.654276,-9.005169 3.593408,0.261081 q 1.032874,0.07504 1.796676,0.516025 0.770437,0.435245 1.15215,1.171776 0.388348,0.730795 0.323639,1.621416 -0.09571,1.317377 -1.099518,2.040287 -0.99717,0.717175 -2.642345,0.597644 z m 0.121778,-1.676099 1.42252,0.103354 q 0.630857,0.04583 0.981573,-0.245777 0.3569,-0.291163 0.398691,-0.866355 0.04583,-0.630857 -0.266921,-1.032849 -0.312757,-0.401992 -0.89987,-0.450867 l -1.447259,-0.105151 z m -6.267514,3.217308 -2.955549,0.402004 -0.288817,1.741534 -2.304222,0.313412 2.064335,-9.392827 2.027716,-0.275803 4.522668,8.496885 -2.316511,0.315084 z m -2.665896,-1.333385 1.923258,-0.261596 -1.386764,-2.971804 z m -13.428089,-1.911739 4.182003,5.1023 -0.438805,-6.580661 2.66465,-1.052394 3.316633,8.397684 -2.030209,0.801823 -0.774489,-1.960997 -1.389324,-4.091726 0.329703,6.777098 -1.338092,0.528474 -4.398167,-5.176941 1.783801,3.942596 0.774489,1.960998 -2.024442,0.799545 -3.316633,-8.397683 z m 58.647823,1.588399 -1.928223,-1.904096 -5.163279,5.228705 -1.548756,-1.529376 5.16328,-5.228705 -1.892924,-1.869238 1.180801,-1.195763 5.369902,5.30271 z m -11.236264,-2.416995 -2.538241,-1.566591 -1.329158,1.161763 -1.978879,-1.221356 7.560038,-5.944115 1.741413,1.074793 -1.903084,9.435563 -1.989433,-1.22787 z m -1.212339,-2.723077 1.651703,1.019424 0.816268,-3.17623 z m -3.574181,-3.124511 q -0.452617,1.24088 -1.261342,2.028427 -0.808726,0.787547 -1.848403,0.995793 -1.031727,0.204545 -2.115312,-0.190698 -1.083585,-0.395242 -1.741868,-1.196423 -0.656158,-0.807007 -0.790173,-1.905419 -0.12819,-1.096287 0.286249,-2.304886 l 0.174247,-0.47771 q 0.454741,-1.246705 1.255516,-2.030551 0.808726,-0.787548 1.848403,-0.995793 1.045503,-0.206121 2.134914,0.191247 1.077759,0.393117 1.735493,1.2139 0.657734,0.820783 0.777423,1.940373 0.127641,1.115889 -0.312775,2.341417 z m -1.950162,-1.113979 q 0.461116,-1.264183 0.273834,-2.071786 -0.179332,-0.811304 -0.965805,-1.098174 -1.537992,-0.560989 -2.466861,1.714124 l -0.233197,0.621228 q -0.454741,1.246705 -0.285485,2.067536 0.169256,0.82083 0.984858,1.118324 0.774821,0.28262 1.434394,-0.22269 0.659573,-0.50531 1.11589,-1.738239 z m -14.787867,1.071947 1.55727,-8.893596 3.194609,0.559377 q 1.716415,0.300544 2.498054,1.085848 0.787747,0.786373 0.578115,1.983588 -0.12086,0.690231 -0.524052,1.123273 -0.403193,0.433042 -1.060768,0.557131 0.664252,0.305176 0.949151,0.871294 0.2849,0.566119 0.158692,1.286891 -0.228884,1.307163 -1.175117,1.821394 -0.939054,0.509192 -2.565985,0.236907 z m 2.806045,-3.405586 -0.373274,2.131775 1.404895,0.245998 q 0.580283,0.101607 0.937794,-0.1065 0.358581,-0.214215 0.443075,-0.696766 0.194659,-1.1117 -0.909863,-1.311397 z m 0.245998,-1.404895 1.117808,0.195728 q 0.703517,0.11689 1.046672,-0.08114 0.343156,-0.19803 0.42872,-0.686689 0.0984,-0.561958 -0.182556,-0.862974 -0.279885,-0.307124 -1.000657,-0.433331 l -1.050617,-0.183964 z m -11.429588,-4.380504 2.083897,6.259391 1.940423,-6.303365 2.86477,-0.0313 0.09865,9.028367 -2.182682,0.02385 -0.02304,-2.108272 0.163669,-4.318062 -2.112487,6.447881 -1.438586,0.01572 -2.259146,-6.406313 0.258053,4.319655 0.02304,2.108272 -2.176481,0.02378 -0.09865,-9.028367 z m -6.580454,8.088097 -2.922744,0.595354 -0.173751,1.756749 -2.278647,0.464153 1.442641,-9.50818 2.005209,-0.408454 5.07125,8.18132 -2.290799,0.466629 z m -2.747755,-1.155318 1.90191,-0.387413 -1.579053,-2.874252 z m -4.75647,0.740283 -3.195225,1.227918 0.771897,2.008593 3.774071,-1.450367 0.600612,1.562882 -5.805817,2.231163 -3.238857,-8.427987 5.817395,-2.235611 0.602836,1.56867 -3.785647,1.454816 0.682918,1.777055 3.195225,-1.227918 z m -8.035689,-0.643432 -2.32579,1.390795 3.77137,6.306785 -1.86808,1.117091 -3.77138,-6.306785 -2.28321,1.365334 -0.86249,-1.442312 6.4771,-3.873219 z m -6.07736,10.023617 q -0.32966,-0.345428 -0.76049,-0.302858 -0.42634,0.03829 -1.23788,0.418469 -0.81153,0.38018 -1.38591,0.559752 -1.86467,0.588045 -2.90503,-0.502072 -0.51803,-0.542816 -0.59789,-1.255227 -0.0797,-0.721179 0.28071,-1.502258 0.35608,-0.785565 1.07834,-1.474856 0.70431,-0.672165 1.50034,-0.951827 0.80051,-0.283943 1.55531,-0.112801 0.75051,0.166656 1.31992,0.763305 l -1.57012,1.498458 q -0.38104,-0.399261 -0.83756,-0.383607 -0.45203,0.01137 -0.86924,0.409534 -0.42169,0.402443 -0.48861,0.826331 -0.0667,0.41512 0.20729,0.702229 0.23975,0.251221 0.70586,0.200702 0.46182,-0.055 1.34901,-0.481665 0.8829,-0.431146 1.5578,-0.595212 1.64097,-0.400282 2.66421,0.671892 0.81773,0.856841 0.63839,1.962332 -0.17933,1.105492 -1.30534,2.1801 -0.79403,0.757792 -1.70975,1.091677 -0.91551,0.325118 -1.71394,0.144185 -0.79823,-0.189701 -1.41473,-0.835697 l 1.5791,-1.50702 q 0.50091,0.524871 1.00983,0.519213 0.50912,-0.01443 1.11923,-0.596683 0.39029,-0.372474 0.45618,-0.752524 0.0661,-0.388818 -0.22503,-0.693872 z"
         fill="#000000"
         fill-rule="evenodd"
         id="path910"
         inkscape:label="Layer 1"
         label="Layer 1"
         lock="False"
         stroke="none"
         stroke-linecap="butt"
         stroke-linejoin="miter"
         stroke-width="0.264583"
         stroke_scale="True"
         transform="matrix(2580.1296,0,0,2580.1296,327485.63,145015.68)"
         type="elem path" />
    </g>
  </g>
  <g
     inkscape:label="Image"
     id="g114"
     transform="matrix(1.6969051,0,0,1.6969051,-47657.782,-469650.03)">
    <path
       d="m 23.515625,144.32422 0.259766,7.14062 1,-0.0352 -0.220704,-6.07813 37.367188,0.97071 0.03906,7.26367 1,-0.004 -0.04492,-8.23437 z"
       fill="#ffffff"
       fill-rule="evenodd"
       id="path39022"
       inkscape:label="Image"
       label="Image"
       lock="False"
       stroke="none"
       stroke-linecap="butt"
       stroke-linejoin="miter"
       stroke-width="1"
       stroke_scale="True"
       transform="matrix(682.65928,0,0,682.65928,40982.762,311719.79)"
       type="elem path" />
  </g>
  <path
     d="m 327082.93,92981.369 -1343.64,101.39 2.31,43.085 2592.46,55607.386 165.96,370.1 2210.46,46154.89 -919.47,-456.26 -764.05,-250.98 73.8,-730.02 653.36,-567.82 450.53,-1346.02 -1364.72,-190.1 131.8,-1115.34 -3396.02,126.75 -158.08,709.77 -777.2,-225.59 -231.85,1723.7 1061.73,1115.36 337.25,757.91 -102.87,370.09 -1354.2,501.91 -911.54,3079.87 -339.89,3259.82 758.79,1019.02 268.23,2844.93 1077.57,-58.39 -278.5,-3116.16 -711.36,-955.64 289.81,-2778.19 737.7,-2491.77 1364.72,-506.99 342.5,-1226.88 -558.53,-1252.23 -848.35,-887.21 5.8,-30.34 679.73,197.71 229.2,-1024.09 1301.51,-50.73 -108.08,915.09 1074.92,152.06 -658.63,572.87 -192.35,1944.25 1493.82,491.76 576.98,283.91 339.88,841.56 840.37,8831.16 1417.41,-78.44 -2529.15,-53168.55 382.02,854.25 576.98,-169.84 2028.64,-588.08 358.32,-3449.96 837.79,-2689.49 v -5500.67 l -245,-4271.25 -5229.71,-29640.21 z m -308159.628,9460.131 -1232.999,129.27 -105.388,2.54 v 7.65 27.88 l 2468.629,68284.3 -471.595,268.69 -484.769,981 -326.691,1409.38 -84.302,925.22 -345.136,1150.84 -173.883,1482.89 -558.537,1726.25 -271.364,1602.04 -197.596,1934.1 -268.73,195.2 -5.351,-15.19 -247.653,-763 -295.078,-1198.98 -503.209,-1378.97 -279.268,-2043.11 -603.324,-25.3 -129.096,-522.17 329.325,-965.8 -47.428,-996.2 -100.118,-1221.8 -858.881,-1054.51 -1222.459,-60.89 -1172.4,684.42 -144.914,1067.18 382.02,930.31 110.659,641.33 -44.781,572.88 -187.057,22.85 -1483.288,240.83 -661.2839,1034.21 171.251,6699.65 -137.006,2.33 92.211,6015.24 -1883.742,4.63 15.845,3893.57 1659.809,-4.64 73.772,15987.34 1348.9219,35.55 -73.778,-16027.88 11721.376,-38.11 -92.909,16483.42 1348.919,32.9 92.91,-16521.44 8952.4,-30.36 43.938,16856.97 1348.921,32.9 -43.95,-16894.98 10933.624,-35.57 -76.153,17070.84 1348.919,35.56 76.153,-17111.35 11947.86,-90.24 3.36,17524.19 1348.919,32.89 -3.36,-17562.21 11318.369,13.68 142.26,17694.65 867.543,74.61 c 102.401,-1221.72 -75.134,-4518.72 115.167,-5713.43 l 223.942,-12060.9 3443.435,-10.42 c 657.809,-1406.94 1385.842,-2757.54 2181.455,-4045.66 l -23.723,-712.29 289.806,4.63 v 276.29 c 345.517,-542.93 705.476,-1070.95 1074.921,-1589.36 l -5.33,-1612.19 1227.73,-4.63 c 913.897,-1137.58 1882.5,-2211.95 2916.493,-3194.73 -71.915,-209.55 -133.728,-369.95 -237.116,-760.47 -88.699,-335.11 -165.582,-679.09 -192.325,-930.3 -13.404,-125.62 -11.006,-228.32 -5.33,-276.3 5.676,-48.03 29.297,-18.41 -68.496,73.46 355.799,-335.3 507.843,-759.27 653.382,-1140.68 145.536,-381.41 237.117,-709.78 237.117,-709.78 l 21.082,-81.11 -137.003,-2466.44 c 0,-24.81 0.02,-355.69 -10.541,-760.43 -11.122,-419.6 -14.482,-834.35 -89.592,-1160.99 -58.535,-254.62 -163.346,-1356.17 -163.346,-1356.17 l -13.252,-167.28 -1027.497,-1160.99 -937.922,-608.36 -474.23,-499.36 158.077,-319.39 129.095,-1148.3 -397.814,-851.78 c -6.835,-89.41 8.804,-130.12 -55.338,-281.38 -54.861,-129.39 -150.349,-288.44 -334.595,-408.11 -184.25,-119.67 -444.973,-162.83 -671.825,-121.62 -392.641,70.22 -1214.555,116.55 -1214.555,116.55 l -266.094,15.24 -605.961,859.31 -110.662,1138.15 223.942,801.03 245.018,1041.85 v 755.37 l -213.403,205.33 -1483.285,735.11 -555.903,2324.48 -563.805,1267.43 421.537,3117.9 764.037,-661.61 1217.188,-1057.04 300.349,-572.87 94.85,1723.71 131.732,1718.65 v 884.66 l 2.78,833.98 -21977.906,136.87 5.328,-408.1 160.655,-679.36 474.229,-2005.08 44.784,-1328.25 86.938,-1368.85 -47.425,-2012.68 -1093.36,-844.11 -42.167,-304.18 371.48,-1183.8 -600.691,-1419.51 -1836.321,-887.21 -1072.286,458.81 -742.961,745.25 137.003,1143.23 413.634,648.92 -595.424,-22.84 -1414.782,164.77 -492.673,1508.26 -63.227,1082.37 461.058,765.52 -63.225,494.31 -930.018,131.83 -1960.147,195.18 -463.692,-190.12 -173.885,-897.34 -57.954,-590.62 -334.598,-1168.58 -661.287,-709.76 -990.612,-420.8 -1335.745,205.32 -737.692,808.63 v 1150.82 l 521.654,915.09 403.095,755.4 -466.327,1247.16 -295.076,910.01 -263.46,666.67 -266.095,430.92 -287.174,-174.9 -592.787,-955.64 -126.46,-641.31 -492.672,-981 -534.824,-884.68 -360.942,-770.6 -223.942,-755.38 -284.536,-927.76 -281.905,-1353.62 -687.632,-468.96 -1019.594,-648.91 -1496.459,506.96 v 1439.81 l 134.367,1252.21 197.596,1348.55 864.151,1021.55 964.268,1100.14 -276.633,953.1 -1889.017,689.51 -874.686,420.78 v -329.52 l 63.225,-945.52 v -653.99 l 28.971,-1008.89 -600.691,-504.42 -302.981,-572.9 -197.594,-651.45 -189.692,-755.4 -252.922,-1016.48 -982.71,-258.56 -943.192,134.35 -895.751,904.97 -15.823,-638.78 -355.673,-1313.06 -679.726,-1477.84 -1288.325,-479.09 -379.383,-392.9 108.024,-841.58 -131.732,-1320.67 -461.058,-1234.48 -1828.418,22.85 -864.153,438.54 -684.996,661.58 -60.593,1348.58 511.113,874.51 194.961,1120.4 -26.341,811.17 -42.162,1358.7 c -1.043,15.95 -22.416,313.48 -52.685,669.19 -31.096,365.11 -82.107,806.78 -102.753,902.43 -72.356,335.22 -246.026,1020.18 -247.651,1026.61 0,0 0,4.85 0,4.85 l -521.656,1571.63 519.019,1546.27 321.422,897.34 155.442,1680.61 -711.344,382.76 -226.568,-1305.16 -118.552,-626.12 -108.025,-942.96 -23.708,-925.22 -89.588,-1254.77 -84.302,-1143.23 -23.708,-783.27 -252.922,-849.18 -582.25,-600.76 -221.307,-542.47 -123.823,-1074.78 -92.21,-1335.87 -619.131,-1019.03 -418.905,-286.44 -426.806,-11782.07 3037.705,7667.99 3617.316,-686.96 -4347.104,-27827.78 1723.034,-1898.62 z m 309089.658,8319.43 4594.76,26058.44 239.75,4162.25 v 5275.07 l -819.36,2626.13 -279.28,2709.77 -590.13,172.37 -1322.59,-2953.13 z m -308607.525,1954.38 4157.412,23077.45 -1709.861,1885.94 4246.989,27196.6 -1238.265,233.2 -3427.627,-8659.12 z m 107547.355,1234.48 -8578.28,342.21 503.2,24223.2 -360.93,-126.76 c -965.3,2556.32 -3534.6,6725.94 -6826.27,11444.93 -3291.73,4719.01 -7307.47,10018.92 -11199.72,14983.62 -1191.058,1519.21 -2055.248,2541.68 -3198.419,3972.13 l 15.812,-316.86 -505.844,-968.32 -1351.556,-45.66 c -75.77,-51.91 -72.921,-80.08 -213.403,-121.62 -149.558,-45.68 -380.487,-73.07 -605.96,32.97 -225.471,106.02 -370.734,316.13 -442.614,524.72 -210.25,609.97 -281.903,1442.33 -281.903,1442.33 l -5.328,48.16 79.024,851.72 -31.611,288.96 -105.392,-45.68 -2.665,-904.95 -508.48,-806.09 -758.766,-1082.39 -387.288,124.19 -1493.823,476.56 -403.094,1386.58 334.595,1176.18 144.896,273.76 -1225.093,38.03 -1522.802,1064.65 956.363,339.67 -302.982,572.88 -998.515,2228.15 2347.436,-623.57 835.171,2035.5 c -1104.745,1343.97 -1102.906,1329.92 -1899.553,2291.52 0,0 788.854,833.96 3957.179,-2727.62 1147.045,-1401.04 2530.179,-3145.28 3859.704,-4795.98 l 458.419,177.44 1617.649,1911.29 447.885,-1480.36 824.628,-560.21 919.48,-803.56 -100.12,-986.05 -400.46,-1006.34 60.6,-679.36 -5.33,-441.07 503.21,-53.22 305.61,253.49 677.1,654 47.42,185.05 -540.09,694.54 563.8,1482.92 1301.5,48.14 1612.38,1371.35 -42.17,-2357.43 -108.02,-1257.31 358.31,-839.03 358.31,-1505.72 292.44,-1272.51 94.85,-195.17 1380.53,147.03 879.96,-742.73 -532.19,-1340.93 -163.34,-970.87 342.5,-195.18 c 68.27,-11.74 612.39,-109.02 1161.86,-109.02 174.51,0 99.42,2.56 81.74,-12.95 l -8.11,129.27 511.12,763 76.35,879.59 152.8,1039.28 1138.16,524.74 835.17,182.5 1338.38,9396.77 c 380.07,78.01 756.23,170.37 1130.25,268.69 l -1501.73,-10517.17 -1443.76,-316.86 -508.49,-235.75 -68.53,-458.8 -97.53,-1107.75 -550.64,-821.29 c -16.59,-96.69 10.78,-122.77 -60.56,-243.35 -159.16,-267.77 -555.3,-509.51 -1024.87,-509.51 -726.99,0 -1435.86,136.89 -1435.86,136.89 l -92.2,15.23 -1159.23,656.54 297.71,1776.93 289.81,724.97 -1620.29,-174.9 -471.59,975.92 -316.16,1378.97 -339.86,1419.52 -421.54,993.67 123.83,1432.21 -63.23,-53.21 -964.26,-35.55 -113.29,-301.67 492.68,-633.71 -234.49,-942.97 -922.11,-887.21 -687.63,-572.87 -711.34,73.45 c 304.28,-386.08 515.72,-630.89 821.99,-1021.55 3901.37,-4976.33 7932.81,-10290.46 11247.15,-15041.91 2648.29,-3796.62 4796.65,-7178.07 6112.29,-9835.29 l 719.24,34550.26 h -10.77 l -3783.3,27.87 c 4941.59,1692.15 9278.97,5155.63 12611.86,9787.12 387.91,539.04 755.81,1100.39 1117.09,1670.48 l 165.96,-2332.07 60.65,-162.23 c 0,0 2940.68,-8544.81 10817.69,-8905 4160.7,-190.26 7415.54,2285.55 9487.22,5328.3 2071.7,3042.75 3144.5,6701.13 3140.47,9660.38 -5.8,4062.85 313.83,13815.1 476.85,18636.34 l 15876.15,-529.77 -94.75,-16970.93 23940.7,-1102.69 263.9,20233.08 2181.21,-46.1 -405.94,-20270.62 22515.35,-1036.76 636.11,20569.33 827.27,-27.92 1211.91,-30.35 -636.08,-20604.83 24017.09,-1107.72 -66.84,21145.24 1369.95,-53.18 45.88,-20881.61 -45.88,20881.61 1346.29,-53.17 48.41,-21061.58 11568.57,-202.78 419.52,20822.86 1464.96,-123.41 60.48,-2648.14 32141.55,-1004.3 -86.88,-3642.61 -105.41,-13761.8 h 5.78 l 150.23,-3891.02 -1525.45,-55.84 -87,-7318.16 -848.33,10.31 -882.6,-114.1 -4813.42,-377.68 1348.92,-3204.07 2.32,-5.21 -995.88,-395.45 -2.32,5.21 -10.42,25.32 -108.09,243.35 -52.71,-81.13 -964.26,-1003.8 100.1,-1449.96 -121.13,-1863.12 -1733.57,-846.66 -1507.01,205.33 -1056.48,1477.83 366.23,1125.48 318.78,1168.58 -258.18,704.71 -885.24,894.79 -474.22,684.41 -389.93,-570.34 -779.85,-88.77 -171.23,-831.43 86.98,-1855.52 -661.29,-2096.36 -1409.51,-940.42 -1641.33,463.88 -432.1,1792.15 v 1389.11 l 724.52,1125.49 192.33,1168.57 -121.12,1150.84 -2990.27,1470.22 -5711.84,-68.38 -2737.34,-1820.04 -1251.47,210.4 -334.58,-380.24 -36.84,-1444.88 155.46,-2621.05 -1301.51,-1069.71 -2110.31,311.77 -853.63,1490.52 97.54,1708.51 310.89,2207.86 -2452.82,438.53 -829.89,-833.97 15.86,-1308 -179.16,-1548.8 -990.62,-1452.48 -1414.77,-828.89 -1364.74,1252.22 -255.55,1784.55 782.47,2276.31 -792.99,441.06 -10.44,-702.14 -922.11,-2207.88 -1161.86,-481.63 -1077.55,-468.96 -71.13,-1629.92 -1330.48,-1533.59 -1554.4,121.61 -1119.72,1122.95 403.1,1574.16 474.22,1247.15 -3156.26,2238.29 -260.82,1503.19 -516.4,-283.91 -408.36,-1153.37 -213.38,-1741.45 -1322.59,-861.86 -1443.76,-15.24 -331.97,1675.54 358.31,1878.34 181.78,1287.73 -2924.41,458.79 -147.48,7.78 442.59,-877.08 -890.47,-1528.53 -397.84,-902.41 255.56,-1614.71 -605.95,-2035.51 -1364.75,-534.86 -1759.91,727.51 18.41,1264.91 -658.67,-210.39 231.84,-877.07 -716.58,-1556.41 -861.52,25.31 v -2278.85 l -3388.11,53.22 -258.22,2015.21 -250.26,1495.57 413.62,978.47 -2905.98,1087.46 221.33,5140.73 -2.33,238.26 -1578.14,76.06 -12013.81,405.59 -12777.87,689.47 -11534.32,276.31 -395.17,15.22 -179.16,-2045.66 2365.87,-3206.6 -9582.06,271.23 -147.48,-11206.66 600.7,-7.75 1580.75,-4256.06 -26211.71,116.54 c -1145.45,-861.41 -5184.53,-3912.47 -10133.23,-7972.19 -2850.7,-2338.62 -5795.27,-4851.48 -8206.79,-7122.98 -2290.1,-2157.12 -4034.04,-4086.28 -4789.72,-5351.1 z m 387.29,26038.17 c 919.04,1105.1 2128.02,2342.58 3527.73,3673.02 l -1261.96,27.88 745.58,31219.45 -2487.07,-139.4 h -10.66 z m 3617.31,3761.74 c 71.61,67.92 117.16,124.26 189.7,192.65 2448.09,2305.94 5410.4,4833.56 8275.29,7183.82 3849.35,3157.84 6852.09,5471.84 8849.68,6993.7 l -2273.68,10.31 -68.58,572.88 -458.43,3956.93 2526.58,-35.55 123.87,11589.41 -97.53,5.22 -669.19,20.25 v 10.32 l -15652.2,694.51 z m 40810.11,18545.1 147.48,11247.21 -3314.35,93.84 -94.75,-11295.37 z m -5959.5,83.59 94.76,11333.39 -7121.35,202.8 -221.3,-11437.33 z m -9945.65,136.89 221.3,11475.36 -5263.94,149.55 -123.88,-11553.93 z m 69535.23,4512.05 -2.33,2294.06 1248.8,-35.41 271.37,588.08 -387.3,1465.16 3050.9,981 -28.95,-2035.5 682.35,-281.39 461.06,179.98 397.82,1333.36 -266.09,1678.07 537.45,1229.41 645.48,1105.19 -453.16,904.96 -10172.2,494.31 2.31,-215.48 v -12.93 l -187.05,-4398 3208.95,-1201.53 -713.99,-1685.68 205.51,-1229.42 144.89,-1135.62 z m -125876.331,1110.28 -73.778,811.16 434.712,1095.07 34.253,329.54 -468.96,410.63 -1024.863,697.09 -526.921,-621.03 -432.078,-167.3 c 721.076,-898.27 1307.5,-1610.37 2057.63,-2555.16 z m 175148.781,27.9 677.1,451.21 500.57,1581.76 -86.88,1802.28 353.02,1693.31 1059.11,121.62 1011.7,1472.74 1322.56,-1908.75 982.73,-993.67 442.61,-1211.68 -408.36,-1500.64 -218.68,-669.19 490.04,-681.89 700.79,-96.3 882.61,428.39 79.11,1204.06 -129.05,1827.65 1214.56,1267.44 418.92,626.1 -872.07,2065.92 -7134.52,-73.45 -3003.44,25.31 1646.63,-808.63 192.32,-1847.93 -245.01,-1510.77 -679.75,-1051.98 v -973.39 l 263.48,-1087.46 z m -30374.39,223.08 737.69,851.71 81.77,1918.88 1691.41,735.13 764.03,314.32 682.38,1632.46 26.3,1847.91 -3593.62,63.33 -4189.03,218 305.61,-1769.34 3459.25,-2448.69 -735.05,-1926.5 -247.67,-963.25 426.81,-428.38 z m -149132.033,98.88 961.633,32.97 92.21,174.91 -39.525,839.04 -358.308,1082.41 c -318.282,395.29 -609.603,762.57 -919.478,1145.75 l 163.347,-1518.39 -79.026,-836.51 c 4.054,-33.35 92.51,-529.06 179.154,-920.17 z m -3027.167,433.47 284.539,408.11 342.498,537.4 2.664,1285.18 1941.71,846.64 c -1029.443,1271.91 -2175.365,2721.65 -3079.859,3825.13 l -956.361,-2327.02 -1114.441,296.57 94.851,-212.91 226.574,-423.33 1451.67,-861.86 -382.018,-134.34 292.442,-10.3 1016.958,-499.38 -621.766,-1176.18 -226.576,-798.49 165.979,-577.96 z m -12032.258,12.95 -2.78,73.46 334.596,717.39 -76.408,692.01 -395.192,790.86 1053.844,1107.74 922.115,600.77 711.343,803.56 c 14.016,186.86 60.757,877.07 163.344,1323.19 12.338,53.25 52.522,556.74 63.226,960.72 10.657,403.98 10.542,763 10.542,763 v 15.22 l 129.187,2306.5 c -15.928,55.68 -72.285,256.18 -184.423,550.07 -126.598,331.76 -346.965,714.96 -392.557,757.9 -198.146,186.75 -230.513,380.89 -250.287,547.54 -19.774,166.66 -12.953,328.02 5.328,499.37 36.479,342.71 122.758,720.05 218.674,1082.4 81.585,308.21 122.727,401.58 184.421,590.63 l -3053.511,20.28 -2.78,-831.44 v -920.16 l -131.732,-1746.52 -113.28,-2022.85 -221.307,-1665.39 -1038.036,-124.22 -424.174,1041.84 -547.999,1044.37 -302.98,263.64 -118.551,-874.54 484.767,-1092.53 466.326,-1944.25 1185.573,-588.08 650.75,-623.58 v -1302.9 l -276.635,-1173.63 -179.152,-641.33 65.865,-686.95 160.713,-228.14 c 190.923,-10.3 503.804,-31.28 901.036,-86.17 z m -53037.307,192.65 155.443,415.72 108.025,1079.85 -152.808,1204.07 885.228,925.24 1106.538,410.64 463.692,1006.34 302.977,1112.82 21.087,1054.49 126.462,1335.87 -57.959,2448.69 1746.745,-306.72 1016.96,-1112.81 -271.366,-1166.05 -179.154,-948.03 -152.806,-474.01 260.824,-263.63 350.404,-50.74 150.168,40.52 102.749,418.27 197.595,780.73 234.48,765.55 439.98,839.03 376.749,316.86 -15.824,532.32 v 636.26 l -63.225,945.5 v 2043.12 l 2389.589,-1148.31 2347.437,-859.33 576.98,-1987.33 -1327.843,-1510.77 -666.557,-790.9 -152.808,-1044.36 -126.458,-1178.72 v -651.46 l 268.729,-91.22 558.538,354.85 321.421,220.55 208.133,993.67 297.712,968.33 242.384,823.83 416.27,889.73 542.728,897.34 413.634,821.31 137.003,686.94 821.998,1325.74 1443.766,874.53 879.959,-1422.07 308.249,-783.28 295.075,-917.6 619.135,-1650.22 -624.402,-1168.57 -395.192,-692.02 v -496.82 l 210.767,-233.2 640.212,-96.32 484.768,205.32 337.23,359.97 242.384,849.16 52.684,545 287.172,1487.96 1254.074,514.59 2257.86,-223.07 1767.822,-250.94 210.771,-1624.86 -482.137,-798.49 36.884,-643.84 242.383,-745.27 640.21,-73.44 1578.13,58.27 105.393,-1287.71 -503.212,-788.35 -50.066,-428.4 245.02,-245.86 410.999,-174.92 1019.594,491.76 302.979,719.91 -329.327,1044.36 129.095,940.43 1040.671,801.02 34.254,1485.44 -84.295,1340.95 -42.167,1242.1 -450.519,1908.74 -187.057,788.35 -5.33,534.85 -29194.097,179.97 -218.671,-2347.28 -360.944,-1008.87 -408.364,-1219.28 432.077,-1305.46 5.352,-17.79 c 0,0 173.06,-684.94 255.557,-1067.16 56.951,-263.91 89.223,-651.09 121.188,-1026.65 31.98,-375.54 55.339,-704.69 55.339,-704.69 v -10.3 l 44.782,-1366.3 26.342,-915.09 -239.75,-1399.25 -453.15,-775.65 28.976,-651.49 271.362,-263.61 490.039,-245.9 z m 231982.565,367.56 519.02,428.39 -126.47,2149.58 47.5,1852.98 980.08,1112.82 1425.31,-240.81 1327.85,882.13 -266.09,2.79 -8509.78,-83.61 3583.05,-643.86 -445.25,-3145.77 -79.11,-1368.83 447.9,-780.73 z m -7935.44,387.84 500.57,294.04 716.61,1049.45 144.9,1237.01 -21.1,1670.47 1449.06,1460.08 -131.8,-2.78 -4679.08,83.71 2336.89,-1302.92 -980.06,-2849.19 171.27,-1188.85 z m -14577.29,2230.68 h 216.03 l 645.48,420.8 171.26,1378.96 574.33,1629.92 916.86,501.91 -2081.34,109.01 -239.76,-1698.36 -329.33,-1713.55 z m -216422.568,418.27 395.194,10970.9 -3156.262,17.83 814.095,-593.15 239.749,-2352.37 252.921,-1498.11 569.077,-1751.6 173.884,-1493.04 347.769,-1160.95 89.588,-958.17 z m -6929.018,846.64 397.824,20.24 355.673,436.01 73.773,892.28 36.885,788.33 -363.575,1062.11 389.921,1574.15 513.75,20.23 173.884,1282.65 521.652,1429.66 289.808,1183.78 271.364,821.29 242.384,638.8 -5148.023,32.9 -147.537,-5759.48 239.755,-372.63 977.438,-159.69 1035.401,-124.2 126.46,-1543.72 -152.807,-874.54 -321.424,-783.27 42.161,-306.72 z m 8330.631,626.11 76.41,671.73 353.038,856.8 542.73,560.2 144.91,484.15 21.088,674.28 86.939,1163.52 86.936,1231.93 23.707,945.5 115.933,1026.63 126.46,653.99 210.768,1211.69 -1443.766,8.09 z m 87613.905,1439.8 c -1750.92,55.25 -3498.42,345.76 -5216.52,866.93 3518.03,621.53 6938.24,2129.81 10032.58,4539.94 7894.31,6148.7 12659.67,17032.94 13078.21,29021.72 l 7434.85,-248.42 c -85.17,-18952.72 -11251.01,-34020.57 -25329.12,-34180.47 z m -78097.696,598.23 258.189,793.4 168.614,907.49 158.077,669.23 -408.362,446.13 -73.778,12.91 28.972,-1234.48 -126.46,-1356.15 z m 110318.966,608.36 c -217.66,-6.25 -437.58,-7.76 -661.28,2.78 -6843.7,312.94 -9608.42,8033 -9608.42,8033 l -295.08,4119.17 c 3178.12,5837.77 5011.41,13004.53 5045.27,20773.24 l 16550.61,-552.58 c -163.86,-4814.65 -485.88,-14541.41 -479.49,-18682 5.79,-5110.85 -3804.07,-13473.24 -10551.61,-13693.38 z m 134175.34,223.09 20.98,1634.97 -18176.16,-114.07 -15.89,-1470.21 5598.55,55.81 z m 1351.55,7.75 5809.33,58.24 21.09,1637.53 -5811.97,-58.24 z m -23097.61,7.76 2226.26,22.87 15.87,1487.97 -10691.25,114.06 -18.43,-1472.74 z m 30258.5,126.81 819.35,63.31 -816.72,144.49 z m -40072.41,76.05 15.88,1449.94 -11450.02,321.92 -13.66,-1178.7 z m -142448.02,190.12 c -5130.96,-353.26 -10269.791,1330.97 -14780.153,4844.13 -7443.138,5839.32 -13377.158,18445.97 -14336.605,29860.33 l 1280.419,17.85 c -53.704,-319.1 860.583,-3055.36 892.204,-3548.41 117.699,-1835.51 317.336,-2565.92 1064.38,-2669.22 249.017,-34.39 558.066,0.7 945.824,88.85 1359.791,304.5 9293.749,3165.68 11468.454,3951.88 l 2713.644,38.11 c 408.405,-5205.82 3874.194,-9186.55 8035.557,-9229.47 4254.056,2.33 7789.696,4120.75 8114.596,9452.54 l 9669.01,131.79 4613.22,-154.63 611.22,-86.18 c 0,0 1356.87,-585.3 2197.27,-8.11 l 1615,-53.17 c -407.81,-11704.45 -5104.55,-22209.09 -12540.73,-28047.96 -3509.39,-2734.08 -7469.47,-4305.37 -11563.3,-4588.12 z m 187913.47,316.87 15.87,1239.54 -5390.41,-230.66 -8.11,-621.05 102.86,537.39 z m -58261.73,154.62 13.66,1158.44 -9816.52,400.52 8.11,-1082.4 z m -10873.05,529.79 -8.1,1074.79 -677.1,27.86 -13.66,-1069.71 z m -2044.45,91.24 13.68,1064.64 -9555.73,397.98 -13.68,-1140.7 z m -10904.65,365.01 13.68,1166.04 -12796.3,671.74 -15.86,-1155.9 12224.58,-661.6 z m -65944.25,727.51 c 781.46,2.78 1198.45,408.12 1538.61,902.42 378.85,550.49 507.01,1127.93 513.77,1158.44 l -13.67,6463.92 -4376.09,-98.93 60.47,-4932.85 v -10.44 c 0,0 -8.11,-862.71 260.83,-1733.85 134.22,-435.56 337.4,-857.02 605.97,-1160.97 268.55,-303.93 576.38,-500.04 1051.2,-562.73 127.38,-16.27 246.61,-25.86 358.31,-25.3 z m 51799.03,2.78 13.66,1173.65 -10388.26,453.75 -15.75,-1378.97 z m -91576.35,60.89 c 2546.97,83.98 1938.68,1961.47 1620.29,3462.64 -318.4,1501.21 -3785.937,16725.07 -3785.937,16725.07 l 173.885,-17384.97 c 0,0 -555.268,-2887.55 1991.762,-2803.55 z m 155760.7,162.24 18176.16,114.08 10.42,915.09 -18170.9,273.77 z m -1348.92,4.87 15.87,1310.52 -10691.23,78.53 -15.87,-1275.03 z m 20874.01,119.14 5811.95,60.89 13.66,1145.75 -5814.55,-286.44 z m -32914.18,22.86 15.89,1282.67 -11450.02,377.68 -15.87,-1340.94 z m 40075.03,65.97 5390.42,230.66 13.66,1259.82 -5387.77,-304.17 z m -52873.95,301.63 18.43,1346.02 -9871.9,428.4 10.44,-1371.37 z m -136264.594,2.78 c 1741.87,21.42 2011.087,1450.75 2047.09,2790.9 -35.146,5477.54 111.716,11583.25 -5.33,17059.65 l -4520.915,-15994.91 c 0,0 -862.543,-3304.4 1638.725,-3774.42 312.652,-58.8 591.602,-84.22 840.442,-81.12 z m 125344.144,446.13 -10.44,1373.9 -624.41,27.93 -18.41,-1376.44 z m -1999.67,81.13 18.43,1384.03 -9553.08,468.96 -18.43,-1455.01 z m -10902.02,466.43 18.43,1455 -12798.92,656.55 -15.87,-1437.28 z m -98600.22,593.16 c 238.85,1.39 509,41.01 814.09,129.27 2440.63,705.67 463.12,3789.97 -242.38,5163.51 -705.51,1373.57 -7163.5,13325.81 -7163.5,13325.81 l 4771.27,-16768.15 c 0,0 148.62,-1858.61 1820.52,-1850.46 z m 84455.02,144.49 15.87,1424.57 -10388.27,324.48 -15.88,-1295.32 z m 82357.85,78.51 15.87,1480.38 -210.78,4.63 -15828.71,570.35 -2123.49,15.17 -23.74,-1792.15 z m 1348.92,20.28 5814.6,283.91 13.66,1039.29 -5811.95,111.43 z m -20868.72,266.18 23.74,1784.53 -10696.51,50.74 -20.98,-1756.67 z m 28034.85,86.17 5387.8,304.18 10.43,783.29 -4463.05,-159.69 -924.72,17.83 z m -40077.65,27.93 20.95,1733.83 -11444.71,524.73 -23.75,-1878.35 z m -12793.67,433.44 20.98,1888.48 -9932.5,456.28 15.87,-1916.36 z m -10975.78,474.03 -13.66,1921.42 -561.19,25.25 -23.74,-1918.88 z m -1946.96,91.27 23.75,1916.35 -9553.08,441.08 -23.76,-1888.49 z m -130194.462,479.09 c 1276.686,75.07 1937.974,1270.63 2276.303,2372.63 451.105,1469.39 3609.414,14940.5 3609.414,14940.5 l -8138.306,-12241.01 c 0,0 -1531.311,-3651.61 758.766,-4727.54 572.51,-268.96 1068.261,-369.74 1493.823,-344.73 z m 119295.082,58.27 20.96,1880.87 -12798.93,590.62 -20.95,-1814.95 z m -125191.337,461.34 -360.939,504.44 -2307.918,10.42 -2.781,-496.82 z m -3749.047,22.82 2.779,496.82 -418.903,2.33 -18.43,-496.84 z m -1780.996,15.17 15.812,514.57 -4431.41,190.11 5.329,-681.89 z m -5759.255,32.91 -5.328,702.14 -10417.243,-96.26 7.877,-542.47 z m -11763.528,71 -7.877,542.46 -2687.302,73.44 5.33,-598.21 z m -3767.489,22.82 -7.879,623.58 -1870.571,53.28 7.877,-661.61 z m -3219.491,20.28 -7.877,684.39 -5445.735,98.93 10.542,-747.76 z m -6792.023,43.08 -10.542,785.82 -5040.005,200.25 2.665,-955.64 z m 147875.306,17.85 21.09,1825.11 -10385.63,479.07 -23.74,-1977.18 z m -154272.135,20.26 -2.664,975.93 -4502.547,53.28 18.442,-998.75 z m -5835.658,38 -18.442,998.76 -4199.567,25.25 -15.812,-996.2 z m -5582.736,32.9 15.818,991.15 -2948.126,-4.64 7.923,-968.32 z m -4273.335,27.92 -7.923,958.17 -1348.921,8.11 -36.885,-955.65 z m -2742.628,15.18 34.252,953.09 -706.075,4.65 7.922,-950.59 z m -2012.84,15.17 -7.923,945.5 -7421.693,8.11 -13.276,-907.5 z m 96055.192,1323.23 c 320.25,9.27 686.74,111.78 1098.63,344.75 2196.76,1242.93 739.68,3232.46 -284.54,4405.59 -1024.23,1173.2 -10614.83,11536.18 -10614.83,11536.18 l 7856.4,-14656.61 c 0,0 556.6,-1670.48 1944.34,-1629.91 z m -36123.115,101.36 2.779,1617.25 -326.69,-2.32 -55.338,-1612.17 z m -1725.67,30.36 52.686,1579.22 -4549.97,-40.56 10.542,-1346 z m -16258.168,126.77 10422.512,96.27 -10.542,1325.74 -10433.051,139.42 z m -1348.921,8.11 -21.082,1566.55 -2682.03,22.83 13.251,-1125.48 5.328,-390.37 z m -3764.855,104.02 -2.666,349.82 -13.251,1145.77 -1867.938,15.17 15.812,-1460.09 z m -3216.857,83.64 -15.812,1422.06 -5448.369,-116.54 15.812,-1206.6 z m -6799.925,144.5 -13.253,1171.11 -5021.564,152.06 5.33,-1122.96 z m -6378.386,225.6 -5.33,1112.83 -4534.161,-20.28 18.43,-1044.36 z m -5869.91,58.27 -18.431,1019.01 -4123.163,-71 -13.255,-922.69 z m -9829.724,22.82 -5.352,950.59 -1256.707,-22.82 -34.252,-922.71 z m 1348.919,0 2977.108,15.17 13.255,920.17 -2995.55,38.11 z m -3994.066,15.17 31.616,894.82 -798.286,-15.17 5.352,-877.08 z m -2110.321,10.44 -5.352,871.99 -7374.276,65.92 -13.275,-930.31 z m 266474.869,161.94 h 8.09 l 316.15,14499.46 -3090.38,555.12 c -15.19,0.22 -3641.07,60.58 -4958.34,81.08 l -266.09,-14981.06 z m 1356.81,48.19 4513.09,162.22 100.08,13275.13 -4302.31,773.13 z m -10696.51,131.81 266.09,14978.55 c -2993.3,46.9 -4640.79,69.03 -9342.32,152.04 -594.09,10.44 -1057.29,22.25 -1649.26,32.91 l -495.31,-14763.08 11068,-397.97 z m -12569.72,446.15 497.94,14740.25 c -1208.16,22.37 -2297,45.89 -3403.91,68.36 l -505.84,-14684.49 z m -6220.31,1044.35 -8446.55,283.91 5.8,631.19 84.2,12915.15 8854.96,-390.37 z m -184630.738,212.94 4602.66,40.56 28.983,869.42 -4636.912,15.19 z m -1348.919,15.19 -5.328,920.13 -10443.589,32.9 10.541,-813.7 z m -24209.419,75.99 5451.005,119.14 -7.877,785.82 -5453.641,17.83 z m -1348.921,15.17 -13.253,915.07 -5003.121,17.85 2.664,-780.73 z m -26822.952,22.82 -5.352,980.98 -7324.214,25.25 -15.848,-940.44 z m 1348.921,4.63 856.248,13.66 34.251,955.65 -895.766,4.63 z m 7782.633,35.57 13.255,912.54 -3042.972,10.42 5.352,-884.68 z m 1348.921,0 4078.374,71 -15.814,823.85 -4049.392,13.67 z m 30113.575,2.31 -10.542,806.1 -2679.396,8.09 7.877,-790.86 z m -37037.328,2.32 1201.382,20.26 -5.353,902.42 -1161.862,2.32 z m 33277.743,30.34 -7.877,785.81 -1862.669,4.63 7.877,-775.66 z m -20926.697,50.74 4552.604,20.28 -2.664,768.07 -4563.144,15.17 z m 48489.972,20.28 c 864.579,21.19 1503.608,736.61 2039.188,1543.74 856.929,1291.4 6929.02,12638.84 6929.02,12638.84 l -11349.894,-9589.2 c 0,0 -1336.881,-2106.84 553.268,-3751.6 708.794,-616.75 1309.671,-854.24 1828.418,-841.58 z m 172661.719,861.86 403.1,10859.37 -6120.2,268.69 -68.59,-10935.41 z m -136290.95,2904.62 c 448.1,-4.63 960.78,185.22 1504.37,745.23 1739.49,1791.95 -239.3,3317.25 -1567.59,4162.26 -1328.33,845.04 -12783.13,7330.83 -12783.13,7330.83 L 117621,194112.69 c 0,0 673.99,-948.52 1659.81,-958.16 z m 221783.99,5602.05 -2476.53,2730.05 -1543.87,329.53 -708.72,468.94 -840.44,2752.88 -28300.98,1569.07 -17899.52,737.65 -45373.22,1802.32 -25060.41,638.76 -25147.33,823.83 34.29,9272.55 95720.62,-2671.72 29030.74,-1908.78 11349.9,-479.09 52.71,1176.17 52.7,1155.9 -11318.29,479.11 -29049.18,1908.73 -31765.49,887.22 5722.38,5384.05 -1886.39,1855.54 -7585.03,-7133.12 -17314.66,484.14 6246.67,5820.08 -1878.46,1865.66 -8135.69,-7581.8 -13341.65,372.62 5917.33,5878.37 -1939.08,1804.81 -7632.45,-7581.77 -16202.84,453.73 6180.79,5799.79 -1883.74,1860.59 -8048.74,-7556.44 -2679.4,75.99 -10599.04,296.56 6101.77,5837.83 -1902.2,1840.3 -7914.36,-7576.7 -8517.69,238.26 -3843.88,131.78 6296.71,6220.58 -1931.18,1812.43 -8003.95,-7906.27 -11573.81,400.52 4913.51,4854.29 -1931.16,1809.88 -6620.77,-6539.95 -10696.52,370.09 4924.09,4864.4 -1931.17,1809.9 -6628.66,-6547.56 -9866.62,339.67 4452.5,4397.99 -1933.81,1809.9 -6154.45,-6081.16 -1185.56,40.67 -7513.9,-197.72 4481.46,4428.4 -1931.17,1809.92 -6420.54,-6339.71 -10372.453,-271.25 5371.973,5305.48 -1933.81,1809.91 -7308.401,-7219.31 -7832.692,-205.32 5000.488,4940.45 -1931.168,1812.45 -6936.924,-6854.29 -7614.019,-200.26 5477.35,5411.93 -1933.803,1809.92 -7413.788,-7323.25 -6921.118,-182.51 4913.545,4854.29 -1931.168,1812.41 -6849.982,-6768.1 -223.942,-4.64 -6794.656,-299.11 5493.16,5427.15 -1931.171,1812.44 -7503.363,-7411.96 -21416.734,-940.42 -14777.521,-1282.66 -1032.767,-2.31 -184.423,-38.11 4499.912,3051.97 2552.939,1211.67 2413.301,621.04 3298.529,590.62 4874.025,1166.03 2871.725,1024.1 10045.762,4403.06 299536.564,3057.06 94.75,-81.1 97.54,-162.24 337.23,-5566.56 -49.92,-7242.12 37.06,-9449.98 -8.1,-5609.66 -345.13,-5855.55 c 945.53,-3007.23 214.93,-3965.63 -34.3,-2750.19 z M 78773.706,197697.22 c 565.81,-13.68 1150.512,250.36 1725.67,628.65 1314.64,864.62 10354.011,8671.78 10354.011,8671.78 l -13233.639,-4276.34 c 0,0 -1937.801,-1059.04 -869.423,-3285.19 600.951,-1252.2 1295.911,-1722.6 2023.381,-1738.9 z m 43428.894,4012.68 v 2.33 2.31 2.32 2.31 c 518.48,-1.15 1050.88,260.3 1427.94,1105.21 1005.61,2253.02 -397.05,3463.13 -1944.34,3825.13 -1547.34,362.03 -14008.2,2096.32 -14008.2,2096.32 l 12835.8,-6298.54 c 0,0 824.65,-737.37 1688.8,-740.17 z m -114060.1169,8316.91 279.269,7384.05 108.023,-25.25 824.633,281.38 1925.8969,385.28 h 893.134 l 14830.213,1287.71 32076.359,1409.4 893.131,22.83 -52.684,-9452.55 z m 161649.0569,438.53 -53184.86,1771.88 -45220.416,-621.04 223.941,9376.45 47467.745,1226.9 11663.42,-314.33 39145.01,-1351.08 z m -6581.25,3006.36 c 1118.15,0 2049.31,317.74 2716.27,965.77 666.87,647.93 993.24,1550.57 993.24,2633.74 0,1080.52 -326.59,1980.95 -993.24,2628.65 -666.96,648.02 -1598.12,965.8 -2716.27,965.8 -1115.42,0 -2046.77,-318.48 -2716.3,-965.8 -666.67,-647.7 -993.23,-1548.13 -993.23,-2628.65 0,-1083.17 326.39,-1985.81 993.23,-2633.74 669.53,-647.33 1600.88,-965.77 2716.3,-965.77 z m -89326.418,114.1 h 2429.11 l 1844.225,3346 v -3346 h 2276.302 v 6955.68 h -2426.475 l -1844.225,-3346.04 v 3346.04 h -2278.937 v -6631.22 z m 10530.53,0 h 2484.437 l 2679.398,6955.68 h -2423.84 l -413.635,-1148.3 H 84577.75 l -416.268,1148.3 h -2423.841 z m 4984.681,0 h 6718.251 v 1878.32 h -2173.552 v 5077.36 h -2365.878 v -5077.36 h -2178.821 v -1553.86 z m 7595.576,0 h 6718.251 v 1878.32 h -2173.55 v 5077.36 h -2365.878 v -5077.36 h -2178.823 v -1553.86 z m 6968.541,0 h 2660.95 l 1306.77,1969.59 1309.41,-1969.59 h 2663.57 l -2787.4,4070.99 v 2884.69 h -2365.88 v -2884.69 l -2442.29,-3566.55 z m 13354.82,0 h 2874.36 c 943.29,0 1659.52,126.91 2163.02,453.73 504.94,326.21 764.03,882.49 764.03,1538.65 0,357.64 -89.59,690.19 -279.26,965.81 v 2.31 c -90.96,130.43 -258.47,188.99 -387.29,286.46 200.13,122.04 440.51,198.01 576.98,385.3 243.11,333.71 358.31,742.07 358.31,1191.39 0,681.48 -264.32,1262.21 -779.85,1622.31 -515.67,360.19 -1234.88,509.51 -2147.21,509.51 h -3143.09 z m 8109.32,0 h 2363.26 v 4106.47 c -0,483.18 94.77,789.57 194.96,920.15 h 3.01 c 104.06,128.59 263.14,207.87 598.07,207.87 339.59,0 500.32,-78.31 600.68,-205.32 102.54,-129.36 200.23,-437.3 200.23,-922.7 v -4106.47 h 2365.89 v 4106.47 c -0,947.08 -253.19,1711.89 -800.93,2225.61 -547.91,513.94 -1358.12,747.79 -2365.87,747.79 -1005.01,0 -1812.92,-234.08 -2360.62,-747.79 -547.72,-513.72 -798.28,-1278.53 -798.28,-2225.61 v -3782.01 z m 8554.59,0 h 2713.65 l 1269.88,2872.01 1277.77,-2872.01 h 2708.38 v 6955.68 h -2273.65 v -3351.12 l -951.11,2139.44 h -1514.9 l -951.08,-2139.44 v 3351.12 h -2278.94 v -6631.22 z m 10203.83,0 h 3143.1 c 883.38,0 1609.64,192.75 2134.02,613.43 h 3.48 c 525.15,417.52 793.01,1040.81 793.01,1769.33 0,732.33 -269.12,1358.98 -795.65,1779.49 -524.68,418.46 -1250.05,605.83 -2134.04,605.83 h -777.19 v 2187.6 h -2365.89 v -6631.22 z m 7845.87,0 h 3143.08 c 883.38,0 1609.63,192.75 2134.05,613.43 h 2.31 c 525.17,417.52 790.39,1040.81 790.39,1769.33 0,732.33 -266.48,1358.98 -793.02,1779.49 -524.68,418.46 -1250.05,605.83 -2134.02,605.83 h -777.23 v 2187.6 h -2365.87 v -6631.22 z m 11178.66,1713.57 c -432.2,0 -704.55,127.52 -930.04,418.25 -225.43,290.73 -358.3,733.37 -358.3,1353.6 0,617.25 132.55,1057.53 358.3,1348.57 225.49,290.81 497.84,418.25 930.04,418.25 435.55,0 707.46,-127.98 932.62,-418.25 225.73,-291.04 358.32,-731.32 358.32,-1348.57 0,-620.23 -132.85,-1062.87 -358.32,-1353.6 -225.16,-290.27 -497.07,-418.25 -932.62,-418.25 z m -43529.02,43.1 v 684.41 h 598.06 c 216.96,0 331.46,-45.53 387.28,-91.28 55.17,-45.07 89.58,-96.5 89.58,-250.95 0,-150.84 -33.32,-199.8 -89.58,-245.88 v -2.31 h -2.67 c -56.39,-47.38 -168.91,-93.84 -384.64,-93.84 z m 26870.37,71 v 1112.79 h 598.07 c 273.65,0 432.97,-60.24 534.82,-147.02 101.94,-89.09 155.44,-196.14 155.44,-410.65 0,-215.66 -54.21,-321.94 -155.44,-408.11 -101.94,-86.88 -261.17,-147.03 -534.82,-147.03 z m 7845.87,0 v 1112.79 h 598.04 c 272.44,0 430.21,-60.93 532.22,-147.02 h 2.32 c 101.59,-88.97 155.41,-196.55 155.41,-410.65 0,-215.66 -54.22,-321.94 -155.41,-408.11 -101.94,-86.88 -261.18,-147.03 -534.85,-147.03 z m -68736.936,970.86 -426.806,1188.85 h 850.976 z m 34020.696,1399.24 v 1003.8 h 656.01 c 292.1,0 462.88,-62.67 548,-131.78 86.88,-69.51 137,-163.33 137,-377.7 0,-208.55 -48.02,-295.79 -131.79,-362.47 h -2.66 c -84.44,-68.69 -255.22,-131.8 -550.65,-131.8 z m -110785.2909,2177.47 5.561,121.58 882.59,55.72 z"
     fill="#000000"
     fill-rule="evenodd"
     id="path38724"
     inkscape:label="Image"
     label="Image"
     lock="False"
     stroke="none"
     stroke-linecap="butt"
     stroke-linejoin="miter"
     stroke-width="1323.14"
     stroke_scale="True"
     type="elem path" />
  <path
     d="m 66132.326,-145332.02 177.331,4874.59 682.656,-24.03 -150.665,-4149.28 25508.945,662.66 26.665,4958.59 682.656,-2.73 -30.665,-5621.24 z"
     fill="#ffffff"
     fill-rule="evenodd"
     id="meerk40t:124"
     inkscape:label="Image"
     label="Image"
     lock="False"
     stroke="none"
     stroke-linecap="butt"
     stroke-linejoin="miter"
     stroke-width="682.656"
     stroke_scale="True"
     type="elem path" />
</svg>
